{"glyphs":{"0":{"ha":550,"x_min":35,"x_max":515,"o":"m 93 1053 q 123 1089 93 1053 q 275 1125 152 1125 q 457 1053 399 1125 q 515 815 515 980 l 515 296 q 457 59 515 131 q 275 -14 399 -14 q 93 59 152 -14 q 35 296 35 131 l 35 815 q 93 1053 35 980 m 356 950 q 345 968 356 950 q 275 986 335 986 q 195 950 216 986 q 174 815 174 913 l 174 475 l 376 798 l 376 815 q 356 950 376 913 m 376 296 l 376 636 l 174 315 l 174 296 q 195 161 174 197 q 275 125 216 125 q 356 161 335 125 q 376 296 376 197 z "},"1":{"ha":522,"x_min":35,"x_max":488,"o":"m 330 139 l 488 139 l 488 0 l 35 0 l 35 139 l 192 139 l 192 930 q 137 872 170 890 q 35 854 103 854 l 35 986 q 205 1111 156 986 l 330 1111 l 330 139 z "},"2":{"ha":564,"x_min":35,"x_max":529,"o":"m 313 460 q 233 376 251 400 q 178 226 188 317 q 174 139 174 188 l 529 139 l 529 0 l 35 0 l 35 139 q 40 239 35 193 q 53 319 46 286 q 77 387 60 353 q 106 440 94 420 q 145 488 119 460 q 186 530 171 516 q 235 574 202 545 q 280 615 262 598 q 320 660 297 632 q 357 712 344 687 q 380 770 370 736 q 390 839 390 804 q 368 951 390 917 q 298 986 347 986 q 238 970 261 986 q 201 907 216 955 q 187 774 187 859 l 49 774 q 109 1041 49 956 q 298 1125 170 1125 q 473 1050 418 1125 q 529 839 529 975 q 525 784 529 811 q 516 735 521 757 q 499 689 511 713 q 480 649 488 665 q 455 611 472 633 q 430 577 439 589 q 400 545 420 566 q 371 515 380 524 q 341 487 363 507 q 313 460 319 466 z "},"3":{"ha":564,"x_min":35,"x_max":529,"o":"m 400 564 q 529 268 529 493 q 515 159 529 208 q 473 70 501 109 q 396 8 444 31 q 285 -14 349 -14 q 95 72 155 -14 q 35 338 35 158 l 174 338 q 181 230 174 273 q 205 164 189 186 q 239 133 220 142 q 285 125 258 125 q 390 296 390 125 q 379 402 390 360 q 345 466 368 445 q 298 494 323 486 q 236 501 273 501 l 187 501 l 187 627 l 236 627 q 297 634 272 627 q 345 660 323 641 q 379 718 368 680 q 390 815 390 757 q 285 986 390 986 q 239 978 258 986 q 205 949 220 970 q 181 887 189 928 q 174 787 174 847 l 35 787 q 95 1041 35 958 q 285 1125 155 1125 q 396 1103 349 1125 q 473 1042 444 1081 q 515 952 501 1002 q 529 843 529 903 q 400 564 529 629 z "},"4":{"ha":543,"x_min":35,"x_max":509,"o":"m 509 371 l 509 232 l 411 232 l 411 0 l 272 0 l 272 232 l 35 232 l 35 371 l 272 1111 l 411 1111 l 411 371 l 509 371 m 126 371 l 272 371 l 272 827 l 126 371 z "},"5":{"ha":564,"x_min":35,"x_max":529,"o":"m 335 745 q 529 376 529 745 q 523 252 529 308 q 499 146 516 197 q 454 61 481 95 q 384 7 427 27 q 282 -14 340 -14 q 96 72 157 -14 q 35 338 35 157 l 174 338 q 198 176 174 227 q 282 125 223 125 q 367 183 343 125 q 390 376 390 242 q 367 555 390 505 q 294 606 345 606 q 217 568 246 606 q 180 476 189 531 l 49 476 l 77 1111 l 485 1111 l 485 972 l 201 972 l 184 673 q 335 745 254 745 z "},"6":{"ha":564,"x_min":35,"x_max":529,"o":"m 332 745 q 529 367 529 745 q 470 84 529 181 q 282 -14 412 -14 q 167 14 215 -14 q 90 94 119 41 q 48 217 62 147 q 35 379 35 287 l 35 745 q 91 1036 36 946 q 277 1125 146 1125 q 384 1102 338 1125 q 453 1037 429 1079 q 490 944 478 996 q 501 829 501 893 l 363 829 q 344 948 363 909 q 277 986 325 986 q 199 944 224 986 q 174 794 174 902 l 174 650 q 332 745 236 745 m 223 146 q 234 136 223 146 q 282 125 245 125 q 341 145 319 125 q 377 219 364 165 q 390 367 390 273 q 378 514 390 460 q 345 586 366 567 q 289 606 324 606 q 202 551 231 606 q 174 379 174 496 q 187 225 174 282 q 223 146 200 168 z "},"7":{"ha":564,"x_min":35,"x_max":529,"o":"m 35 1111 l 529 1111 l 529 972 q 382 674 435 829 q 310 364 329 519 q 292 0 292 209 l 153 0 q 164 277 153 155 q 203 521 175 400 q 281 753 231 642 q 406 972 331 864 l 35 972 l 35 1111 z "},"8":{"ha":550,"x_min":35,"x_max":515,"o":"m 387 583 q 480 492 444 555 q 515 325 515 430 l 515 286 q 275 -14 515 -14 q 96 62 157 -14 q 35 286 35 137 l 35 325 q 70 492 35 430 q 163 583 106 555 q 49 822 49 647 l 49 850 q 108 1052 49 978 q 275 1125 167 1125 q 443 1052 384 1125 q 501 850 501 978 l 501 822 q 387 583 501 647 m 348 947 q 337 966 348 947 q 275 986 326 986 q 203 947 225 986 q 180 819 180 907 q 203 691 180 730 q 275 652 225 652 q 348 691 326 652 q 370 819 370 730 q 348 947 370 907 m 376 307 l 376 332 q 352 472 376 432 q 275 513 328 513 q 198 472 223 513 q 174 332 174 432 l 174 307 q 186 195 174 235 q 219 139 198 154 q 275 125 240 125 q 332 139 311 125 q 365 195 353 154 q 376 307 376 235 z "},"9":{"ha":564,"x_min":35,"x_max":529,"o":"m 282 1125 q 397 1098 349 1125 q 474 1017 446 1070 q 515 894 503 964 q 529 732 528 824 l 529 367 q 473 76 528 165 q 288 -14 418 -14 q 181 9 226 -14 q 111 74 136 33 q 74 167 85 116 q 62 282 62 218 l 201 282 q 220 163 201 202 q 288 125 239 125 q 365 167 340 125 q 390 317 390 209 l 390 461 q 232 367 328 367 q 35 745 35 367 q 94 1027 35 930 q 282 1125 153 1125 m 275 505 q 361 560 333 505 q 390 732 390 615 q 377 886 390 829 q 341 964 364 943 q 282 986 319 986 q 223 966 245 986 q 187 892 200 947 q 174 745 174 838 q 186 597 174 651 q 219 525 198 544 q 275 505 240 505 z "},"­":{"ha":764,"x_min":142,"x_max":627,"o":"m 627 1111 l 627 -416 l 142 -416 l 142 1111 l 627 1111 m 509 1008 l 257 1008 l 257 958 l 355 958 l 355 901 l 256 901 l 256 851 l 509 851 l 509 901 l 408 901 l 408 958 l 509 958 l 509 1008 m 408 811 l 256 811 l 256 653 l 509 653 l 509 704 l 408 704 l 408 811 m 355 760 l 355 704 l 306 704 l 306 760 l 355 760 m 509 611 l 256 611 l 256 561 l 355 561 l 355 504 l 256 504 l 256 454 l 408 454 l 408 561 l 509 561 l 509 611 m 509 519 l 458 519 l 458 419 l 256 419 l 256 367 l 509 367 l 509 519 m 509 334 l 355 334 l 355 249 l 408 249 l 408 283 l 458 283 l 458 211 l 306 211 l 306 334 l 256 334 l 256 161 l 509 161 l 509 334 m 509 69 l 256 69 l 256 -103 l 509 -103 l 509 69 m 458 20 l 458 -53 l 306 -53 l 306 20 l 458 20 m 509 -139 l 256 -139 l 256 -189 l 363 -189 l 256 -261 l 256 -311 l 509 -311 l 509 -261 l 353 -261 l 460 -189 l 509 -189 l 509 -139 z "},"²":{"ha":764,"x_min":142,"x_max":627,"o":"m 627 1111 l 627 -416 l 142 -416 l 142 1111 l 627 1111 m 509 1008 l 257 1008 l 257 958 l 355 958 l 355 901 l 256 901 l 256 851 l 509 851 l 509 901 l 408 901 l 408 958 l 509 958 l 509 1008 m 408 811 l 256 811 l 256 653 l 509 653 l 509 704 l 408 704 l 408 811 m 355 760 l 355 704 l 306 704 l 306 760 l 355 760 m 509 611 l 256 611 l 256 561 l 355 561 l 355 504 l 256 504 l 256 454 l 408 454 l 408 561 l 509 561 l 509 611 m 509 519 l 458 519 l 458 419 l 256 419 l 256 367 l 509 367 l 509 519 m 509 334 l 355 334 l 355 249 l 408 249 l 408 283 l 458 283 l 458 211 l 306 211 l 306 334 l 256 334 l 256 161 l 509 161 l 509 334 m 509 69 l 256 69 l 256 -103 l 509 -103 l 509 69 m 458 20 l 458 -53 l 306 -53 l 306 20 l 458 20 m 509 -139 l 256 -139 l 256 -189 l 363 -189 l 256 -261 l 256 -311 l 509 -311 l 509 -261 l 353 -261 l 460 -189 l 509 -189 l 509 -139 z "},"³":{"ha":764,"x_min":142,"x_max":627,"o":"m 627 1111 l 627 -416 l 142 -416 l 142 1111 l 627 1111 m 509 1008 l 257 1008 l 257 958 l 355 958 l 355 901 l 256 901 l 256 851 l 509 851 l 509 901 l 408 901 l 408 958 l 509 958 l 509 1008 m 408 811 l 256 811 l 256 653 l 509 653 l 509 704 l 408 704 l 408 811 m 355 760 l 355 704 l 306 704 l 306 760 l 355 760 m 509 611 l 256 611 l 256 561 l 355 561 l 355 504 l 256 504 l 256 454 l 408 454 l 408 561 l 509 561 l 509 611 m 509 519 l 458 519 l 458 419 l 256 419 l 256 367 l 509 367 l 509 519 m 509 334 l 355 334 l 355 249 l 408 249 l 408 283 l 458 283 l 458 211 l 306 211 l 306 334 l 256 334 l 256 161 l 509 161 l 509 334 m 509 69 l 256 69 l 256 -103 l 509 -103 l 509 69 m 458 20 l 458 -53 l 306 -53 l 306 20 l 458 20 m 509 -139 l 256 -139 l 256 -189 l 363 -189 l 256 -261 l 256 -311 l 509 -311 l 509 -261 l 353 -261 l 460 -189 l 509 -189 l 509 -139 z "},"µ":{"ha":764,"x_min":142,"x_max":627,"o":"m 627 1111 l 627 -416 l 142 -416 l 142 1111 l 627 1111 m 509 1008 l 257 1008 l 257 958 l 355 958 l 355 901 l 256 901 l 256 851 l 509 851 l 509 901 l 408 901 l 408 958 l 509 958 l 509 1008 m 408 811 l 256 811 l 256 653 l 509 653 l 509 704 l 408 704 l 408 811 m 355 760 l 355 704 l 306 704 l 306 760 l 355 760 m 509 611 l 256 611 l 256 561 l 355 561 l 355 504 l 256 504 l 256 454 l 408 454 l 408 561 l 509 561 l 509 611 m 509 519 l 458 519 l 458 419 l 256 419 l 256 367 l 509 367 l 509 519 m 509 334 l 355 334 l 355 249 l 408 249 l 408 283 l 458 283 l 458 211 l 306 211 l 306 334 l 256 334 l 256 161 l 509 161 l 509 334 m 509 69 l 256 69 l 256 -103 l 509 -103 l 509 69 m 458 20 l 458 -53 l 306 -53 l 306 20 l 458 20 m 509 -139 l 256 -139 l 256 -189 l 363 -189 l 256 -261 l 256 -311 l 509 -311 l 509 -261 l 353 -261 l 460 -189 l 509 -189 l 509 -139 z "},"¹":{"ha":764,"x_min":142,"x_max":627,"o":"m 627 1111 l 627 -416 l 142 -416 l 142 1111 l 627 1111 m 509 1008 l 257 1008 l 257 958 l 355 958 l 355 901 l 256 901 l 256 851 l 509 851 l 509 901 l 408 901 l 408 958 l 509 958 l 509 1008 m 408 811 l 256 811 l 256 653 l 509 653 l 509 704 l 408 704 l 408 811 m 355 760 l 355 704 l 306 704 l 306 760 l 355 760 m 509 611 l 256 611 l 256 561 l 355 561 l 355 504 l 256 504 l 256 454 l 408 454 l 408 561 l 509 561 l 509 611 m 509 519 l 458 519 l 458 419 l 256 419 l 256 367 l 509 367 l 509 519 m 509 334 l 355 334 l 355 249 l 408 249 l 408 283 l 458 283 l 458 211 l 306 211 l 306 334 l 256 334 l 256 161 l 509 161 l 509 334 m 509 69 l 256 69 l 256 -103 l 509 -103 l 509 69 m 458 20 l 458 -53 l 306 -53 l 306 20 l 458 20 m 509 -139 l 256 -139 l 256 -189 l 363 -189 l 256 -261 l 256 -311 l 509 -311 l 509 -261 l 353 -261 l 460 -189 l 509 -189 l 509 -139 z "},"º":{"ha":764,"x_min":142,"x_max":627,"o":"m 627 1111 l 627 -416 l 142 -416 l 142 1111 l 627 1111 m 509 1008 l 257 1008 l 257 958 l 355 958 l 355 901 l 256 901 l 256 851 l 509 851 l 509 901 l 408 901 l 408 958 l 509 958 l 509 1008 m 408 811 l 256 811 l 256 653 l 509 653 l 509 704 l 408 704 l 408 811 m 355 760 l 355 704 l 306 704 l 306 760 l 355 760 m 509 611 l 256 611 l 256 561 l 355 561 l 355 504 l 256 504 l 256 454 l 408 454 l 408 561 l 509 561 l 509 611 m 509 519 l 458 519 l 458 419 l 256 419 l 256 367 l 509 367 l 509 519 m 509 334 l 355 334 l 355 249 l 408 249 l 408 283 l 458 283 l 458 211 l 306 211 l 306 334 l 256 334 l 256 161 l 509 161 l 509 334 m 509 69 l 256 69 l 256 -103 l 509 -103 l 509 69 m 458 20 l 458 -53 l 306 -53 l 306 20 l 458 20 m 509 -139 l 256 -139 l 256 -189 l 363 -189 l 256 -261 l 256 -311 l 509 -311 l 509 -261 l 353 -261 l 460 -189 l 509 -189 l 509 -139 z "},"Ĩ":{"ha":764,"x_min":142,"x_max":627,"o":"m 627 1111 l 627 -416 l 142 -416 l 142 1111 l 627 1111 m 509 1008 l 257 1008 l 257 958 l 355 958 l 355 901 l 256 901 l 256 851 l 509 851 l 509 901 l 408 901 l 408 958 l 509 958 l 509 1008 m 408 811 l 256 811 l 256 653 l 509 653 l 509 704 l 408 704 l 408 811 m 355 760 l 355 704 l 306 704 l 306 760 l 355 760 m 509 611 l 256 611 l 256 561 l 355 561 l 355 504 l 256 504 l 256 454 l 408 454 l 408 561 l 509 561 l 509 611 m 509 519 l 458 519 l 458 419 l 256 419 l 256 367 l 509 367 l 509 519 m 509 334 l 355 334 l 355 249 l 408 249 l 408 283 l 458 283 l 458 211 l 306 211 l 306 334 l 256 334 l 256 161 l 509 161 l 509 334 m 509 69 l 256 69 l 256 -103 l 509 -103 l 509 69 m 458 20 l 458 -53 l 306 -53 l 306 20 l 458 20 m 509 -139 l 256 -139 l 256 -189 l 363 -189 l 256 -261 l 256 -311 l 509 -311 l 509 -261 l 353 -261 l 460 -189 l 509 -189 l 509 -139 z "},"ĩ":{"ha":764,"x_min":142,"x_max":627,"o":"m 627 1111 l 627 -416 l 142 -416 l 142 1111 l 627 1111 m 509 1008 l 257 1008 l 257 958 l 355 958 l 355 901 l 256 901 l 256 851 l 509 851 l 509 901 l 408 901 l 408 958 l 509 958 l 509 1008 m 408 811 l 256 811 l 256 653 l 509 653 l 509 704 l 408 704 l 408 811 m 355 760 l 355 704 l 306 704 l 306 760 l 355 760 m 509 611 l 256 611 l 256 561 l 355 561 l 355 504 l 256 504 l 256 454 l 408 454 l 408 561 l 509 561 l 509 611 m 509 519 l 458 519 l 458 419 l 256 419 l 256 367 l 509 367 l 509 519 m 509 334 l 355 334 l 355 249 l 408 249 l 408 283 l 458 283 l 458 211 l 306 211 l 306 334 l 256 334 l 256 161 l 509 161 l 509 334 m 509 69 l 256 69 l 256 -103 l 509 -103 l 509 69 m 458 20 l 458 -53 l 306 -53 l 306 20 l 458 20 m 509 -139 l 256 -139 l 256 -189 l 363 -189 l 256 -261 l 256 -311 l 509 -311 l 509 -261 l 353 -261 l 460 -189 l 509 -189 l 509 -139 z "},"Ĭ":{"ha":764,"x_min":142,"x_max":627,"o":"m 627 1111 l 627 -416 l 142 -416 l 142 1111 l 627 1111 m 509 1008 l 257 1008 l 257 958 l 355 958 l 355 901 l 256 901 l 256 851 l 509 851 l 509 901 l 408 901 l 408 958 l 509 958 l 509 1008 m 408 811 l 256 811 l 256 653 l 509 653 l 509 704 l 408 704 l 408 811 m 355 760 l 355 704 l 306 704 l 306 760 l 355 760 m 509 611 l 256 611 l 256 561 l 355 561 l 355 504 l 256 504 l 256 454 l 408 454 l 408 561 l 509 561 l 509 611 m 509 519 l 458 519 l 458 419 l 256 419 l 256 367 l 509 367 l 509 519 m 509 334 l 355 334 l 355 249 l 408 249 l 408 283 l 458 283 l 458 211 l 306 211 l 306 334 l 256 334 l 256 161 l 509 161 l 509 334 m 509 69 l 256 69 l 256 -103 l 509 -103 l 509 69 m 458 20 l 458 -53 l 306 -53 l 306 20 l 458 20 m 509 -139 l 256 -139 l 256 -189 l 363 -189 l 256 -261 l 256 -311 l 509 -311 l 509 -261 l 353 -261 l 460 -189 l 509 -189 l 509 -139 z "},"ĭ":{"ha":764,"x_min":142,"x_max":627,"o":"m 627 1111 l 627 -416 l 142 -416 l 142 1111 l 627 1111 m 509 1008 l 257 1008 l 257 958 l 355 958 l 355 901 l 256 901 l 256 851 l 509 851 l 509 901 l 408 901 l 408 958 l 509 958 l 509 1008 m 408 811 l 256 811 l 256 653 l 509 653 l 509 704 l 408 704 l 408 811 m 355 760 l 355 704 l 306 704 l 306 760 l 355 760 m 509 611 l 256 611 l 256 561 l 355 561 l 355 504 l 256 504 l 256 454 l 408 454 l 408 561 l 509 561 l 509 611 m 509 519 l 458 519 l 458 419 l 256 419 l 256 367 l 509 367 l 509 519 m 509 334 l 355 334 l 355 249 l 408 249 l 408 283 l 458 283 l 458 211 l 306 211 l 306 334 l 256 334 l 256 161 l 509 161 l 509 334 m 509 69 l 256 69 l 256 -103 l 509 -103 l 509 69 m 458 20 l 458 -53 l 306 -53 l 306 20 l 458 20 m 509 -139 l 256 -139 l 256 -189 l 363 -189 l 256 -261 l 256 -311 l 509 -311 l 509 -261 l 353 -261 l 460 -189 l 509 -189 l 509 -139 z "},"̉":{"ha":764,"x_min":142,"x_max":627,"o":"m 627 1111 l 627 -416 l 142 -416 l 142 1111 l 627 1111 m 509 1008 l 257 1008 l 257 958 l 355 958 l 355 901 l 256 901 l 256 851 l 509 851 l 509 901 l 408 901 l 408 958 l 509 958 l 509 1008 m 408 811 l 256 811 l 256 653 l 509 653 l 509 704 l 408 704 l 408 811 m 355 760 l 355 704 l 306 704 l 306 760 l 355 760 m 509 611 l 256 611 l 256 561 l 355 561 l 355 504 l 256 504 l 256 454 l 408 454 l 408 561 l 509 561 l 509 611 m 509 519 l 458 519 l 458 419 l 256 419 l 256 367 l 509 367 l 509 519 m 509 334 l 355 334 l 355 249 l 408 249 l 408 283 l 458 283 l 458 211 l 306 211 l 306 334 l 256 334 l 256 161 l 509 161 l 509 334 m 509 69 l 256 69 l 256 -103 l 509 -103 l 509 69 m 458 20 l 458 -53 l 306 -53 l 306 20 l 458 20 m 509 -139 l 256 -139 l 256 -189 l 363 -189 l 256 -261 l 256 -311 l 509 -311 l 509 -261 l 353 -261 l 460 -189 l 509 -189 l 509 -139 z "},"―":{"ha":764,"x_min":142,"x_max":627,"o":"m 627 1111 l 627 -416 l 142 -416 l 142 1111 l 627 1111 m 509 1008 l 257 1008 l 257 958 l 355 958 l 355 901 l 256 901 l 256 851 l 509 851 l 509 901 l 408 901 l 408 958 l 509 958 l 509 1008 m 408 811 l 256 811 l 256 653 l 509 653 l 509 704 l 408 704 l 408 811 m 355 760 l 355 704 l 306 704 l 306 760 l 355 760 m 509 611 l 256 611 l 256 561 l 355 561 l 355 504 l 256 504 l 256 454 l 408 454 l 408 561 l 509 561 l 509 611 m 509 519 l 458 519 l 458 419 l 256 419 l 256 367 l 509 367 l 509 519 m 509 334 l 355 334 l 355 249 l 408 249 l 408 283 l 458 283 l 458 211 l 306 211 l 306 334 l 256 334 l 256 161 l 509 161 l 509 334 m 509 69 l 256 69 l 256 -103 l 509 -103 l 509 69 m 458 20 l 458 -53 l 306 -53 l 306 20 l 458 20 m 509 -139 l 256 -139 l 256 -189 l 363 -189 l 256 -261 l 256 -311 l 509 -311 l 509 -261 l 353 -261 l 460 -189 l 509 -189 l 509 -139 z "},"‖":{"ha":764,"x_min":142,"x_max":627,"o":"m 627 1111 l 627 -416 l 142 -416 l 142 1111 l 627 1111 m 509 1008 l 257 1008 l 257 958 l 355 958 l 355 901 l 256 901 l 256 851 l 509 851 l 509 901 l 408 901 l 408 958 l 509 958 l 509 1008 m 408 811 l 256 811 l 256 653 l 509 653 l 509 704 l 408 704 l 408 811 m 355 760 l 355 704 l 306 704 l 306 760 l 355 760 m 509 611 l 256 611 l 256 561 l 355 561 l 355 504 l 256 504 l 256 454 l 408 454 l 408 561 l 509 561 l 509 611 m 509 519 l 458 519 l 458 419 l 256 419 l 256 367 l 509 367 l 509 519 m 509 334 l 355 334 l 355 249 l 408 249 l 408 283 l 458 283 l 458 211 l 306 211 l 306 334 l 256 334 l 256 161 l 509 161 l 509 334 m 509 69 l 256 69 l 256 -103 l 509 -103 l 509 69 m 458 20 l 458 -53 l 306 -53 l 306 20 l 458 20 m 509 -139 l 256 -139 l 256 -189 l 363 -189 l 256 -261 l 256 -311 l 509 -311 l 509 -261 l 353 -261 l 460 -189 l 509 -189 l 509 -139 z "},"‗":{"ha":764,"x_min":142,"x_max":627,"o":"m 627 1111 l 627 -416 l 142 -416 l 142 1111 l 627 1111 m 509 1008 l 257 1008 l 257 958 l 355 958 l 355 901 l 256 901 l 256 851 l 509 851 l 509 901 l 408 901 l 408 958 l 509 958 l 509 1008 m 408 811 l 256 811 l 256 653 l 509 653 l 509 704 l 408 704 l 408 811 m 355 760 l 355 704 l 306 704 l 306 760 l 355 760 m 509 611 l 256 611 l 256 561 l 355 561 l 355 504 l 256 504 l 256 454 l 408 454 l 408 561 l 509 561 l 509 611 m 509 519 l 458 519 l 458 419 l 256 419 l 256 367 l 509 367 l 509 519 m 509 334 l 355 334 l 355 249 l 408 249 l 408 283 l 458 283 l 458 211 l 306 211 l 306 334 l 256 334 l 256 161 l 509 161 l 509 334 m 509 69 l 256 69 l 256 -103 l 509 -103 l 509 69 m 458 20 l 458 -53 l 306 -53 l 306 20 l 458 20 m 509 -139 l 256 -139 l 256 -189 l 363 -189 l 256 -261 l 256 -311 l 509 -311 l 509 -261 l 353 -261 l 460 -189 l 509 -189 l 509 -139 z "},"‛":{"ha":764,"x_min":142,"x_max":627,"o":"m 627 1111 l 627 -416 l 142 -416 l 142 1111 l 627 1111 m 509 1008 l 257 1008 l 257 958 l 355 958 l 355 901 l 256 901 l 256 851 l 509 851 l 509 901 l 408 901 l 408 958 l 509 958 l 509 1008 m 408 811 l 256 811 l 256 653 l 509 653 l 509 704 l 408 704 l 408 811 m 355 760 l 355 704 l 306 704 l 306 760 l 355 760 m 509 611 l 256 611 l 256 561 l 355 561 l 355 504 l 256 504 l 256 454 l 408 454 l 408 561 l 509 561 l 509 611 m 509 519 l 458 519 l 458 419 l 256 419 l 256 367 l 509 367 l 509 519 m 509 334 l 355 334 l 355 249 l 408 249 l 408 283 l 458 283 l 458 211 l 306 211 l 306 334 l 256 334 l 256 161 l 509 161 l 509 334 m 509 69 l 256 69 l 256 -103 l 509 -103 l 509 69 m 458 20 l 458 -53 l 306 -53 l 306 20 l 458 20 m 509 -139 l 256 -139 l 256 -189 l 363 -189 l 256 -261 l 256 -311 l 509 -311 l 509 -261 l 353 -261 l 460 -189 l 509 -189 l 509 -139 z "},"‟":{"ha":764,"x_min":142,"x_max":627,"o":"m 627 1111 l 627 -416 l 142 -416 l 142 1111 l 627 1111 m 509 1008 l 257 1008 l 257 958 l 355 958 l 355 901 l 256 901 l 256 851 l 509 851 l 509 901 l 408 901 l 408 958 l 509 958 l 509 1008 m 408 811 l 256 811 l 256 653 l 509 653 l 509 704 l 408 704 l 408 811 m 355 760 l 355 704 l 306 704 l 306 760 l 355 760 m 509 611 l 256 611 l 256 561 l 355 561 l 355 504 l 256 504 l 256 454 l 408 454 l 408 561 l 509 561 l 509 611 m 509 519 l 458 519 l 458 419 l 256 419 l 256 367 l 509 367 l 509 519 m 509 334 l 355 334 l 355 249 l 408 249 l 408 283 l 458 283 l 458 211 l 306 211 l 306 334 l 256 334 l 256 161 l 509 161 l 509 334 m 509 69 l 256 69 l 256 -103 l 509 -103 l 509 69 m 458 20 l 458 -53 l 306 -53 l 306 20 l 458 20 m 509 -139 l 256 -139 l 256 -189 l 363 -189 l 256 -261 l 256 -311 l 509 -311 l 509 -261 l 353 -261 l 460 -189 l 509 -189 l 509 -139 z "},"‣":{"ha":764,"x_min":142,"x_max":627,"o":"m 627 1111 l 627 -416 l 142 -416 l 142 1111 l 627 1111 m 509 1008 l 257 1008 l 257 958 l 355 958 l 355 901 l 256 901 l 256 851 l 509 851 l 509 901 l 408 901 l 408 958 l 509 958 l 509 1008 m 408 811 l 256 811 l 256 653 l 509 653 l 509 704 l 408 704 l 408 811 m 355 760 l 355 704 l 306 704 l 306 760 l 355 760 m 509 611 l 256 611 l 256 561 l 355 561 l 355 504 l 256 504 l 256 454 l 408 454 l 408 561 l 509 561 l 509 611 m 509 519 l 458 519 l 458 419 l 256 419 l 256 367 l 509 367 l 509 519 m 509 334 l 355 334 l 355 249 l 408 249 l 408 283 l 458 283 l 458 211 l 306 211 l 306 334 l 256 334 l 256 161 l 509 161 l 509 334 m 509 69 l 256 69 l 256 -103 l 509 -103 l 509 69 m 458 20 l 458 -53 l 306 -53 l 306 20 l 458 20 m 509 -139 l 256 -139 l 256 -189 l 363 -189 l 256 -261 l 256 -311 l 509 -311 l 509 -261 l 353 -261 l 460 -189 l 509 -189 l 509 -139 z "},"․":{"ha":764,"x_min":142,"x_max":627,"o":"m 627 1111 l 627 -416 l 142 -416 l 142 1111 l 627 1111 m 509 1008 l 257 1008 l 257 958 l 355 958 l 355 901 l 256 901 l 256 851 l 509 851 l 509 901 l 408 901 l 408 958 l 509 958 l 509 1008 m 408 811 l 256 811 l 256 653 l 509 653 l 509 704 l 408 704 l 408 811 m 355 760 l 355 704 l 306 704 l 306 760 l 355 760 m 509 611 l 256 611 l 256 561 l 355 561 l 355 504 l 256 504 l 256 454 l 408 454 l 408 561 l 509 561 l 509 611 m 509 519 l 458 519 l 458 419 l 256 419 l 256 367 l 509 367 l 509 519 m 509 334 l 355 334 l 355 249 l 408 249 l 408 283 l 458 283 l 458 211 l 306 211 l 306 334 l 256 334 l 256 161 l 509 161 l 509 334 m 509 69 l 256 69 l 256 -103 l 509 -103 l 509 69 m 458 20 l 458 -53 l 306 -53 l 306 20 l 458 20 m 509 -139 l 256 -139 l 256 -189 l 363 -189 l 256 -261 l 256 -311 l 509 -311 l 509 -261 l 353 -261 l 460 -189 l 509 -189 l 509 -139 z "},"‥":{"ha":764,"x_min":142,"x_max":627,"o":"m 627 1111 l 627 -416 l 142 -416 l 142 1111 l 627 1111 m 509 1008 l 257 1008 l 257 958 l 355 958 l 355 901 l 256 901 l 256 851 l 509 851 l 509 901 l 408 901 l 408 958 l 509 958 l 509 1008 m 408 811 l 256 811 l 256 653 l 509 653 l 509 704 l 408 704 l 408 811 m 355 760 l 355 704 l 306 704 l 306 760 l 355 760 m 509 611 l 256 611 l 256 561 l 355 561 l 355 504 l 256 504 l 256 454 l 408 454 l 408 561 l 509 561 l 509 611 m 509 519 l 458 519 l 458 419 l 256 419 l 256 367 l 509 367 l 509 519 m 509 334 l 355 334 l 355 249 l 408 249 l 408 283 l 458 283 l 458 211 l 306 211 l 306 334 l 256 334 l 256 161 l 509 161 l 509 334 m 509 69 l 256 69 l 256 -103 l 509 -103 l 509 69 m 458 20 l 458 -53 l 306 -53 l 306 20 l 458 20 m 509 -139 l 256 -139 l 256 -189 l 363 -189 l 256 -261 l 256 -311 l 509 -311 l 509 -261 l 353 -261 l 460 -189 l 509 -189 l 509 -139 z "},"∃":{"ha":764,"x_min":142,"x_max":627,"o":"m 627 1111 l 627 -416 l 142 -416 l 142 1111 l 627 1111 m 509 1008 l 257 1008 l 257 958 l 355 958 l 355 901 l 256 901 l 256 851 l 509 851 l 509 901 l 408 901 l 408 958 l 509 958 l 509 1008 m 408 811 l 256 811 l 256 653 l 509 653 l 509 704 l 408 704 l 408 811 m 355 760 l 355 704 l 306 704 l 306 760 l 355 760 m 509 611 l 256 611 l 256 561 l 355 561 l 355 504 l 256 504 l 256 454 l 408 454 l 408 561 l 509 561 l 509 611 m 509 519 l 458 519 l 458 419 l 256 419 l 256 367 l 509 367 l 509 519 m 509 334 l 355 334 l 355 249 l 408 249 l 408 283 l 458 283 l 458 211 l 306 211 l 306 334 l 256 334 l 256 161 l 509 161 l 509 334 m 509 69 l 256 69 l 256 -103 l 509 -103 l 509 69 m 458 20 l 458 -53 l 306 -53 l 306 20 l 458 20 m 509 -139 l 256 -139 l 256 -189 l 363 -189 l 256 -261 l 256 -311 l 509 -311 l 509 -261 l 353 -261 l 460 -189 l 509 -189 l 509 -139 z "},"∄":{"ha":764,"x_min":142,"x_max":627,"o":"m 627 1111 l 627 -416 l 142 -416 l 142 1111 l 627 1111 m 509 1008 l 257 1008 l 257 958 l 355 958 l 355 901 l 256 901 l 256 851 l 509 851 l 509 901 l 408 901 l 408 958 l 509 958 l 509 1008 m 408 811 l 256 811 l 256 653 l 509 653 l 509 704 l 408 704 l 408 811 m 355 760 l 355 704 l 306 704 l 306 760 l 355 760 m 509 611 l 256 611 l 256 561 l 355 561 l 355 504 l 256 504 l 256 454 l 408 454 l 408 561 l 509 561 l 509 611 m 509 519 l 458 519 l 458 419 l 256 419 l 256 367 l 509 367 l 509 519 m 509 334 l 355 334 l 355 249 l 408 249 l 408 283 l 458 283 l 458 211 l 306 211 l 306 334 l 256 334 l 256 161 l 509 161 l 509 334 m 509 69 l 256 69 l 256 -103 l 509 -103 l 509 69 m 458 20 l 458 -53 l 306 -53 l 306 20 l 458 20 m 509 -139 l 256 -139 l 256 -189 l 363 -189 l 256 -261 l 256 -311 l 509 -311 l 509 -261 l 353 -261 l 460 -189 l 509 -189 l 509 -139 z "},"∐":{"ha":764,"x_min":142,"x_max":627,"o":"m 627 1111 l 627 -416 l 142 -416 l 142 1111 l 627 1111 m 509 1008 l 257 1008 l 257 958 l 355 958 l 355 901 l 256 901 l 256 851 l 509 851 l 509 901 l 408 901 l 408 958 l 509 958 l 509 1008 m 408 811 l 256 811 l 256 653 l 509 653 l 509 704 l 408 704 l 408 811 m 355 760 l 355 704 l 306 704 l 306 760 l 355 760 m 509 611 l 256 611 l 256 561 l 355 561 l 355 504 l 256 504 l 256 454 l 408 454 l 408 561 l 509 561 l 509 611 m 509 519 l 458 519 l 458 419 l 256 419 l 256 367 l 509 367 l 509 519 m 509 334 l 355 334 l 355 249 l 408 249 l 408 283 l 458 283 l 458 211 l 306 211 l 306 334 l 256 334 l 256 161 l 509 161 l 509 334 m 509 69 l 256 69 l 256 -103 l 509 -103 l 509 69 m 458 20 l 458 -53 l 306 -53 l 306 20 l 458 20 m 509 -139 l 256 -139 l 256 -189 l 363 -189 l 256 -261 l 256 -311 l 509 -311 l 509 -261 l 353 -261 l 460 -189 l 509 -189 l 509 -139 z "},"∛":{"ha":764,"x_min":142,"x_max":627,"o":"m 627 1111 l 627 -416 l 142 -416 l 142 1111 l 627 1111 m 509 1008 l 257 1008 l 257 958 l 355 958 l 355 901 l 256 901 l 256 851 l 509 851 l 509 901 l 408 901 l 408 958 l 509 958 l 509 1008 m 408 811 l 256 811 l 256 653 l 509 653 l 509 704 l 408 704 l 408 811 m 355 760 l 355 704 l 306 704 l 306 760 l 355 760 m 509 611 l 256 611 l 256 561 l 355 561 l 355 504 l 256 504 l 256 454 l 408 454 l 408 561 l 509 561 l 509 611 m 509 519 l 458 519 l 458 419 l 256 419 l 256 367 l 509 367 l 509 519 m 509 334 l 355 334 l 355 249 l 408 249 l 408 283 l 458 283 l 458 211 l 306 211 l 306 334 l 256 334 l 256 161 l 509 161 l 509 334 m 509 69 l 256 69 l 256 -103 l 509 -103 l 509 69 m 458 20 l 458 -53 l 306 -53 l 306 20 l 458 20 m 509 -139 l 256 -139 l 256 -189 l 363 -189 l 256 -261 l 256 -311 l 509 -311 l 509 -261 l 353 -261 l 460 -189 l 509 -189 l 509 -139 z "},"∜":{"ha":764,"x_min":142,"x_max":627,"o":"m 627 1111 l 627 -416 l 142 -416 l 142 1111 l 627 1111 m 509 1008 l 257 1008 l 257 958 l 355 958 l 355 901 l 256 901 l 256 851 l 509 851 l 509 901 l 408 901 l 408 958 l 509 958 l 509 1008 m 408 811 l 256 811 l 256 653 l 509 653 l 509 704 l 408 704 l 408 811 m 355 760 l 355 704 l 306 704 l 306 760 l 355 760 m 509 611 l 256 611 l 256 561 l 355 561 l 355 504 l 256 504 l 256 454 l 408 454 l 408 561 l 509 561 l 509 611 m 509 519 l 458 519 l 458 419 l 256 419 l 256 367 l 509 367 l 509 519 m 509 334 l 355 334 l 355 249 l 408 249 l 408 283 l 458 283 l 458 211 l 306 211 l 306 334 l 256 334 l 256 161 l 509 161 l 509 334 m 509 69 l 256 69 l 256 -103 l 509 -103 l 509 69 m 458 20 l 458 -53 l 306 -53 l 306 20 l 458 20 m 509 -139 l 256 -139 l 256 -189 l 363 -189 l 256 -261 l 256 -311 l 509 -311 l 509 -261 l 353 -261 l 460 -189 l 509 -189 l 509 -139 z "},"∝":{"ha":764,"x_min":142,"x_max":627,"o":"m 627 1111 l 627 -416 l 142 -416 l 142 1111 l 627 1111 m 509 1008 l 257 1008 l 257 958 l 355 958 l 355 901 l 256 901 l 256 851 l 509 851 l 509 901 l 408 901 l 408 958 l 509 958 l 509 1008 m 408 811 l 256 811 l 256 653 l 509 653 l 509 704 l 408 704 l 408 811 m 355 760 l 355 704 l 306 704 l 306 760 l 355 760 m 509 611 l 256 611 l 256 561 l 355 561 l 355 504 l 256 504 l 256 454 l 408 454 l 408 561 l 509 561 l 509 611 m 509 519 l 458 519 l 458 419 l 256 419 l 256 367 l 509 367 l 509 519 m 509 334 l 355 334 l 355 249 l 408 249 l 408 283 l 458 283 l 458 211 l 306 211 l 306 334 l 256 334 l 256 161 l 509 161 l 509 334 m 509 69 l 256 69 l 256 -103 l 509 -103 l 509 69 m 458 20 l 458 -53 l 306 -53 l 306 20 l 458 20 m 509 -139 l 256 -139 l 256 -189 l 363 -189 l 256 -261 l 256 -311 l 509 -311 l 509 -261 l 353 -261 l 460 -189 l 509 -189 l 509 -139 z "},"≡":{"ha":764,"x_min":142,"x_max":627,"o":"m 627 1111 l 627 -416 l 142 -416 l 142 1111 l 627 1111 m 509 1008 l 257 1008 l 257 958 l 355 958 l 355 901 l 256 901 l 256 851 l 509 851 l 509 901 l 408 901 l 408 958 l 509 958 l 509 1008 m 408 811 l 256 811 l 256 653 l 509 653 l 509 704 l 408 704 l 408 811 m 355 760 l 355 704 l 306 704 l 306 760 l 355 760 m 509 611 l 256 611 l 256 561 l 355 561 l 355 504 l 256 504 l 256 454 l 408 454 l 408 561 l 509 561 l 509 611 m 509 519 l 458 519 l 458 419 l 256 419 l 256 367 l 509 367 l 509 519 m 509 334 l 355 334 l 355 249 l 408 249 l 408 283 l 458 283 l 458 211 l 306 211 l 306 334 l 256 334 l 256 161 l 509 161 l 509 334 m 509 69 l 256 69 l 256 -103 l 509 -103 l 509 69 m 458 20 l 458 -53 l 306 -53 l 306 20 l 458 20 m 509 -139 l 256 -139 l 256 -189 l 363 -189 l 256 -261 l 256 -311 l 509 -311 l 509 -261 l 353 -261 l 460 -189 l 509 -189 l 509 -139 z "},"≢":{"ha":764,"x_min":142,"x_max":627,"o":"m 627 1111 l 627 -416 l 142 -416 l 142 1111 l 627 1111 m 509 1008 l 257 1008 l 257 958 l 355 958 l 355 901 l 256 901 l 256 851 l 509 851 l 509 901 l 408 901 l 408 958 l 509 958 l 509 1008 m 408 811 l 256 811 l 256 653 l 509 653 l 509 704 l 408 704 l 408 811 m 355 760 l 355 704 l 306 704 l 306 760 l 355 760 m 509 611 l 256 611 l 256 561 l 355 561 l 355 504 l 256 504 l 256 454 l 408 454 l 408 561 l 509 561 l 509 611 m 509 519 l 458 519 l 458 419 l 256 419 l 256 367 l 509 367 l 509 519 m 509 334 l 355 334 l 355 249 l 408 249 l 408 283 l 458 283 l 458 211 l 306 211 l 306 334 l 256 334 l 256 161 l 509 161 l 509 334 m 509 69 l 256 69 l 256 -103 l 509 -103 l 509 69 m 458 20 l 458 -53 l 306 -53 l 306 20 l 458 20 m 509 -139 l 256 -139 l 256 -189 l 363 -189 l 256 -261 l 256 -311 l 509 -311 l 509 -261 l 353 -261 l 460 -189 l 509 -189 l 509 -139 z "},"≣":{"ha":764,"x_min":142,"x_max":627,"o":"m 627 1111 l 627 -416 l 142 -416 l 142 1111 l 627 1111 m 509 1008 l 257 1008 l 257 958 l 355 958 l 355 901 l 256 901 l 256 851 l 509 851 l 509 901 l 408 901 l 408 958 l 509 958 l 509 1008 m 408 811 l 256 811 l 256 653 l 509 653 l 509 704 l 408 704 l 408 811 m 355 760 l 355 704 l 306 704 l 306 760 l 355 760 m 509 611 l 256 611 l 256 561 l 355 561 l 355 504 l 256 504 l 256 454 l 408 454 l 408 561 l 509 561 l 509 611 m 509 519 l 458 519 l 458 419 l 256 419 l 256 367 l 509 367 l 509 519 m 509 334 l 355 334 l 355 249 l 408 249 l 408 283 l 458 283 l 458 211 l 306 211 l 306 334 l 256 334 l 256 161 l 509 161 l 509 334 m 509 69 l 256 69 l 256 -103 l 509 -103 l 509 69 m 458 20 l 458 -53 l 306 -53 l 306 20 l 458 20 m 509 -139 l 256 -139 l 256 -189 l 363 -189 l 256 -261 l 256 -311 l 509 -311 l 509 -261 l 353 -261 l 460 -189 l 509 -189 l 509 -139 z "}," ":{"ha":236,"x_min":0,"x_max":0,"o":""},"!":{"ha":229,"x_min":35,"x_max":195,"o":"m 46 1111 l 184 1111 l 176 347 l 52 347 l 46 1111 m 115 -14 q 58 8 81 -14 q 35 65 35 30 q 58 124 35 102 q 115 146 81 146 q 172 124 149 146 q 195 65 195 102 q 172 8 195 31 q 115 -14 149 -14 z "},"\"":{"ha":250,"x_min":35,"x_max":215,"o":"m 35 1125 l 104 1125 l 104 778 l 35 778 l 35 1125 m 146 1125 l 215 1125 l 215 778 l 146 778 l 146 1125 z "},"#":{"ha":1043,"x_min":35,"x_max":1008,"o":"m 1008 701 l 764 701 l 657 410 l 901 410 l 901 340 l 632 340 l 504 -14 l 431 -14 l 558 340 l 326 340 l 199 -14 l 125 -14 l 253 340 l 35 340 l 35 410 l 278 410 l 385 701 l 142 701 l 142 771 l 410 771 l 538 1125 l 611 1125 l 484 771 l 715 771 l 843 1125 l 917 1125 l 789 771 l 1008 771 l 1008 701 m 583 410 l 690 701 l 458 701 l 351 410 l 583 410 z "},"$":{"ha":577,"x_min":35,"x_max":543,"o":"m 543 323 q 489 162 543 220 q 323 97 435 103 l 323 -14 l 254 -14 l 254 100 q 91 189 146 112 q 35 421 35 266 l 104 421 q 140 239 104 297 q 254 170 176 182 l 254 543 q 102 638 155 580 q 49 794 49 696 q 101 945 49 886 q 254 1013 153 1004 l 254 1125 l 323 1125 l 323 1013 q 422 981 380 1006 q 486 918 463 956 q 519 835 509 879 q 529 739 529 791 l 460 739 q 323 942 460 920 l 323 589 q 372 567 352 576 q 416 544 391 558 q 458 516 441 530 q 492 482 475 502 q 520 439 510 462 q 537 388 530 417 q 543 323 543 358 m 118 794 q 155 686 118 726 q 254 616 191 645 l 254 943 q 118 794 118 930 m 323 167 q 440 211 407 172 q 473 323 473 251 q 461 394 473 363 q 427 448 450 426 q 380 485 404 471 q 323 514 356 500 l 323 167 z "},"%":{"ha":722,"x_min":35,"x_max":688,"o":"m 125 725 q 142 717 125 725 q 204 708 159 708 q 283 725 250 708 q 336 773 317 743 q 365 840 355 804 q 374 917 374 876 q 365 994 374 958 q 336 1060 355 1030 q 283 1108 317 1090 q 204 1125 250 1125 q 125 1108 159 1125 q 72 1060 91 1090 q 44 994 53 1030 q 35 917 35 958 q 44 840 35 876 q 72 773 53 804 q 125 725 91 743 m 604 1125 l 192 -14 l 118 -14 l 530 1125 l 604 1125 m 204 778 q 104 917 104 778 q 204 1055 104 1055 q 304 917 304 1055 q 204 778 304 778 m 439 4 q 456 -5 439 4 q 518 -14 473 -14 q 597 4 564 -14 q 650 51 631 21 q 679 117 669 81 q 688 195 688 153 q 679 272 688 236 q 650 338 669 308 q 597 386 631 368 q 518 403 564 403 q 439 386 473 403 q 386 338 405 368 q 358 272 367 308 q 349 195 349 236 q 358 117 349 153 q 386 51 367 81 q 439 4 405 21 m 518 56 q 418 195 418 56 q 518 334 418 334 q 618 195 618 334 q 518 56 618 56 z "},"&":{"ha":629,"x_min":35,"x_max":595,"o":"m 595 627 l 595 501 l 529 501 l 529 338 q 469 72 529 158 q 279 -14 410 -14 q 168 8 216 -14 q 91 70 119 31 q 48 159 62 109 q 35 268 35 208 q 164 564 35 492 q 35 843 35 630 q 43 931 35 890 q 71 1008 52 972 q 118 1070 90 1044 q 187 1111 146 1096 q 279 1125 229 1125 q 469 1041 409 1125 q 529 787 529 958 l 390 787 q 382 887 390 847 q 359 949 375 928 q 325 978 344 970 q 279 986 307 986 q 174 815 174 986 q 185 718 174 757 q 218 660 196 680 q 266 634 241 641 q 328 627 292 627 l 390 627 l 390 705 l 529 705 l 529 627 l 595 627 m 390 338 l 390 501 l 328 501 q 266 494 291 501 q 218 466 241 486 q 185 402 196 445 q 174 296 174 360 q 279 125 174 125 q 325 133 307 125 q 359 164 344 142 q 382 230 375 186 q 390 338 390 273 z "},"'":{"ha":138,"x_min":35,"x_max":104,"o":"m 35 1125 l 104 1125 l 104 778 l 35 778 l 35 1125 z "},"(":{"ha":250,"x_min":35,"x_max":215,"o":"m 146 1125 l 215 1125 q 131 847 157 983 q 104 555 104 710 q 131 264 104 401 q 215 -14 157 128 l 146 -14 q 61 265 87 129 q 35 555 35 401 q 61 846 35 709 q 146 1125 87 983 z "},")":{"ha":250,"x_min":35,"x_max":215,"o":"m 104 1125 q 189 847 163 983 q 215 555 215 710 q 189 264 215 401 q 104 -14 163 128 l 35 -14 q 119 265 93 129 q 146 555 146 401 q 119 846 146 709 q 35 1125 93 983 l 104 1125 z "},"*":{"ha":411,"x_min":35,"x_max":376,"o":"m 376 983 l 261 917 l 376 850 l 349 803 l 233 869 l 233 708 l 178 708 l 178 869 l 62 803 l 35 850 l 150 917 l 35 983 l 62 1031 l 178 964 l 178 1125 l 233 1125 l 233 964 l 349 1031 l 376 983 z "},"+":{"ha":639,"x_min":35,"x_max":604,"o":"m 604 472 l 604 403 l 354 403 l 354 153 l 285 153 l 285 403 l 35 403 l 35 472 l 285 472 l 285 722 l 354 722 l 354 472 l 604 472 z "},",":{"ha":229,"x_min":35,"x_max":195,"o":"m 35 66 q 57 125 35 104 q 115 146 80 146 q 172 120 150 146 q 195 41 195 94 q 190 -2 195 20 q 172 -51 185 -23 q 129 -104 159 -78 q 56 -147 99 -130 l 56 -92 q 105 -53 89 -75 q 125 0 121 -31 q 62 10 90 -10 q 35 66 35 30 z "},"-":{"ha":639,"x_min":35,"x_max":604,"o":"m 35 493 l 604 493 l 604 424 l 35 424 l 35 493 z "},".":{"ha":229,"x_min":35,"x_max":195,"o":"m 115 -14 q 58 8 81 -14 q 35 65 35 30 q 58 124 35 102 q 115 146 81 146 q 172 124 149 146 q 195 65 195 102 q 172 8 195 31 q 115 -14 149 -14 z "},"/":{"ha":555,"x_min":35,"x_max":521,"o":"m 521 1125 l 109 -14 l 35 -14 l 447 1125 l 521 1125 z "},":":{"ha":229,"x_min":35,"x_max":195,"o":"m 115 431 q 58 453 81 431 q 35 510 35 475 q 58 568 35 547 q 115 590 81 590 q 172 568 149 590 q 195 510 195 547 q 171 453 195 475 q 115 431 148 431 m 115 -14 q 58 8 81 -14 q 35 65 35 30 q 58 124 35 102 q 115 146 81 146 q 172 124 149 146 q 195 65 195 102 q 172 8 195 31 q 115 -14 149 -14 z "},";":{"ha":229,"x_min":35,"x_max":195,"o":"m 115 431 q 58 453 81 431 q 35 510 35 475 q 58 568 35 547 q 115 590 81 590 q 172 568 149 590 q 195 510 195 547 q 171 453 195 475 q 115 431 148 431 m 35 66 q 57 125 35 104 q 115 146 80 146 q 172 120 150 146 q 195 41 195 94 q 190 -2 195 20 q 172 -51 185 -23 q 129 -104 159 -78 q 56 -147 99 -130 l 56 -92 q 105 -53 89 -75 q 125 0 121 -31 q 62 10 90 -10 q 35 66 35 30 z "},"<":{"ha":639,"x_min":35,"x_max":604,"o":"m 604 707 l 604 637 l 132 458 l 604 279 l 604 210 l 35 431 l 35 486 l 604 707 z "},"=":{"ha":639,"x_min":35,"x_max":604,"o":"m 35 562 l 604 562 l 604 493 l 35 493 l 35 562 m 35 424 l 604 424 l 604 354 l 35 354 l 35 424 z "},">":{"ha":639,"x_min":35,"x_max":604,"o":"m 35 707 l 604 486 l 604 431 l 35 210 l 35 279 l 507 458 l 35 637 l 35 707 z "},"?":{"ha":550,"x_min":35,"x_max":515,"o":"m 286 986 q 239 977 259 986 q 204 946 220 968 q 181 884 189 924 q 174 787 174 845 l 35 787 q 96 1041 35 957 q 286 1125 157 1125 q 458 1058 401 1125 q 515 882 515 991 q 504 793 515 834 q 473 722 492 753 q 432 662 454 691 q 386 601 409 632 q 345 535 363 570 q 314 452 326 500 q 302 347 302 404 l 178 347 q 189 468 178 412 q 217 562 199 524 q 256 633 235 600 q 298 694 277 667 q 337 747 319 721 q 366 803 355 772 q 376 868 376 834 q 286 986 376 986 m 240 146 q 296 124 273 146 q 319 65 319 102 q 296 8 319 31 q 240 -14 273 -14 q 183 8 206 -14 q 160 65 160 30 q 183 124 160 102 q 240 146 205 146 z "},"@":{"ha":790,"x_min":35,"x_max":755,"o":"m 515 781 l 585 781 l 585 338 q 590 232 585 270 q 605 181 595 195 q 632 168 615 168 q 662 192 650 168 q 680 281 673 216 q 686 458 686 346 q 680 615 686 546 q 656 750 674 684 q 609 861 638 817 q 532 931 581 905 q 419 958 484 958 q 276 923 338 958 q 178 822 215 887 q 123 669 141 756 q 104 472 104 581 q 115 312 104 383 q 149 178 125 240 q 211 75 173 117 q 307 10 249 33 q 440 -14 365 -14 q 676 28 573 -14 l 676 -41 q 440 -83 572 -83 q 280 -57 350 -83 q 164 18 210 -30 q 89 136 119 65 q 47 288 60 206 q 35 472 35 370 q 57 697 35 597 q 125 872 79 798 q 245 988 170 947 q 419 1028 319 1028 q 538 1008 486 1028 q 628 949 591 988 q 689 861 664 911 q 729 745 715 811 q 749 609 743 678 q 755 458 755 541 q 752 337 755 389 q 742 238 749 285 q 720 162 734 191 q 685 115 707 132 q 632 98 663 98 q 550 137 576 98 q 518 258 524 175 q 379 155 469 155 q 246 238 291 155 q 201 475 201 320 q 246 712 201 629 q 379 794 291 794 q 515 696 467 794 l 515 781 m 400 225 q 488 283 461 225 q 515 475 515 342 q 488 666 515 607 q 400 725 460 725 q 271 475 271 725 q 400 225 271 225 z "},"A":{"ha":585,"x_min":35,"x_max":550,"o":"m 411 0 l 383 224 l 201 224 l 174 0 l 35 0 l 196 1111 l 390 1111 l 550 0 l 411 0 m 218 363 l 367 363 l 293 970 l 218 363 z "},"B":{"ha":553,"x_min":35,"x_max":518,"o":"m 378 595 q 518 343 518 535 l 518 286 q 490 118 518 178 q 397 29 462 57 q 215 0 332 1 l 35 0 l 35 1111 l 215 1111 q 437 1052 376 1111 q 497 836 497 992 l 497 806 q 378 595 497 646 m 215 972 l 174 972 l 174 656 l 215 656 q 278 661 254 656 q 321 679 302 665 q 350 721 341 693 q 358 791 358 748 l 358 836 q 356 888 358 867 q 348 924 354 908 q 333 949 342 941 q 306 963 323 958 q 268 971 289 969 q 215 972 248 972 m 215 139 q 298 145 268 139 q 348 169 329 151 q 373 215 367 187 q 379 293 379 243 l 379 357 q 342 481 379 445 q 215 517 306 517 l 174 517 l 174 139 l 215 139 z "},"C":{"ha":550,"x_min":35,"x_max":515,"o":"m 376 660 l 376 815 q 356 950 376 913 q 275 986 335 986 q 195 950 216 986 q 174 815 174 913 l 174 296 q 195 161 174 197 q 275 125 216 125 q 356 161 335 125 q 376 296 376 197 l 376 452 l 515 452 l 515 296 q 457 59 515 131 q 275 -14 399 -14 q 93 59 152 -14 q 35 296 35 131 l 35 815 q 93 1053 35 980 q 275 1125 152 1125 q 457 1053 399 1125 q 515 815 515 980 l 515 660 l 376 660 z "},"D":{"ha":553,"x_min":35,"x_max":518,"o":"m 201 1111 q 303 1106 260 1111 q 383 1088 346 1101 q 444 1054 420 1076 q 485 1000 468 1033 q 510 921 503 966 q 518 815 518 876 l 518 296 q 506 173 518 224 q 471 88 494 122 q 409 35 448 54 q 321 8 370 16 q 201 0 272 0 l 35 0 l 35 1111 l 201 1111 m 201 139 q 287 144 256 139 q 341 166 318 149 q 371 214 363 183 q 379 296 379 244 l 379 815 q 376 874 379 850 q 363 917 372 899 q 341 945 354 935 q 308 962 329 956 q 262 970 286 968 q 201 972 238 972 l 174 972 l 174 139 l 201 139 z "},"E":{"ha":423,"x_min":35,"x_max":389,"o":"m 389 972 l 174 972 l 174 625 l 389 625 l 389 486 l 174 486 l 174 139 l 389 139 l 389 0 l 35 0 l 35 1111 l 389 1111 l 389 972 z "},"F":{"ha":423,"x_min":35,"x_max":389,"o":"m 389 972 l 174 972 l 174 570 l 389 570 l 389 431 l 174 431 l 174 0 l 35 0 l 35 1111 l 389 1111 l 389 972 z "},"G":{"ha":550,"x_min":35,"x_max":515,"o":"m 515 692 l 376 692 l 376 815 q 356 950 376 913 q 275 986 335 986 q 195 950 216 986 q 174 815 174 913 l 174 296 q 195 161 174 197 q 275 125 216 125 q 356 161 335 125 q 376 296 376 197 l 376 428 l 275 428 l 275 567 l 515 567 l 515 0 l 447 0 l 429 82 q 253 -14 362 -14 q 89 61 142 -14 q 35 296 35 135 l 35 815 q 94 1050 35 976 q 275 1125 153 1125 q 456 1050 397 1125 q 515 815 515 976 l 515 692 z "},"H":{"ha":574,"x_min":35,"x_max":541,"o":"m 401 1111 l 541 1111 l 541 0 l 401 0 l 401 486 l 174 486 l 174 0 l 35 0 l 35 1111 l 174 1111 l 174 625 l 401 625 l 401 1111 z "},"I":{"ha":208,"x_min":35,"x_max":174,"o":"m 35 1111 l 174 1111 l 174 0 l 35 0 l 35 1111 z "},"J":{"ha":550,"x_min":35,"x_max":515,"o":"m 515 1111 l 515 296 q 457 59 515 131 q 275 -14 399 -14 q 93 59 152 -14 q 35 296 35 131 l 35 386 l 174 386 l 174 296 q 195 161 175 197 q 275 125 216 125 q 356 161 335 125 q 376 296 376 197 l 376 1111 l 515 1111 z "},"K":{"ha":581,"x_min":35,"x_max":546,"o":"m 35 1111 l 174 1111 l 174 0 l 35 0 l 35 1111 m 546 1111 l 317 555 l 546 0 l 400 0 l 174 555 l 400 1111 l 546 1111 z "},"L":{"ha":423,"x_min":35,"x_max":389,"o":"m 174 139 l 389 139 l 389 0 l 35 0 l 35 1111 l 174 1111 l 174 139 z "},"M":{"ha":713,"x_min":35,"x_max":679,"o":"m 541 1111 l 679 1111 l 679 0 l 541 0 l 541 650 l 403 0 l 313 0 l 174 650 l 174 0 l 35 0 l 35 1111 l 174 1111 l 357 297 l 541 1111 z "},"N":{"ha":623,"x_min":35,"x_max":589,"o":"m 450 1111 l 589 1111 l 589 0 l 450 0 l 174 741 l 174 0 l 35 0 l 35 1111 l 174 1111 l 450 372 l 450 1111 z "},"O":{"ha":550,"x_min":35,"x_max":515,"o":"m 93 1053 q 123 1089 93 1053 q 275 1125 152 1125 q 457 1053 399 1125 q 515 815 515 980 l 515 296 q 457 59 515 131 q 275 -14 399 -14 q 93 59 152 -14 q 35 296 35 131 l 35 815 q 93 1053 35 980 m 376 296 l 376 815 q 356 950 376 913 q 275 986 335 986 q 195 950 216 986 q 174 815 174 913 l 174 296 q 195 161 174 197 q 275 125 216 125 q 356 161 335 125 q 376 296 376 197 z "},"P":{"ha":553,"x_min":35,"x_max":518,"o":"m 208 1111 q 366 1094 305 1111 q 460 1036 427 1076 q 506 939 494 995 q 518 794 518 883 l 518 710 q 511 592 518 640 q 484 505 503 545 q 429 443 464 465 q 340 407 393 420 q 208 393 286 395 l 174 393 l 174 0 l 35 0 l 35 1111 l 208 1111 m 208 532 q 273 535 246 532 q 319 547 300 538 q 350 568 338 556 q 368 602 361 581 q 377 648 375 624 q 379 710 379 673 l 379 794 q 377 857 379 832 q 368 903 375 881 q 350 936 361 924 q 319 957 338 948 q 273 969 300 966 q 208 972 247 972 l 174 972 l 174 532 l 208 532 z "},"Q":{"ha":550,"x_min":35,"x_max":515,"o":"m 93 1053 q 123 1089 93 1053 q 275 1125 152 1125 q 457 1053 399 1125 q 515 815 515 980 l 515 296 q 471 79 515 152 q 335 -9 427 7 q 488 -77 419 -24 l 488 -224 q 357 -151 420 -172 q 205 -125 294 -130 l 205 -7 q 77 84 119 12 q 35 296 35 156 l 35 815 q 93 1053 35 980 m 376 296 l 376 815 q 356 950 376 913 q 275 986 335 986 q 195 950 216 986 q 174 815 174 913 l 174 296 q 195 161 174 197 q 275 125 216 125 q 356 161 335 125 q 376 296 376 197 z "},"R":{"ha":554,"x_min":35,"x_max":533,"o":"m 518 98 q 533 0 518 19 l 395 0 q 379 98 379 20 l 379 298 q 369 369 379 340 q 345 413 359 398 q 306 437 330 429 q 260 447 281 446 q 208 449 240 449 l 174 449 l 174 0 l 35 0 l 35 1111 l 208 1111 q 363 1094 302 1111 q 458 1037 424 1076 q 506 945 493 998 q 519 808 519 891 l 519 758 q 491 593 519 658 q 399 494 462 528 q 489 422 460 473 q 518 278 518 371 l 518 98 m 174 587 l 208 587 q 296 597 262 587 q 348 629 330 606 q 374 681 367 651 q 380 758 380 711 l 380 808 q 374 887 380 858 q 348 937 367 917 q 296 965 328 958 q 208 972 263 972 l 174 972 l 174 587 z "},"S":{"ha":550,"x_min":35,"x_max":515,"o":"m 311 644 q 368 599 346 618 q 416 554 390 581 q 458 501 442 527 q 488 441 474 475 q 509 366 503 407 q 515 275 515 325 q 460 60 515 134 q 286 -14 405 -14 q 140 22 193 -14 q 60 144 86 58 q 35 379 35 229 l 174 379 q 185 218 174 273 q 220 144 197 163 q 286 125 243 125 q 356 157 336 125 q 376 275 376 189 q 369 353 376 321 q 343 414 362 385 q 301 466 325 443 q 235 522 277 489 q 176 570 197 552 q 125 620 155 587 q 80 684 96 653 q 53 759 64 714 q 41 857 41 804 q 98 1055 41 985 q 272 1125 155 1125 q 451 1043 393 1125 q 509 787 509 962 l 370 787 q 363 888 370 848 q 343 949 357 928 q 313 978 329 970 q 272 986 296 986 q 203 957 225 986 q 180 857 180 928 q 211 742 180 787 q 311 644 241 697 z "},"T":{"ha":522,"x_min":35,"x_max":488,"o":"m 488 1111 l 488 972 l 330 972 l 330 0 l 192 0 l 192 972 l 35 972 l 35 1111 l 488 1111 z "},"U":{"ha":550,"x_min":35,"x_max":515,"o":"m 515 1111 l 515 296 q 457 59 515 131 q 275 -14 399 -14 q 93 59 152 -14 q 35 296 35 131 l 35 1111 l 174 1111 l 174 296 q 195 161 174 197 q 275 125 216 125 q 356 161 335 125 q 376 296 376 197 l 376 1111 l 515 1111 z "},"V":{"ha":585,"x_min":35,"x_max":550,"o":"m 411 1111 l 550 1111 l 390 0 l 196 0 l 35 1111 l 174 1111 l 293 142 l 411 1111 z "},"W":{"ha":1046,"x_min":35,"x_max":1011,"o":"m 857 1111 l 1011 1111 l 700 0 l 485 0 l 485 899 l 250 0 l 35 0 l 35 1111 l 174 1111 l 174 192 l 407 1111 l 624 1111 l 624 192 l 857 1111 z "},"X":{"ha":635,"x_min":35,"x_max":602,"o":"m 35 0 l 227 555 l 35 1111 l 183 1111 l 318 667 l 454 1111 l 602 1111 l 410 555 l 602 0 l 454 0 l 318 444 l 183 0 l 35 0 z "},"Y":{"ha":635,"x_min":35,"x_max":602,"o":"m 249 389 l 35 1111 l 182 1111 l 318 567 l 454 1111 l 602 1111 l 387 389 l 387 0 l 249 0 l 249 389 z "},"Z":{"ha":507,"x_min":35,"x_max":472,"o":"m 472 1111 l 472 972 l 175 139 l 472 139 l 472 0 l 35 0 l 35 139 l 334 972 l 35 972 l 35 1111 l 472 1111 z "},"[":{"ha":250,"x_min":35,"x_max":215,"o":"m 215 1069 l 104 1069 l 104 41 l 215 41 l 215 -14 l 35 -14 l 35 1125 l 215 1125 l 215 1069 z "},"\\":{"ha":555,"x_min":35,"x_max":521,"o":"m 35 1125 l 109 1125 l 521 -14 l 447 -14 l 35 1125 z "},"]":{"ha":250,"x_min":35,"x_max":215,"o":"m 215 1125 l 215 -14 l 35 -14 l 35 41 l 146 41 l 146 1069 l 35 1069 l 35 1125 l 215 1125 z "},"^":{"ha":508,"x_min":35,"x_max":473,"o":"m 473 694 l 399 694 l 254 1050 l 110 694 l 35 694 l 204 1111 l 304 1111 l 473 694 z "},"_":{"ha":875,"x_min":35,"x_max":840,"o":"m 35 -7 l 840 -7 l 840 -77 l 35 -77 l 35 -7 z "},"`":{"ha":423,"x_min":14,"x_max":410,"o":"m 410 1039 l 396 986 l 14 1088 l 28 1141 l 410 1039 z "},"a":{"ha":577,"x_min":35,"x_max":543,"o":"m 529 132 q 543 0 529 57 l 418 0 q 397 48 404 19 q 390 102 390 78 q 218 -14 341 -14 q 85 44 136 -14 q 35 214 35 102 q 54 329 35 277 q 105 413 74 380 q 174 472 136 446 q 250 520 212 499 q 319 563 288 542 q 370 613 351 585 q 390 677 390 642 q 297 791 390 791 q 221 757 246 791 q 196 648 196 723 l 196 614 l 57 614 l 57 635 q 69 750 57 701 q 108 839 81 800 q 182 897 135 877 q 297 917 230 917 q 390 904 349 917 q 456 867 430 890 q 499 809 482 844 q 522 735 515 774 q 529 648 529 696 l 529 132 m 390 212 l 390 500 q 354 457 380 479 q 298 415 328 435 q 240 371 269 395 q 192 311 211 347 q 174 233 174 275 q 198 144 174 177 q 273 111 222 111 q 321 123 299 111 q 357 152 344 135 q 379 185 371 170 q 390 212 387 200 z "},"b":{"ha":557,"x_min":28,"x_max":522,"o":"m 350 917 q 483 851 444 917 q 522 635 522 785 l 522 268 q 483 53 522 119 q 350 -14 444 -14 q 286 -3 315 -14 q 236 26 256 7 q 203 62 216 44 q 180 102 190 81 q 174 45 180 77 q 153 0 167 14 l 28 0 q 38 43 35 22 q 41 81 41 65 q 41 134 41 98 l 41 1111 l 180 1111 l 180 802 q 203 841 190 823 q 236 878 216 859 q 286 906 256 896 q 350 917 315 917 m 383 248 l 383 656 q 361 758 383 724 q 289 791 339 791 q 207 752 234 791 q 180 648 180 713 l 180 254 q 207 151 180 190 q 289 111 234 111 q 361 145 339 111 q 383 248 383 180 z "},"c":{"ha":550,"x_min":35,"x_max":515,"o":"m 376 549 l 376 614 q 365 723 376 684 q 333 777 353 763 q 278 791 313 791 q 199 753 224 791 q 174 614 174 715 l 174 289 q 199 149 174 187 q 278 111 224 111 q 334 125 313 111 q 365 179 354 140 q 376 289 376 218 l 376 354 l 515 354 l 515 310 q 459 64 515 141 q 278 -14 404 -14 q 93 64 152 -14 q 35 310 35 142 l 35 593 q 93 839 35 761 q 278 917 152 917 q 459 839 404 917 q 515 593 515 762 l 515 549 l 376 549 z "},"d":{"ha":557,"x_min":35,"x_max":529,"o":"m 515 134 q 516 81 515 98 q 519 43 516 65 q 529 0 522 22 l 404 0 q 383 45 390 14 q 376 102 376 77 q 354 62 367 81 q 320 26 340 44 q 271 -3 300 7 q 207 -14 242 -14 q 74 53 113 -14 q 35 268 35 119 l 35 635 q 74 851 35 785 q 207 917 113 917 q 271 906 242 917 q 320 878 300 896 q 354 841 340 859 q 376 802 367 823 l 376 1111 l 515 1111 l 515 134 m 376 254 l 376 648 q 350 752 376 713 q 268 791 323 791 q 196 758 218 791 q 174 656 174 724 l 174 248 q 196 145 174 180 q 268 111 218 111 q 350 151 323 111 q 376 254 376 190 z "},"e":{"ha":550,"x_min":35,"x_max":515,"o":"m 278 917 q 459 839 404 917 q 515 593 515 762 l 515 431 l 174 431 l 174 289 q 199 149 174 187 q 278 111 224 111 q 334 125 313 111 q 365 179 354 140 q 376 289 376 218 l 376 354 l 515 354 l 515 310 q 459 64 515 141 q 278 -14 404 -14 q 93 64 152 -14 q 35 310 35 142 l 35 593 q 93 839 35 761 q 278 917 152 917 m 376 614 q 365 723 376 684 q 333 777 353 763 q 278 791 313 791 q 199 753 224 791 q 174 614 174 715 l 174 528 l 376 528 l 376 614 z "},"f":{"ha":458,"x_min":35,"x_max":424,"o":"m 358 1014 q 289 992 307 1014 q 271 920 271 970 l 271 868 q 317 892 287 884 q 368 902 347 901 q 424 903 389 903 l 424 778 l 271 778 l 271 0 l 132 0 l 132 778 l 35 778 l 35 903 l 132 903 l 132 926 q 139 1002 132 969 q 164 1064 146 1034 q 218 1109 182 1093 q 309 1125 255 1125 q 424 1111 368 1125 l 424 1007 q 358 1014 393 1014 z "},"g":{"ha":550,"x_min":35,"x_max":515,"o":"m 376 903 l 515 903 l 515 25 q 510 -85 515 -40 q 489 -169 504 -130 q 446 -230 473 -208 q 374 -266 418 -253 q 268 -278 330 -278 l 69 -278 l 69 -153 l 248 -153 q 349 -112 321 -153 q 376 25 376 -71 l 376 102 q 354 62 367 81 q 320 26 340 44 q 271 -3 300 7 q 207 -14 242 -14 q 74 53 113 -14 q 35 268 35 119 l 35 635 q 74 851 35 785 q 207 917 113 917 q 271 906 242 917 q 320 878 300 896 q 354 841 340 859 q 376 802 367 823 l 376 903 m 268 111 q 350 151 323 111 q 376 254 376 190 l 376 648 q 350 752 376 713 q 268 791 323 791 q 196 758 218 791 q 174 656 174 724 l 174 248 q 196 145 174 180 q 268 111 218 111 z "},"h":{"ha":550,"x_min":35,"x_max":515,"o":"m 343 917 q 476 851 437 917 q 515 635 515 785 l 515 0 l 376 0 l 376 656 q 354 758 376 724 q 282 791 332 791 q 200 752 227 791 q 174 648 174 713 l 174 0 l 35 0 l 35 1111 l 174 1111 l 174 802 q 196 841 183 823 q 230 878 210 859 q 279 906 250 896 q 343 917 308 917 z "},"i":{"ha":208,"x_min":28,"x_max":180,"o":"m 158 1007 q 147 996 158 1007 q 104 986 136 986 q 51 1007 73 986 q 28 1055 28 1027 q 51 1105 28 1084 q 104 1125 73 1125 q 158 1105 136 1125 q 180 1055 180 1084 q 158 1007 180 1027 m 35 903 l 174 903 l 174 0 l 35 0 l 35 903 z "},"j":{"ha":368,"x_min":21,"x_max":340,"o":"m 318 1006 q 306 996 318 1006 q 264 986 295 986 q 210 1006 233 986 q 187 1054 187 1027 q 210 1104 187 1084 q 264 1125 233 1125 q 318 1104 295 1125 q 340 1054 340 1084 q 318 1006 340 1027 m 195 25 l 195 903 l 334 903 l 334 25 q 331 -68 334 -30 q 320 -143 328 -106 q 297 -203 312 -180 q 259 -244 283 -226 q 202 -270 236 -262 q 121 -278 168 -278 l 21 -278 l 21 -153 l 93 -153 q 175 -112 155 -153 q 195 25 195 -72 z "},"k":{"ha":581,"x_min":35,"x_max":546,"o":"m 35 1111 l 174 1111 l 174 0 l 35 0 l 35 1111 m 546 903 l 318 452 l 546 0 l 397 0 l 174 452 l 397 903 l 546 903 z "},"l":{"ha":208,"x_min":35,"x_max":174,"o":"m 35 1111 l 174 1111 l 174 0 l 35 0 l 35 1111 z "},"m":{"ha":836,"x_min":35,"x_max":802,"o":"m 647 917 q 769 852 736 917 q 802 635 802 788 l 802 0 l 663 0 l 663 656 q 645 758 663 724 q 586 791 628 791 q 513 752 538 791 q 488 648 488 712 l 488 635 l 488 0 l 349 0 l 349 656 q 331 758 349 724 q 272 791 314 791 q 199 752 224 791 q 174 648 174 712 l 174 0 l 35 0 l 35 903 l 174 903 l 174 802 q 233 884 193 851 q 334 917 273 917 q 429 887 395 917 q 475 791 462 857 q 647 917 530 917 z "},"n":{"ha":550,"x_min":35,"x_max":515,"o":"m 343 917 q 476 851 437 917 q 515 635 515 785 l 515 0 l 376 0 l 376 656 q 354 758 376 724 q 282 791 332 791 q 200 752 227 791 q 174 648 174 713 l 174 0 l 35 0 l 35 903 l 174 903 l 174 802 q 196 841 183 823 q 230 878 210 859 q 279 906 250 896 q 343 917 308 917 z "},"o":{"ha":550,"x_min":35,"x_max":515,"o":"m 35 310 l 35 593 q 92 839 35 761 q 275 917 150 917 q 458 839 401 917 q 515 593 515 761 l 515 310 q 458 64 515 142 q 275 -14 401 -14 q 92 64 149 -14 q 35 310 35 142 m 174 289 q 186 179 174 219 q 219 125 198 140 q 275 111 240 111 q 332 125 311 111 q 365 179 353 140 q 376 289 376 219 l 376 614 q 364 723 376 684 q 331 777 352 763 q 275 791 310 791 q 219 777 240 791 q 186 723 198 763 q 174 614 174 684 l 174 289 z "},"p":{"ha":550,"x_min":35,"x_max":515,"o":"m 343 917 q 476 851 437 917 q 515 635 515 785 l 515 268 q 476 53 515 119 q 343 -14 437 -14 q 279 -3 308 -14 q 230 26 250 7 q 196 62 210 44 q 174 102 183 81 l 174 -278 l 35 -278 l 35 903 l 174 903 l 174 802 q 196 841 183 823 q 230 878 210 859 q 279 906 250 896 q 343 917 308 917 m 376 248 l 376 656 q 354 758 376 724 q 282 791 332 791 q 200 752 227 791 q 174 648 174 713 l 174 254 q 200 151 174 190 q 282 111 227 111 q 354 145 332 111 q 376 248 376 180 z "},"q":{"ha":550,"x_min":35,"x_max":515,"o":"m 376 903 l 515 903 l 515 -278 l 376 -278 l 376 102 q 354 62 367 81 q 320 26 340 44 q 271 -3 300 7 q 207 -14 242 -14 q 74 53 113 -14 q 35 268 35 119 l 35 635 q 74 851 35 785 q 207 917 113 917 q 271 906 242 917 q 320 878 300 896 q 354 841 340 859 q 376 802 367 823 l 376 903 m 376 254 l 376 648 q 350 752 376 713 q 268 791 323 791 q 196 758 218 791 q 174 656 174 724 l 174 248 q 196 145 174 180 q 268 111 218 111 q 350 151 323 111 q 376 254 376 190 z "},"r":{"ha":536,"x_min":35,"x_max":501,"o":"m 351 917 q 415 905 389 917 q 458 873 441 894 q 484 817 475 852 q 497 740 494 781 q 501 642 501 699 l 501 600 l 363 600 l 363 663 q 348 760 363 728 q 288 791 332 791 q 206 740 238 791 q 174 625 174 688 l 174 0 l 35 0 l 35 903 l 174 903 l 174 791 q 351 917 230 917 z "},"s":{"ha":550,"x_min":35,"x_max":515,"o":"m 335 513 q 394 465 373 483 q 442 418 416 447 q 482 363 469 389 q 506 302 496 338 q 515 224 515 266 q 285 -14 515 -14 q 90 59 145 -14 q 35 302 35 132 l 174 302 q 198 152 174 192 q 285 111 223 111 q 376 224 376 111 q 345 320 376 281 q 215 433 313 359 q 191 451 210 437 q 166 470 172 465 q 143 489 159 475 q 119 510 126 503 q 99 532 113 517 q 79 558 85 547 q 64 586 73 570 q 52 619 56 603 q 44 655 47 635 q 41 697 41 675 q 53 777 41 739 q 90 846 64 814 q 161 898 115 879 q 271 917 208 917 q 453 842 397 917 q 509 621 509 766 l 370 621 q 357 728 370 690 q 324 779 344 767 q 271 791 304 791 q 205 766 230 791 q 180 697 180 741 q 185 660 180 677 q 197 631 191 643 q 220 603 203 619 q 249 578 237 587 q 289 548 260 569 q 335 513 318 526 z "},"t":{"ha":458,"x_min":35,"x_max":424,"o":"m 424 778 l 271 778 l 271 302 q 272 237 271 262 q 279 188 274 212 q 294 152 284 164 q 321 132 304 139 q 363 125 338 125 l 424 125 l 424 0 l 338 0 q 268 6 298 0 q 216 24 237 13 q 179 56 194 35 q 155 98 164 76 q 140 154 145 120 q 134 222 136 189 q 132 302 132 255 l 132 778 l 35 778 l 35 903 q 123 978 93 920 q 153 1111 154 1036 l 292 1111 q 262 976 292 1035 q 187 903 232 916 l 424 903 l 424 778 z "},"u":{"ha":550,"x_min":35,"x_max":529,"o":"m 515 134 q 516 81 515 98 q 519 43 516 65 q 529 0 522 22 l 404 0 q 383 45 390 14 q 376 102 376 77 q 354 62 367 81 q 320 26 340 44 q 271 -3 300 7 q 207 -14 242 -14 q 74 53 113 -14 q 35 268 35 119 l 35 903 l 174 903 l 174 248 q 196 145 174 180 q 268 111 218 111 q 350 151 323 111 q 376 254 376 190 l 376 903 l 515 903 l 515 134 z "},"v":{"ha":557,"x_min":35,"x_max":522,"o":"m 383 903 l 522 903 l 371 0 l 186 0 l 35 903 l 174 903 l 279 163 l 383 903 z "},"w":{"ha":1046,"x_min":35,"x_max":1011,"o":"m 857 903 l 1011 903 l 700 0 l 485 0 l 485 730 l 250 0 l 35 0 l 35 903 l 174 903 l 174 155 l 407 903 l 624 903 l 624 155 l 857 903 z "},"x":{"ha":635,"x_min":35,"x_max":602,"o":"m 35 0 l 229 452 l 35 903 l 184 903 l 318 551 l 453 903 l 602 903 l 407 452 l 602 0 l 453 0 l 318 353 l 184 0 l 35 0 z "},"y":{"ha":550,"x_min":35,"x_max":515,"o":"m 376 903 l 515 903 l 515 25 q 510 -85 515 -40 q 489 -169 504 -130 q 446 -230 473 -208 q 374 -266 418 -253 q 268 -278 330 -278 l 69 -278 l 69 -153 l 248 -153 q 349 -112 321 -153 q 376 25 376 -71 l 376 102 q 354 62 367 81 q 320 26 340 44 q 271 -3 300 7 q 207 -14 242 -14 q 74 53 113 -14 q 35 268 35 119 l 35 903 l 174 903 l 174 248 q 196 145 174 180 q 268 111 218 111 q 350 151 323 111 q 376 254 376 190 l 376 903 z "},"z":{"ha":507,"x_min":35,"x_max":472,"o":"m 472 903 l 472 778 l 182 125 l 472 125 l 472 0 l 35 0 l 35 125 l 325 778 l 35 778 l 35 903 l 472 903 z "},"{":{"ha":250,"x_min":35,"x_max":215,"o":"m 215 1125 l 215 1069 q 167 1045 183 1069 q 148 981 151 1021 q 147 892 144 941 q 153 792 149 843 q 156 696 157 741 q 143 619 155 652 q 104 574 130 585 l 104 538 q 143 493 130 526 q 156 415 155 459 q 153 319 157 370 q 147 219 149 268 q 148 130 144 170 q 167 66 151 90 q 215 41 183 41 l 215 -14 q 129 15 161 -14 q 88 87 97 43 q 79 186 79 132 q 83 295 79 241 q 89 395 88 350 q 77 468 90 439 q 35 496 64 496 l 35 615 q 77 643 64 615 q 89 716 90 671 q 83 816 88 762 q 79 924 79 870 q 88 1024 79 979 q 129 1097 97 1069 q 215 1125 161 1125 z "},"|":{"ha":138,"x_min":35,"x_max":104,"o":"m 35 1125 l 104 1125 l 104 -14 l 35 -14 l 35 1125 z "},"}":{"ha":250,"x_min":35,"x_max":215,"o":"m 35 1125 q 121 1097 89 1125 q 162 1024 153 1069 q 171 924 171 979 q 166 816 171 870 q 161 716 161 762 q 173 643 160 671 q 215 615 185 615 l 215 496 q 173 468 185 496 q 161 395 160 439 q 166 296 161 350 q 171 187 171 241 q 162 87 171 132 q 121 15 153 43 q 35 -14 89 -14 l 35 41 q 88 74 71 41 q 104 157 104 107 q 100 269 103 208 q 94 384 97 330 q 104 482 92 439 q 146 538 116 525 l 146 574 q 104 630 116 587 q 94 727 92 673 q 100 842 97 781 q 104 954 103 903 q 88 1037 104 1004 q 35 1069 71 1069 l 35 1125 z "},"~":{"ha":639,"x_min":35,"x_max":604,"o":"m 35 403 q 48 482 35 450 q 84 529 61 514 q 128 550 106 544 q 174 555 149 555 q 246 543 211 555 q 309 511 281 530 q 361 475 336 493 q 413 444 386 456 q 465 431 440 431 q 516 452 497 431 q 534 514 534 473 l 604 514 q 595 448 604 476 q 571 403 585 419 q 538 377 557 387 q 501 364 518 367 q 465 361 484 361 q 376 380 420 361 q 303 424 332 400 q 239 467 275 447 q 174 486 204 486 q 123 465 142 486 q 104 403 104 444 l 35 403 z "},"¡":{"ha":229,"x_min":35,"x_max":195,"o":"m 115 917 q 171 895 148 917 q 195 838 195 872 q 172 779 195 801 q 115 757 149 757 q 58 779 81 757 q 35 838 35 801 q 58 895 35 873 q 115 917 81 917 m 46 -208 l 52 555 l 176 555 l 184 -208 l 46 -208 z "},"¢":{"ha":591,"x_min":35,"x_max":557,"o":"m 330 279 q 444 344 401 289 q 488 497 488 399 l 557 497 q 495 299 557 378 q 330 210 434 220 l 330 -14 l 261 -14 l 261 211 q 97 317 159 227 q 35 555 35 408 q 97 793 35 703 q 261 900 159 884 l 261 1125 l 330 1125 l 330 901 q 495 812 434 891 q 557 614 557 733 l 488 614 q 444 767 488 711 q 330 832 400 823 l 330 279 m 148 747 q 126 713 148 747 q 104 555 104 680 q 148 364 104 431 q 261 282 191 297 l 261 829 q 148 747 191 814 z "},"£":{"ha":572,"x_min":35,"x_max":538,"o":"m 197 419 q 209 311 208 357 q 203 216 211 264 q 171 130 196 168 q 104 62 146 91 l 538 62 l 538 0 l 35 0 l 35 62 q 101 130 77 91 q 134 216 126 168 q 139 311 141 264 q 127 419 138 357 l 35 419 l 35 489 l 117 489 q 94 603 100 570 q 80 700 88 635 q 72 817 72 766 q 91 962 72 900 q 142 1058 109 1023 q 215 1109 175 1093 q 302 1125 254 1125 q 391 1107 351 1125 q 465 1050 431 1089 q 518 943 499 1012 q 538 781 538 874 l 468 781 q 302 1055 468 1055 q 237 1044 265 1055 q 187 1005 210 1032 q 153 931 165 979 q 142 817 142 884 q 150 702 142 766 q 164 601 157 637 q 186 489 171 565 l 435 489 l 435 419 l 197 419 z "},"¤":{"ha":505,"x_min":35,"x_max":471,"o":"m 441 555 q 395 366 441 440 l 471 261 l 422 212 l 349 315 q 253 283 309 283 q 157 315 197 283 l 83 212 l 35 261 l 111 366 q 64 555 64 441 q 111 746 64 670 l 35 850 l 83 899 l 157 796 q 253 828 197 828 q 349 798 307 828 l 422 899 l 471 850 l 395 745 q 441 555 441 670 m 146 657 q 140 635 146 657 q 134 555 134 613 q 146 453 134 498 q 185 381 158 409 q 253 353 213 353 q 320 381 293 353 q 360 453 348 409 q 372 555 372 498 q 360 657 372 613 q 320 730 348 702 q 253 758 293 758 q 185 730 213 758 q 146 657 158 702 z "},"¥":{"ha":677,"x_min":35,"x_max":643,"o":"m 643 1111 l 393 440 l 555 440 l 555 371 l 374 371 l 374 315 l 555 315 l 555 245 l 374 245 l 374 0 l 304 0 l 304 245 l 122 245 l 122 315 l 304 315 l 304 371 l 122 371 l 122 440 l 285 440 l 35 1111 l 111 1111 l 339 488 l 567 1111 l 643 1111 z "},"¦":{"ha":138,"x_min":35,"x_max":104,"o":"m 35 1125 l 104 1125 l 104 681 l 35 681 l 35 1125 m 35 431 l 104 431 l 104 -14 l 35 -14 l 35 431 z "},"§":{"ha":550,"x_min":35,"x_max":515,"o":"m 400 349 q 477 279 453 319 q 501 178 501 240 q 448 41 501 96 q 282 -14 395 -14 q 49 261 49 -14 l 118 261 q 125 182 118 216 q 149 118 132 149 q 199 72 165 88 q 282 56 233 56 q 399 88 367 56 q 432 178 432 121 q 384 281 432 244 q 237 347 336 319 q 79 412 124 380 q 35 501 35 444 q 65 591 35 562 q 150 628 96 620 q 73 697 97 658 q 49 799 49 736 q 102 936 49 881 q 268 990 155 990 q 501 715 501 990 l 432 715 q 425 794 432 760 q 401 858 418 828 q 351 905 385 888 q 268 921 317 921 q 151 888 183 921 q 118 799 118 856 q 166 695 118 732 q 313 629 214 658 q 471 565 426 597 q 515 475 515 532 q 485 385 515 414 q 400 349 454 357 m 104 517 q 137 456 104 477 q 265 404 169 435 l 267 404 q 343 386 310 390 q 395 388 376 382 q 426 405 414 393 q 441 430 437 416 q 446 460 446 443 q 413 520 446 499 q 285 572 381 541 l 283 572 q 207 590 240 587 q 155 589 174 594 q 124 572 136 584 q 109 547 113 560 q 104 517 104 534 z "},"¨":{"ha":368,"x_min":14,"x_max":354,"o":"m 74 1002 q 32 1018 50 1002 q 14 1060 14 1035 q 31 1103 14 1087 q 74 1120 49 1120 q 115 1103 98 1120 q 132 1060 132 1087 q 115 1018 132 1035 q 74 1002 98 1002 m 296 1002 q 254 1018 271 1002 q 236 1060 236 1035 q 253 1103 236 1087 q 296 1120 271 1120 q 337 1103 319 1120 q 354 1060 354 1087 q 337 1018 354 1035 q 296 1002 319 1002 z "},"©":{"ha":880,"x_min":35,"x_max":846,"o":"m 35 555 q 440 -14 35 -14 q 846 555 846 -14 q 440 1125 846 1125 q 35 555 35 1125 m 574 81 q 545 68 574 81 q 440 56 515 56 q 307 81 365 56 q 211 149 249 106 q 149 257 173 193 q 115 394 125 321 q 104 555 104 467 q 115 717 104 644 q 149 854 125 790 q 211 962 173 918 q 307 1030 249 1005 q 440 1055 365 1055 q 574 1030 515 1055 q 670 962 632 1005 q 732 854 708 918 q 766 717 756 790 q 777 555 777 644 q 766 394 777 467 q 732 257 756 321 q 670 149 708 193 q 574 81 632 106 m 604 614 q 559 754 604 703 q 447 806 514 806 q 322 745 367 806 q 277 555 277 684 q 322 367 277 427 q 447 306 367 306 q 559 357 515 306 q 604 497 604 408 l 673 497 q 647 368 673 427 q 567 272 620 309 q 447 236 515 236 q 270 321 333 236 q 207 555 207 407 q 270 789 207 704 q 447 875 333 875 q 567 839 515 875 q 647 743 620 802 q 673 614 673 684 l 604 614 z "},"«":{"ha":471,"x_min":35,"x_max":436,"o":"m 241 624 l 87 458 l 241 293 l 241 210 l 35 431 l 35 486 l 241 707 l 241 624 m 436 707 l 436 624 l 282 458 l 436 293 l 436 210 l 229 431 l 229 486 l 436 707 z "},"¬":{"ha":639,"x_min":35,"x_max":604,"o":"m 35 493 l 604 493 l 604 231 l 534 231 l 534 424 l 35 424 l 35 493 z "},"®":{"ha":602,"x_min":35,"x_max":568,"o":"m 301 431 q 398 446 355 431 q 470 488 441 461 q 518 549 498 515 q 549 623 538 582 q 564 701 559 664 q 568 778 568 738 q 564 855 568 818 q 549 933 559 892 q 518 1007 538 974 q 470 1067 498 1040 q 398 1110 441 1095 q 301 1125 355 1125 q 216 1114 254 1125 q 151 1082 178 1102 q 102 1035 123 1063 q 69 977 81 1006 q 48 911 56 947 q 38 844 41 876 q 35 778 35 812 q 38 712 35 744 q 48 645 41 680 q 69 579 56 609 q 102 521 81 549 q 151 473 123 493 q 216 442 178 454 q 301 431 254 431 m 301 500 q 214 519 252 500 q 157 567 177 538 q 124 635 136 595 q 108 708 111 675 q 104 778 104 741 q 108 847 104 814 q 124 920 111 880 q 157 988 136 960 q 214 1036 177 1017 q 301 1055 252 1055 q 388 1036 351 1055 q 446 988 425 1017 q 479 920 467 960 q 495 847 491 880 q 498 778 498 814 q 496 721 498 748 q 486 660 493 693 q 465 599 479 626 q 430 549 450 572 q 376 513 409 526 q 301 500 343 500 m 200 628 l 200 936 l 297 936 q 393 908 364 936 q 422 825 422 880 q 379 732 422 758 l 421 628 l 346 628 l 311 714 l 269 714 l 269 628 l 200 628 m 269 783 l 297 783 q 339 793 326 783 q 353 825 353 803 q 339 857 353 848 q 297 867 326 867 l 269 867 l 269 783 z "},"¯":{"ha":423,"x_min":14,"x_max":410,"o":"m 14 1092 l 410 1092 l 410 1036 l 14 1036 l 14 1092 z "},"°":{"ha":408,"x_min":35,"x_max":374,"o":"m 125 725 q 142 717 125 725 q 204 708 159 708 q 283 725 250 708 q 336 773 317 743 q 365 840 355 804 q 374 917 374 876 q 365 994 374 958 q 336 1060 355 1030 q 283 1108 317 1090 q 204 1125 250 1125 q 125 1108 159 1125 q 72 1060 91 1090 q 44 994 53 1030 q 35 917 35 958 q 44 840 35 876 q 72 773 53 804 q 125 725 91 743 m 204 778 q 104 917 104 778 q 204 1055 104 1055 q 304 917 304 1055 q 204 778 304 778 z "},"±":{"ha":639,"x_min":35,"x_max":604,"o":"m 604 424 l 354 424 l 354 236 l 604 236 l 604 167 l 35 167 l 35 236 l 285 236 l 285 424 l 35 424 l 35 493 l 285 493 l 285 743 l 354 743 l 354 493 l 604 493 l 604 424 z "},"´":{"ha":423,"x_min":14,"x_max":410,"o":"m 14 1039 l 396 1141 l 410 1088 l 28 986 l 14 1039 z "},"¶":{"ha":462,"x_min":35,"x_max":428,"o":"m 220 1111 l 289 1111 l 289 0 l 220 0 l 220 628 q 138 637 170 628 q 81 671 106 646 q 45 745 56 696 q 35 869 35 793 q 45 994 35 946 q 81 1068 56 1042 q 138 1102 106 1093 q 220 1111 170 1111 m 358 1111 l 428 1111 l 428 0 l 358 0 l 358 1111 z "},"·":{"ha":229,"x_min":35,"x_max":195,"o":"m 115 374 q 58 396 81 374 q 35 453 35 418 q 58 511 35 490 q 115 533 81 533 q 172 511 149 533 q 195 453 195 490 q 171 396 195 418 q 115 374 148 374 z "},"¸":{"ha":279,"x_min":14,"x_max":265,"o":"m 64 0 l 134 0 l 111 -93 q 265 -176 265 -68 q 256 -217 265 -199 q 233 -247 246 -235 q 196 -267 220 -258 q 154 -279 172 -275 q 105 -285 136 -283 q 59 -287 75 -287 q 14 -288 43 -288 l 16 -232 q 156 -221 115 -232 q 196 -176 196 -211 q 187 -148 196 -158 q 157 -135 178 -138 q 110 -133 136 -132 q 43 -140 85 -135 l 64 0 z "},"»":{"ha":471,"x_min":35,"x_max":436,"o":"m 241 486 l 241 431 l 35 210 l 35 293 l 189 458 l 35 624 l 35 707 l 241 486 m 229 707 l 436 486 l 436 431 l 229 210 l 229 293 l 383 458 l 229 624 l 229 707 z "},"¿":{"ha":550,"x_min":35,"x_max":515,"o":"m 310 757 q 254 779 277 757 q 231 838 231 801 q 254 895 231 872 q 310 917 277 917 q 367 895 344 917 q 390 838 390 873 q 367 779 390 801 q 310 757 345 757 m 376 115 l 515 115 q 454 -138 515 -54 q 264 -222 393 -222 q 92 -155 149 -222 q 35 21 35 -88 q 46 109 35 68 q 77 181 58 150 q 118 241 96 212 q 164 302 141 271 q 205 368 186 333 q 236 451 224 402 q 248 555 248 499 l 372 555 q 361 435 372 490 q 333 341 351 379 q 294 269 315 302 q 252 209 273 236 q 213 156 231 182 q 184 99 195 130 q 174 35 174 68 q 264 -83 174 -83 q 311 -74 291 -83 q 346 -43 330 -65 q 369 18 361 -21 q 376 115 376 58 z "},"À":{"ha":585,"x_min":35,"x_max":550,"o":"m 490 1247 l 476 1194 l 94 1296 l 109 1350 l 490 1247 m 411 0 l 383 224 l 201 224 l 174 0 l 35 0 l 196 1111 l 390 1111 l 550 0 l 411 0 m 218 363 l 367 363 l 293 970 l 218 363 z "},"Á":{"ha":585,"x_min":35,"x_max":550,"o":"m 490 1296 l 109 1194 l 94 1247 l 476 1350 l 490 1296 m 411 0 l 383 224 l 201 224 l 174 0 l 35 0 l 196 1111 l 390 1111 l 550 0 l 411 0 m 218 363 l 367 363 l 293 970 l 218 363 z "},"Â":{"ha":585,"x_min":35,"x_max":550,"o":"m 294 1308 l 184 1194 l 94 1194 l 245 1350 l 343 1350 l 490 1194 l 400 1194 l 294 1308 m 411 0 l 383 224 l 201 224 l 174 0 l 35 0 l 196 1111 l 390 1111 l 550 0 l 411 0 m 218 363 l 367 363 l 293 970 l 218 363 z "},"Ã":{"ha":585,"x_min":35,"x_max":550,"o":"m 210 1295 q 164 1211 164 1295 l 94 1211 q 205 1350 94 1350 q 258 1340 235 1350 q 294 1315 281 1330 q 319 1285 308 1300 q 345 1260 331 1270 q 375 1250 359 1250 q 421 1333 421 1250 l 490 1333 q 379 1194 490 1194 q 327 1204 349 1194 q 290 1230 304 1215 q 265 1259 277 1244 q 240 1284 254 1274 q 210 1295 226 1295 m 411 0 l 383 224 l 201 224 l 174 0 l 35 0 l 196 1111 l 390 1111 l 550 0 l 411 0 m 218 363 l 367 363 l 293 970 l 218 363 z "},"Ä":{"ha":585,"x_min":35,"x_max":550,"o":"m 182 1210 q 140 1226 157 1210 q 122 1268 122 1243 q 139 1312 122 1295 q 182 1328 157 1328 q 223 1312 205 1328 q 240 1268 240 1295 q 223 1226 240 1243 q 182 1210 205 1210 m 404 1210 q 362 1226 380 1210 q 345 1268 345 1243 q 362 1312 345 1295 q 404 1328 379 1328 q 445 1312 428 1328 q 463 1268 463 1295 q 445 1226 463 1243 q 404 1210 428 1210 m 411 0 l 383 224 l 201 224 l 174 0 l 35 0 l 196 1111 l 390 1111 l 550 0 l 411 0 m 218 363 l 367 363 l 293 970 l 218 363 z "},"Å":{"ha":585,"x_min":35,"x_max":550,"o":"m 357 1221 q 344 1207 357 1221 q 293 1194 330 1194 q 229 1221 256 1194 q 201 1286 201 1247 q 229 1352 201 1325 q 293 1378 256 1378 q 357 1352 330 1378 q 385 1286 385 1325 q 357 1221 385 1247 m 319 1312 q 314 1317 319 1312 q 293 1322 309 1322 q 267 1312 277 1322 q 257 1286 257 1302 q 267 1260 257 1270 q 293 1250 277 1250 q 319 1260 309 1250 q 329 1286 329 1270 q 319 1312 329 1302 m 411 0 l 383 224 l 201 224 l 174 0 l 35 0 l 196 1111 l 390 1111 l 550 0 l 411 0 m 218 363 l 367 363 l 293 970 l 218 363 z "},"Æ":{"ha":805,"x_min":35,"x_max":771,"o":"m 555 972 l 555 625 l 771 625 l 771 486 l 555 486 l 555 139 l 771 139 l 771 0 l 416 0 l 416 224 l 205 224 l 174 0 l 35 0 l 199 1111 l 771 1111 l 771 972 l 555 972 m 227 363 l 416 363 l 416 972 l 314 972 l 227 363 z "},"Ç":{"ha":550,"x_min":35,"x_max":515,"o":"m 515 660 l 376 660 l 376 815 q 356 950 376 913 q 275 986 335 986 q 195 950 216 986 q 174 815 174 913 l 174 296 q 195 161 174 197 q 275 125 216 125 q 356 161 335 125 q 376 296 376 197 l 376 452 l 515 452 l 515 296 q 465 69 515 142 q 307 -12 414 -4 l 288 -93 q 441 -176 441 -68 q 432 -217 441 -199 q 409 -247 422 -235 q 373 -267 396 -258 q 331 -279 349 -275 q 282 -285 312 -283 q 236 -287 252 -287 q 191 -288 220 -288 l 192 -232 q 332 -221 292 -232 q 372 -176 372 -211 q 334 -134 372 -141 q 220 -140 296 -127 l 239 -12 q 84 71 134 -3 q 35 296 35 144 l 35 815 q 93 1053 35 980 q 275 1125 152 1125 q 457 1053 399 1125 q 515 815 515 980 l 515 660 z "},"È":{"ha":423,"x_min":14,"x_max":410,"o":"m 28 1350 l 410 1247 l 396 1194 l 14 1296 l 28 1350 m 389 1111 l 389 972 l 174 972 l 174 625 l 389 625 l 389 486 l 174 486 l 174 139 l 389 139 l 389 0 l 35 0 l 35 1111 l 389 1111 z "},"É":{"ha":423,"x_min":14,"x_max":410,"o":"m 396 1350 l 410 1296 l 28 1194 l 14 1247 l 396 1350 m 389 1111 l 389 972 l 174 972 l 174 625 l 389 625 l 389 486 l 174 486 l 174 139 l 389 139 l 389 0 l 35 0 l 35 1111 l 389 1111 z "},"Ê":{"ha":423,"x_min":14,"x_max":410,"o":"m 214 1308 l 104 1194 l 14 1194 l 165 1350 l 262 1350 l 410 1194 l 319 1194 l 214 1308 m 389 1111 l 389 972 l 174 972 l 174 625 l 389 625 l 389 486 l 174 486 l 174 139 l 389 139 l 389 0 l 35 0 l 35 1111 l 389 1111 z "},"Ë":{"ha":423,"x_min":35,"x_max":389,"o":"m 102 1210 q 59 1226 77 1210 q 41 1268 41 1243 q 59 1312 41 1295 q 102 1328 77 1328 q 143 1312 125 1328 q 160 1268 160 1295 q 143 1226 160 1243 q 102 1210 125 1210 m 323 1210 q 281 1226 299 1210 q 264 1268 264 1243 q 281 1312 264 1295 q 323 1328 298 1328 q 365 1312 347 1328 q 382 1268 382 1295 q 365 1226 382 1243 q 323 1210 347 1210 m 389 972 l 174 972 l 174 625 l 389 625 l 389 486 l 174 486 l 174 139 l 389 139 l 389 0 l 35 0 l 35 1111 l 389 1111 l 389 972 z "},"Ì":{"ha":208,"x_min":-94,"x_max":301,"o":"m 301 1247 l 288 1194 l -94 1296 l -81 1350 l 301 1247 m 35 1111 l 174 1111 l 174 0 l 35 0 l 35 1111 z "},"Í":{"ha":208,"x_min":-94,"x_max":301,"o":"m -94 1247 l 288 1350 l 301 1296 l -81 1194 l -94 1247 m 35 1111 l 174 1111 l 174 0 l 35 0 l 35 1111 z "},"Î":{"ha":208,"x_min":-94,"x_max":301,"o":"m 57 1350 l 154 1350 l 301 1194 l 211 1194 l 106 1308 l -4 1194 l -94 1194 l 57 1350 m 35 1111 l 174 1111 l 174 0 l 35 0 l 35 1111 z "},"Ï":{"ha":208,"x_min":-66,"x_max":273,"o":"m -7 1210 q -49 1226 -31 1210 q -66 1268 -66 1243 q -49 1312 -66 1295 q -7 1328 -32 1328 q 34 1312 17 1328 q 52 1268 52 1295 q 34 1226 52 1243 q -7 1210 17 1210 m 215 1210 q 173 1226 191 1210 q 155 1268 155 1243 q 173 1312 155 1295 q 215 1328 190 1328 q 256 1312 239 1328 q 273 1268 273 1295 q 256 1226 273 1243 q 215 1210 239 1210 m 35 1111 l 174 1111 l 174 0 l 35 0 l 35 1111 z "},"Ð":{"ha":633,"x_min":0,"x_max":599,"o":"m 282 1111 q 384 1106 340 1111 q 464 1088 427 1101 q 525 1054 500 1076 q 566 1000 549 1033 q 591 921 583 966 q 599 815 599 876 l 599 296 q 587 173 599 224 q 552 88 575 122 q 490 35 529 54 q 401 8 450 16 q 282 0 353 0 l 115 0 l 115 528 l 0 528 l 0 583 l 115 583 l 115 1111 l 282 1111 m 282 139 q 368 144 337 139 q 421 166 399 149 q 452 214 444 183 q 460 296 460 244 l 460 815 q 456 874 460 850 q 444 917 453 899 q 422 945 435 935 q 388 962 410 956 q 343 970 367 968 q 282 972 319 972 l 254 972 l 254 583 l 396 583 l 396 528 l 254 528 l 254 139 l 282 139 z "},"Ñ":{"ha":623,"x_min":35,"x_max":589,"o":"m 229 1295 q 183 1211 183 1295 l 114 1211 q 225 1350 114 1350 q 278 1340 255 1350 q 314 1315 300 1330 q 339 1285 328 1300 q 365 1260 351 1270 q 395 1250 378 1250 q 440 1333 440 1250 l 510 1333 q 399 1194 510 1194 q 346 1204 369 1194 q 310 1230 323 1215 q 285 1259 296 1244 q 259 1284 273 1274 q 229 1295 245 1295 m 450 1111 l 589 1111 l 589 0 l 450 0 l 174 741 l 174 0 l 35 0 l 35 1111 l 174 1111 l 450 372 l 450 1111 z "},"Ò":{"ha":550,"x_min":35,"x_max":515,"o":"m 472 1247 l 458 1194 l 77 1296 l 90 1350 l 472 1247 m 93 1053 q 123 1089 93 1053 q 275 1125 152 1125 q 457 1053 399 1125 q 515 815 515 980 l 515 296 q 457 59 515 131 q 275 -14 399 -14 q 93 59 152 -14 q 35 296 35 131 l 35 815 q 93 1053 35 980 m 376 296 l 376 815 q 356 950 376 913 q 275 986 335 986 q 195 950 216 986 q 174 815 174 913 l 174 296 q 195 161 174 197 q 275 125 216 125 q 356 161 335 125 q 376 296 376 197 z "},"Ó":{"ha":550,"x_min":35,"x_max":515,"o":"m 472 1296 l 90 1194 l 77 1247 l 458 1350 l 472 1296 m 93 1053 q 123 1089 93 1053 q 275 1125 152 1125 q 457 1053 399 1125 q 515 815 515 980 l 515 296 q 457 59 515 131 q 275 -14 399 -14 q 93 59 152 -14 q 35 296 35 131 l 35 815 q 93 1053 35 980 m 376 296 l 376 815 q 356 950 376 913 q 275 986 335 986 q 195 950 216 986 q 174 815 174 913 l 174 296 q 195 161 174 197 q 275 125 216 125 q 356 161 335 125 q 376 296 376 197 z "},"Ô":{"ha":550,"x_min":35,"x_max":515,"o":"m 277 1308 l 167 1194 l 77 1194 l 228 1350 l 325 1350 l 472 1194 l 382 1194 l 277 1308 m 93 1053 q 123 1089 93 1053 q 275 1125 152 1125 q 457 1053 399 1125 q 515 815 515 980 l 515 296 q 457 59 515 131 q 275 -14 399 -14 q 93 59 152 -14 q 35 296 35 131 l 35 815 q 93 1053 35 980 m 376 296 l 376 815 q 356 950 376 913 q 275 986 335 986 q 195 950 216 986 q 174 815 174 913 l 174 296 q 195 161 174 197 q 275 125 216 125 q 356 161 335 125 q 376 296 376 197 z "},"Õ":{"ha":550,"x_min":35,"x_max":515,"o":"m 192 1295 q 146 1211 146 1295 l 77 1211 q 187 1350 77 1350 q 240 1340 217 1350 q 276 1315 262 1330 q 301 1285 290 1300 q 327 1260 313 1270 q 357 1250 340 1250 q 403 1333 403 1250 l 472 1333 q 361 1194 472 1194 q 308 1204 331 1194 q 272 1230 286 1215 q 247 1259 258 1244 q 222 1284 236 1274 q 192 1295 208 1295 m 93 1053 q 123 1089 93 1053 q 275 1125 152 1125 q 457 1053 399 1125 q 515 815 515 980 l 515 296 q 457 59 515 131 q 275 -14 399 -14 q 93 59 152 -14 q 35 296 35 131 l 35 815 q 93 1053 35 980 m 376 296 l 376 815 q 356 950 376 913 q 275 986 335 986 q 195 950 216 986 q 174 815 174 913 l 174 296 q 195 161 174 197 q 275 125 216 125 q 356 161 335 125 q 376 296 376 197 z "},"Ö":{"ha":550,"x_min":35,"x_max":515,"o":"m 164 1210 q 122 1226 140 1210 q 104 1268 104 1243 q 122 1312 104 1295 q 164 1328 139 1328 q 205 1312 188 1328 q 222 1268 222 1295 q 205 1226 222 1243 q 164 1210 188 1210 m 386 1210 q 344 1226 361 1210 q 326 1268 326 1243 q 343 1312 326 1295 q 386 1328 361 1328 q 427 1312 410 1328 q 444 1268 444 1295 q 427 1226 444 1243 q 386 1210 410 1210 m 93 1053 q 123 1089 93 1053 q 275 1125 152 1125 q 457 1053 399 1125 q 515 815 515 980 l 515 296 q 457 59 515 131 q 275 -14 399 -14 q 93 59 152 -14 q 35 296 35 131 l 35 815 q 93 1053 35 980 m 376 296 l 376 815 q 356 950 376 913 q 275 986 335 986 q 195 950 216 986 q 174 815 174 913 l 174 296 q 195 161 174 197 q 275 125 216 125 q 356 161 335 125 q 376 296 376 197 z "},"×":{"ha":545,"x_min":47,"x_max":500,"o":"m 500 267 l 450 218 l 273 395 l 96 216 l 47 267 l 225 444 l 47 621 l 97 669 l 273 493 l 450 669 l 498 619 l 323 444 l 500 267 z "},"Ø":{"ha":550,"x_min":32,"x_max":518,"o":"m 518 1125 l 478 1015 q 514 815 514 945 l 514 296 q 455 59 514 131 q 273 -14 397 -14 q 121 29 178 -14 l 106 -14 l 32 -14 l 71 92 q 33 296 33 164 l 33 815 q 92 1053 33 980 q 273 1125 150 1125 q 428 1080 373 1125 l 444 1125 l 518 1125 m 172 815 l 172 374 l 368 913 q 337 969 359 953 q 273 986 315 986 q 193 950 214 986 q 172 815 172 913 m 375 730 l 180 193 q 211 140 189 156 q 273 125 233 125 q 354 161 333 125 q 375 296 375 197 l 375 730 z "},"Ù":{"ha":550,"x_min":35,"x_max":515,"o":"m 472 1247 l 458 1194 l 77 1296 l 90 1350 l 472 1247 m 515 1111 l 515 296 q 457 59 515 131 q 275 -14 399 -14 q 93 59 152 -14 q 35 296 35 131 l 35 1111 l 174 1111 l 174 296 q 195 161 174 197 q 275 125 216 125 q 356 161 335 125 q 376 296 376 197 l 376 1111 l 515 1111 z "},"Ú":{"ha":550,"x_min":35,"x_max":515,"o":"m 77 1247 l 458 1350 l 472 1296 l 90 1194 l 77 1247 m 515 1111 l 515 296 q 457 59 515 131 q 275 -14 399 -14 q 93 59 152 -14 q 35 296 35 131 l 35 1111 l 174 1111 l 174 296 q 195 161 174 197 q 275 125 216 125 q 356 161 335 125 q 376 296 376 197 l 376 1111 l 515 1111 z "},"Û":{"ha":550,"x_min":35,"x_max":515,"o":"m 228 1350 l 325 1350 l 472 1194 l 382 1194 l 277 1308 l 167 1194 l 77 1194 l 228 1350 m 515 1111 l 515 296 q 457 59 515 131 q 275 -14 399 -14 q 93 59 152 -14 q 35 296 35 131 l 35 1111 l 174 1111 l 174 296 q 195 161 174 197 q 275 125 216 125 q 356 161 335 125 q 376 296 376 197 l 376 1111 l 515 1111 z "},"Ü":{"ha":550,"x_min":35,"x_max":515,"o":"m 164 1210 q 122 1226 140 1210 q 104 1268 104 1243 q 122 1312 104 1295 q 164 1328 139 1328 q 205 1312 188 1328 q 222 1268 222 1295 q 205 1226 222 1243 q 164 1210 188 1210 m 386 1210 q 344 1226 361 1210 q 326 1268 326 1243 q 343 1312 326 1295 q 386 1328 361 1328 q 427 1312 410 1328 q 444 1268 444 1295 q 427 1226 444 1243 q 386 1210 410 1210 m 515 1111 l 515 296 q 457 59 515 131 q 275 -14 399 -14 q 93 59 152 -14 q 35 296 35 131 l 35 1111 l 174 1111 l 174 296 q 195 161 174 197 q 275 125 216 125 q 356 161 335 125 q 376 296 376 197 l 376 1111 l 515 1111 z "},"Ý":{"ha":635,"x_min":35,"x_max":602,"o":"m 119 1247 l 501 1350 l 515 1296 l 134 1194 l 119 1247 m 249 389 l 35 1111 l 182 1111 l 318 567 l 454 1111 l 602 1111 l 387 389 l 387 0 l 249 0 l 249 389 z "},"Þ":{"ha":553,"x_min":35,"x_max":518,"o":"m 174 903 q 298 896 245 903 q 390 872 351 888 q 453 832 429 855 q 492 772 478 808 q 512 694 507 736 q 518 593 518 652 l 518 494 q 513 394 518 436 q 492 317 507 353 q 453 258 477 281 q 390 218 429 235 q 298 193 351 201 q 174 184 245 186 l 174 0 l 35 0 l 35 1111 l 174 1111 l 174 903 m 174 323 q 251 326 220 323 q 306 337 282 329 q 343 357 330 345 q 365 389 357 368 q 376 433 374 409 q 379 494 379 458 l 379 593 q 376 654 379 630 q 365 699 374 679 q 343 731 357 720 q 306 750 330 743 q 251 761 281 758 q 174 764 220 764 l 174 323 z "},"ß":{"ha":577,"x_min":35,"x_max":543,"o":"m 416 581 q 543 296 543 515 q 485 67 543 134 q 285 0 427 0 l 220 0 l 220 125 l 285 125 q 346 139 321 125 q 383 182 370 153 q 400 243 395 210 q 404 323 404 276 q 271 515 404 515 l 220 515 l 220 640 l 271 640 q 327 654 304 640 q 359 693 349 667 q 373 746 370 720 q 376 808 376 772 q 355 956 376 912 q 278 1000 333 1000 q 198 951 222 1000 q 174 781 174 902 l 174 0 l 35 0 l 35 781 q 88 1041 35 958 q 278 1125 142 1125 q 459 1049 402 1125 q 515 843 515 973 q 416 581 515 648 z "},"à":{"ha":577,"x_min":35,"x_max":543,"o":"m 486 1039 l 472 986 l 90 1088 l 104 1141 l 486 1039 m 529 132 q 543 0 529 57 l 418 0 q 397 48 404 19 q 390 102 390 78 q 218 -14 341 -14 q 85 44 136 -14 q 35 214 35 102 q 54 329 35 277 q 105 413 74 380 q 174 472 136 446 q 250 520 212 499 q 319 563 288 542 q 370 613 351 585 q 390 677 390 642 q 297 791 390 791 q 221 757 246 791 q 196 648 196 723 l 196 614 l 57 614 l 57 635 q 69 750 57 701 q 108 839 81 800 q 182 897 135 877 q 297 917 230 917 q 390 904 349 917 q 456 867 430 890 q 499 809 482 844 q 522 735 515 774 q 529 648 529 696 l 529 132 m 390 212 l 390 500 q 354 457 380 479 q 298 415 328 435 q 240 371 269 395 q 192 311 211 347 q 174 233 174 275 q 198 144 174 177 q 273 111 222 111 q 321 123 299 111 q 357 152 344 135 q 379 185 371 170 q 390 212 387 200 z "},"á":{"ha":577,"x_min":35,"x_max":543,"o":"m 486 1088 l 104 986 l 90 1039 l 472 1141 l 486 1088 m 529 132 q 543 0 529 57 l 418 0 q 397 48 404 19 q 390 102 390 78 q 218 -14 341 -14 q 85 44 136 -14 q 35 214 35 102 q 54 329 35 277 q 105 413 74 380 q 174 472 136 446 q 250 520 212 499 q 319 563 288 542 q 370 613 351 585 q 390 677 390 642 q 297 791 390 791 q 221 757 246 791 q 196 648 196 723 l 196 614 l 57 614 l 57 635 q 69 750 57 701 q 108 839 81 800 q 182 897 135 877 q 297 917 230 917 q 390 904 349 917 q 456 867 430 890 q 499 809 482 844 q 522 735 515 774 q 529 648 529 696 l 529 132 m 390 212 l 390 500 q 354 457 380 479 q 298 415 328 435 q 240 371 269 395 q 192 311 211 347 q 174 233 174 275 q 198 144 174 177 q 273 111 222 111 q 321 123 299 111 q 357 152 344 135 q 379 185 371 170 q 390 212 387 200 z "},"â":{"ha":577,"x_min":35,"x_max":543,"o":"m 290 1100 l 180 986 l 90 986 l 241 1141 l 339 1141 l 486 986 l 396 986 l 290 1100 m 529 132 q 543 0 529 57 l 418 0 q 397 48 404 19 q 390 102 390 78 q 218 -14 341 -14 q 85 44 136 -14 q 35 214 35 102 q 54 329 35 277 q 105 413 74 380 q 174 472 136 446 q 250 520 212 499 q 319 563 288 542 q 370 613 351 585 q 390 677 390 642 q 297 791 390 791 q 221 757 246 791 q 196 648 196 723 l 196 614 l 57 614 l 57 635 q 69 750 57 701 q 108 839 81 800 q 182 897 135 877 q 297 917 230 917 q 390 904 349 917 q 456 867 430 890 q 499 809 482 844 q 522 735 515 774 q 529 648 529 696 l 529 132 m 390 212 l 390 500 q 354 457 380 479 q 298 415 328 435 q 240 371 269 395 q 192 311 211 347 q 174 233 174 275 q 198 144 174 177 q 273 111 222 111 q 321 123 299 111 q 357 152 344 135 q 379 185 371 170 q 390 212 387 200 z "},"ã":{"ha":577,"x_min":35,"x_max":543,"o":"m 205 1086 q 160 1003 160 1086 l 90 1003 q 201 1141 90 1141 q 254 1131 231 1141 q 290 1106 277 1121 q 315 1077 304 1092 q 341 1052 327 1062 q 371 1042 355 1042 q 416 1125 416 1042 l 486 1125 q 375 986 486 986 q 322 996 345 986 q 286 1021 300 1006 q 261 1051 273 1036 q 236 1076 250 1066 q 205 1086 222 1086 m 529 132 q 543 0 529 57 l 418 0 q 397 48 404 19 q 390 102 390 78 q 218 -14 341 -14 q 85 44 136 -14 q 35 214 35 102 q 54 329 35 277 q 105 413 74 380 q 174 472 136 446 q 250 520 212 499 q 319 563 288 542 q 370 613 351 585 q 390 677 390 642 q 297 791 390 791 q 221 757 246 791 q 196 648 196 723 l 196 614 l 57 614 l 57 635 q 69 750 57 701 q 108 839 81 800 q 182 897 135 877 q 297 917 230 917 q 390 904 349 917 q 456 867 430 890 q 499 809 482 844 q 522 735 515 774 q 529 648 529 696 l 529 132 m 390 212 l 390 500 q 354 457 380 479 q 298 415 328 435 q 240 371 269 395 q 192 311 211 347 q 174 233 174 275 q 198 144 174 177 q 273 111 222 111 q 321 123 299 111 q 357 152 344 135 q 379 185 371 170 q 390 212 387 200 z "},"ä":{"ha":577,"x_min":35,"x_max":543,"o":"m 178 1002 q 136 1018 153 1002 q 118 1060 118 1035 q 135 1103 118 1087 q 178 1120 153 1120 q 219 1103 201 1120 q 236 1060 236 1087 q 219 1018 236 1035 q 178 1002 201 1002 m 400 1002 q 358 1018 376 1002 q 340 1060 340 1035 q 358 1103 340 1087 q 400 1120 375 1120 q 441 1103 424 1120 q 458 1060 458 1087 q 441 1018 458 1035 q 400 1002 424 1002 m 529 132 q 543 0 529 57 l 418 0 q 397 48 404 19 q 390 102 390 78 q 218 -14 341 -14 q 85 44 136 -14 q 35 214 35 102 q 54 329 35 277 q 105 413 74 380 q 174 472 136 446 q 250 520 212 499 q 319 563 288 542 q 370 613 351 585 q 390 677 390 642 q 297 791 390 791 q 221 757 246 791 q 196 648 196 723 l 196 614 l 57 614 l 57 635 q 69 750 57 701 q 108 839 81 800 q 182 897 135 877 q 297 917 230 917 q 390 904 349 917 q 456 867 430 890 q 499 809 482 844 q 522 735 515 774 q 529 648 529 696 l 529 132 m 390 212 l 390 500 q 354 457 380 479 q 298 415 328 435 q 240 371 269 395 q 192 311 211 347 q 174 233 174 275 q 198 144 174 177 q 273 111 222 111 q 321 123 299 111 q 357 152 344 135 q 379 185 371 170 q 390 212 387 200 z "},"å":{"ha":577,"x_min":35,"x_max":543,"o":"m 353 1013 q 340 999 353 1013 q 289 986 326 986 q 224 1013 252 986 q 197 1078 197 1039 q 224 1143 197 1116 q 289 1169 252 1169 q 353 1143 326 1169 q 380 1078 380 1116 q 353 1013 380 1039 m 315 1104 q 310 1109 315 1104 q 289 1114 305 1114 q 263 1104 273 1114 q 253 1078 253 1094 q 263 1052 253 1061 q 289 1042 273 1042 q 315 1052 305 1042 q 325 1078 325 1061 q 315 1104 325 1094 m 529 132 q 543 0 529 57 l 418 0 q 397 48 404 19 q 390 102 390 78 q 218 -14 341 -14 q 85 44 136 -14 q 35 214 35 102 q 54 329 35 277 q 105 413 74 380 q 174 472 136 446 q 250 520 212 499 q 319 563 288 542 q 370 613 351 585 q 390 677 390 642 q 297 791 390 791 q 221 757 246 791 q 196 648 196 723 l 196 614 l 57 614 l 57 635 q 69 750 57 701 q 108 839 81 800 q 182 897 135 877 q 297 917 230 917 q 390 904 349 917 q 456 867 430 890 q 499 809 482 844 q 522 735 515 774 q 529 648 529 696 l 529 132 m 390 212 l 390 500 q 354 457 380 479 q 298 415 328 435 q 240 371 269 395 q 192 311 211 347 q 174 233 174 275 q 198 144 174 177 q 273 111 222 111 q 321 123 299 111 q 357 152 344 135 q 379 185 371 170 q 390 212 387 200 z "},"æ":{"ha":878,"x_min":35,"x_max":843,"o":"m 422 840 q 606 917 480 917 q 787 839 731 917 q 843 593 843 762 l 843 431 l 501 431 l 501 289 q 527 149 501 187 q 606 111 552 111 q 661 125 641 111 q 693 179 682 140 q 704 289 704 218 l 704 354 l 843 354 l 843 310 q 787 64 843 141 q 606 -14 731 -14 q 399 102 453 -14 q 326 14 368 41 q 220 -14 283 -14 q 87 40 140 -14 q 35 197 35 94 q 53 312 35 260 q 100 398 71 363 q 164 461 129 432 q 234 513 199 490 q 298 559 269 536 q 345 612 327 583 q 363 677 363 642 q 285 791 363 791 q 196 648 196 791 l 196 614 l 57 614 l 57 635 q 269 917 57 917 q 422 840 369 917 m 704 614 q 692 723 704 684 q 661 777 681 763 q 606 791 640 791 q 527 753 552 791 q 501 614 501 715 l 501 528 l 704 528 l 704 614 m 265 111 q 372 184 325 111 q 363 310 363 235 l 363 496 q 330 454 353 475 q 280 413 306 433 q 230 370 255 393 q 190 311 205 346 q 174 233 174 275 q 197 144 174 178 q 265 111 220 111 z "},"ç":{"ha":550,"x_min":35,"x_max":515,"o":"m 515 549 l 376 549 l 376 614 q 365 723 376 684 q 333 777 353 763 q 278 791 313 791 q 199 753 224 791 q 174 614 174 715 l 174 289 q 199 149 174 187 q 278 111 224 111 q 334 125 313 111 q 365 179 354 140 q 376 289 376 218 l 376 354 l 515 354 l 515 310 q 466 74 515 151 q 307 -12 416 -4 l 288 -93 q 441 -176 441 -68 q 432 -217 441 -199 q 409 -247 422 -235 q 373 -267 396 -258 q 331 -279 349 -275 q 282 -285 312 -283 q 236 -287 252 -287 q 191 -288 220 -288 l 192 -232 q 332 -221 292 -232 q 372 -176 372 -211 q 334 -134 372 -141 q 220 -140 296 -127 l 239 -12 q 84 78 134 -1 q 35 310 35 156 l 35 593 q 93 839 35 761 q 278 917 152 917 q 459 839 404 917 q 515 593 515 762 l 515 549 z "},"è":{"ha":550,"x_min":35,"x_max":515,"o":"m 472 1039 l 458 986 l 77 1088 l 90 1141 l 472 1039 m 278 917 q 459 839 404 917 q 515 593 515 762 l 515 431 l 174 431 l 174 289 q 199 149 174 187 q 278 111 224 111 q 334 125 313 111 q 365 179 354 140 q 376 289 376 218 l 376 354 l 515 354 l 515 310 q 459 64 515 141 q 278 -14 404 -14 q 93 64 152 -14 q 35 310 35 142 l 35 593 q 93 839 35 761 q 278 917 152 917 m 376 614 q 365 723 376 684 q 333 777 353 763 q 278 791 313 791 q 199 753 224 791 q 174 614 174 715 l 174 528 l 376 528 l 376 614 z "},"é":{"ha":550,"x_min":35,"x_max":515,"o":"m 472 1088 l 90 986 l 77 1039 l 458 1141 l 472 1088 m 278 917 q 459 839 404 917 q 515 593 515 762 l 515 431 l 174 431 l 174 289 q 199 149 174 187 q 278 111 224 111 q 334 125 313 111 q 365 179 354 140 q 376 289 376 218 l 376 354 l 515 354 l 515 310 q 459 64 515 141 q 278 -14 404 -14 q 93 64 152 -14 q 35 310 35 142 l 35 593 q 93 839 35 761 q 278 917 152 917 m 376 614 q 365 723 376 684 q 333 777 353 763 q 278 791 313 791 q 199 753 224 791 q 174 614 174 715 l 174 528 l 376 528 l 376 614 z "},"ê":{"ha":550,"x_min":35,"x_max":515,"o":"m 277 1100 l 167 986 l 77 986 l 228 1141 l 325 1141 l 472 986 l 382 986 l 277 1100 m 278 917 q 459 839 404 917 q 515 593 515 762 l 515 431 l 174 431 l 174 289 q 199 149 174 187 q 278 111 224 111 q 334 125 313 111 q 365 179 354 140 q 376 289 376 218 l 376 354 l 515 354 l 515 310 q 459 64 515 141 q 278 -14 404 -14 q 93 64 152 -14 q 35 310 35 142 l 35 593 q 93 839 35 761 q 278 917 152 917 m 376 614 q 365 723 376 684 q 333 777 353 763 q 278 791 313 791 q 199 753 224 791 q 174 614 174 715 l 174 528 l 376 528 l 376 614 z "},"ë":{"ha":550,"x_min":35,"x_max":515,"o":"m 164 1002 q 122 1018 140 1002 q 104 1060 104 1035 q 122 1103 104 1087 q 164 1120 139 1120 q 205 1103 188 1120 q 222 1060 222 1087 q 205 1018 222 1035 q 164 1002 188 1002 m 386 1002 q 344 1018 361 1002 q 326 1060 326 1035 q 343 1103 326 1087 q 386 1120 361 1120 q 427 1103 410 1120 q 444 1060 444 1087 q 427 1018 444 1035 q 386 1002 410 1002 m 278 917 q 459 839 404 917 q 515 593 515 762 l 515 431 l 174 431 l 174 289 q 199 149 174 187 q 278 111 224 111 q 334 125 313 111 q 365 179 354 140 q 376 289 376 218 l 376 354 l 515 354 l 515 310 q 459 64 515 141 q 278 -14 404 -14 q 93 64 152 -14 q 35 310 35 142 l 35 593 q 93 839 35 761 q 278 917 152 917 m 376 614 q 365 723 376 684 q 333 777 353 763 q 278 791 313 791 q 199 753 224 791 q 174 614 174 715 l 174 528 l 376 528 l 376 614 z "},"ì":{"ha":208,"x_min":-94,"x_max":301,"o":"m 301 1039 l 288 986 l -94 1088 l -81 1141 l 301 1039 m 35 903 l 174 903 l 174 0 l 35 0 l 35 903 z "},"í":{"ha":208,"x_min":-94,"x_max":301,"o":"m -94 1039 l 288 1141 l 301 1088 l -81 986 l -94 1039 m 35 903 l 174 903 l 174 0 l 35 0 l 35 903 z "},"î":{"ha":208,"x_min":-94,"x_max":301,"o":"m 57 1141 l 154 1141 l 301 986 l 211 986 l 106 1100 l -4 986 l -94 986 l 57 1141 m 35 903 l 174 903 l 174 0 l 35 0 l 35 903 z "},"ï":{"ha":208,"x_min":-66,"x_max":273,"o":"m -7 1002 q -49 1018 -31 1002 q -66 1060 -66 1035 q -49 1103 -66 1087 q -7 1120 -32 1120 q 34 1103 17 1120 q 52 1060 52 1087 q 34 1018 52 1035 q -7 1002 17 1002 m 215 1002 q 173 1018 191 1002 q 155 1060 155 1035 q 173 1103 155 1087 q 215 1120 190 1120 q 256 1103 239 1120 q 273 1060 273 1087 q 256 1018 273 1035 q 215 1002 239 1002 m 35 903 l 174 903 l 174 0 l 35 0 l 35 903 z "},"ð":{"ha":644,"x_min":35,"x_max":610,"o":"m 435 932 q 610 393 610 731 q 534 95 610 203 q 315 -14 458 -14 q 108 83 182 -14 q 35 349 35 180 q 50 470 35 412 q 95 577 65 528 q 177 655 125 626 q 296 684 229 684 q 464 589 404 684 q 319 861 431 751 l 93 721 l 93 799 l 267 905 q 121 990 205 954 l 176 1111 q 387 981 298 1062 l 572 1095 l 572 1017 l 435 932 m 323 118 q 437 176 404 118 q 471 349 471 234 q 427 506 466 460 q 323 551 388 551 q 214 496 254 551 q 174 343 174 441 q 211 173 174 229 q 323 118 248 118 z "},"ñ":{"ha":550,"x_min":35,"x_max":515,"o":"m 192 1086 q 146 1003 146 1086 l 77 1003 q 187 1141 77 1141 q 240 1131 217 1141 q 276 1106 262 1121 q 301 1077 290 1092 q 327 1052 313 1062 q 357 1042 340 1042 q 403 1125 403 1042 l 472 1125 q 361 986 472 986 q 308 996 331 986 q 272 1021 286 1006 q 247 1051 258 1036 q 222 1076 236 1066 q 192 1086 208 1086 m 343 917 q 476 851 437 917 q 515 635 515 785 l 515 0 l 376 0 l 376 656 q 354 758 376 724 q 282 791 332 791 q 200 752 227 791 q 174 648 174 713 l 174 0 l 35 0 l 35 903 l 174 903 l 174 802 q 196 841 183 823 q 230 878 210 859 q 279 906 250 896 q 343 917 308 917 z "},"ò":{"ha":550,"x_min":35,"x_max":515,"o":"m 472 1039 l 458 986 l 77 1088 l 90 1141 l 472 1039 m 35 310 l 35 593 q 92 839 35 761 q 275 917 150 917 q 458 839 401 917 q 515 593 515 761 l 515 310 q 458 64 515 142 q 275 -14 401 -14 q 92 64 149 -14 q 35 310 35 142 m 174 289 q 186 179 174 219 q 219 125 198 140 q 275 111 240 111 q 332 125 311 111 q 365 179 353 140 q 376 289 376 219 l 376 614 q 364 723 376 684 q 331 777 352 763 q 275 791 310 791 q 219 777 240 791 q 186 723 198 763 q 174 614 174 684 l 174 289 z "},"ó":{"ha":550,"x_min":35,"x_max":515,"o":"m 77 1039 l 458 1141 l 472 1088 l 90 986 l 77 1039 m 35 310 l 35 593 q 92 839 35 761 q 275 917 150 917 q 458 839 401 917 q 515 593 515 761 l 515 310 q 458 64 515 142 q 275 -14 401 -14 q 92 64 149 -14 q 35 310 35 142 m 174 289 q 186 179 174 219 q 219 125 198 140 q 275 111 240 111 q 332 125 311 111 q 365 179 353 140 q 376 289 376 219 l 376 614 q 364 723 376 684 q 331 777 352 763 q 275 791 310 791 q 219 777 240 791 q 186 723 198 763 q 174 614 174 684 l 174 289 z "},"ô":{"ha":550,"x_min":35,"x_max":515,"o":"m 228 1141 l 325 1141 l 472 986 l 382 986 l 277 1100 l 167 986 l 77 986 l 228 1141 m 35 310 l 35 593 q 92 839 35 761 q 275 917 150 917 q 458 839 401 917 q 515 593 515 761 l 515 310 q 458 64 515 142 q 275 -14 401 -14 q 92 64 149 -14 q 35 310 35 142 m 174 289 q 186 179 174 219 q 219 125 198 140 q 275 111 240 111 q 332 125 311 111 q 365 179 353 140 q 376 289 376 219 l 376 614 q 364 723 376 684 q 331 777 352 763 q 275 791 310 791 q 219 777 240 791 q 186 723 198 763 q 174 614 174 684 l 174 289 z "},"õ":{"ha":550,"x_min":35,"x_max":515,"o":"m 77 1003 q 187 1141 77 1141 q 240 1131 217 1141 q 276 1106 262 1121 q 301 1077 290 1092 q 327 1052 313 1062 q 357 1042 340 1042 q 403 1125 403 1042 l 472 1125 q 361 986 472 986 q 308 996 331 986 q 272 1021 286 1006 q 247 1051 258 1036 q 222 1076 236 1066 q 192 1086 208 1086 q 146 1003 146 1086 l 77 1003 m 35 310 l 35 593 q 92 839 35 761 q 275 917 150 917 q 458 839 401 917 q 515 593 515 761 l 515 310 q 458 64 515 142 q 275 -14 401 -14 q 92 64 149 -14 q 35 310 35 142 m 174 289 q 186 179 174 219 q 219 125 198 140 q 275 111 240 111 q 332 125 311 111 q 365 179 353 140 q 376 289 376 219 l 376 614 q 364 723 376 684 q 331 777 352 763 q 275 791 310 791 q 219 777 240 791 q 186 723 198 763 q 174 614 174 684 l 174 289 z "},"ö":{"ha":550,"x_min":35,"x_max":515,"o":"m 164 1002 q 122 1018 140 1002 q 104 1060 104 1035 q 122 1103 104 1087 q 164 1120 139 1120 q 205 1103 188 1120 q 222 1060 222 1087 q 205 1018 222 1035 q 164 1002 188 1002 m 386 1002 q 344 1018 361 1002 q 326 1060 326 1035 q 343 1103 326 1087 q 386 1120 361 1120 q 427 1103 410 1120 q 444 1060 444 1087 q 427 1018 444 1035 q 386 1002 410 1002 m 35 310 l 35 593 q 92 839 35 761 q 275 917 150 917 q 458 839 401 917 q 515 593 515 761 l 515 310 q 458 64 515 142 q 275 -14 401 -14 q 92 64 149 -14 q 35 310 35 142 m 174 289 q 186 179 174 219 q 219 125 198 140 q 275 111 240 111 q 332 125 311 111 q 365 179 353 140 q 376 289 376 219 l 376 614 q 364 723 376 684 q 331 777 352 763 q 275 791 310 791 q 219 777 240 791 q 186 723 198 763 q 174 614 174 684 l 174 289 z "},"÷":{"ha":639,"x_min":35,"x_max":604,"o":"m 319 576 q 290 588 302 576 q 278 618 278 600 q 290 647 278 635 q 319 660 302 660 q 349 647 336 660 q 361 618 361 635 q 349 588 361 600 q 319 576 336 576 m 35 493 l 604 493 l 604 424 l 35 424 l 35 493 m 319 257 q 290 269 302 257 q 278 298 278 281 q 290 328 278 315 q 319 340 302 340 q 349 328 336 340 q 361 298 361 315 q 349 269 361 281 q 319 257 336 257 z "},"ø":{"ha":550,"x_min":31,"x_max":517,"o":"m 517 1021 l 453 844 q 514 593 514 766 l 514 310 q 457 64 514 142 q 273 -14 399 -14 q 151 12 198 -14 l 104 -118 l 31 -118 l 94 58 q 33 310 33 136 l 33 593 q 91 839 33 761 q 273 917 148 917 q 396 890 348 917 l 443 1021 l 517 1021 m 172 289 l 172 273 l 347 758 q 273 791 325 791 q 217 777 238 791 q 184 723 196 763 q 172 614 172 684 l 172 289 m 375 614 l 375 629 l 199 144 q 273 111 223 111 q 330 125 309 111 q 363 179 351 140 q 375 289 375 219 l 375 614 z "},"ù":{"ha":550,"x_min":35,"x_max":529,"o":"m 472 1039 l 458 986 l 77 1088 l 90 1141 l 472 1039 m 515 134 q 516 81 515 98 q 519 43 516 65 q 529 0 522 22 l 404 0 q 383 45 390 14 q 376 102 376 77 q 354 62 367 81 q 320 26 340 44 q 271 -3 300 7 q 207 -14 242 -14 q 74 53 113 -14 q 35 268 35 119 l 35 903 l 174 903 l 174 248 q 196 145 174 180 q 268 111 218 111 q 350 151 323 111 q 376 254 376 190 l 376 903 l 515 903 l 515 134 z "},"ú":{"ha":550,"x_min":35,"x_max":529,"o":"m 472 1088 l 90 986 l 77 1039 l 458 1141 l 472 1088 m 515 134 q 516 81 515 98 q 519 43 516 65 q 529 0 522 22 l 404 0 q 383 45 390 14 q 376 102 376 77 q 354 62 367 81 q 320 26 340 44 q 271 -3 300 7 q 207 -14 242 -14 q 74 53 113 -14 q 35 268 35 119 l 35 903 l 174 903 l 174 248 q 196 145 174 180 q 268 111 218 111 q 350 151 323 111 q 376 254 376 190 l 376 903 l 515 903 l 515 134 z "},"û":{"ha":550,"x_min":35,"x_max":529,"o":"m 277 1100 l 167 986 l 77 986 l 228 1141 l 325 1141 l 472 986 l 382 986 l 277 1100 m 515 134 q 516 81 515 98 q 519 43 516 65 q 529 0 522 22 l 404 0 q 383 45 390 14 q 376 102 376 77 q 354 62 367 81 q 320 26 340 44 q 271 -3 300 7 q 207 -14 242 -14 q 74 53 113 -14 q 35 268 35 119 l 35 903 l 174 903 l 174 248 q 196 145 174 180 q 268 111 218 111 q 350 151 323 111 q 376 254 376 190 l 376 903 l 515 903 l 515 134 z "},"ü":{"ha":550,"x_min":35,"x_max":529,"o":"m 164 1002 q 122 1018 140 1002 q 104 1060 104 1035 q 122 1103 104 1087 q 164 1120 139 1120 q 205 1103 188 1120 q 222 1060 222 1087 q 205 1018 222 1035 q 164 1002 188 1002 m 386 1002 q 344 1018 361 1002 q 326 1060 326 1035 q 343 1103 326 1087 q 386 1120 361 1120 q 427 1103 410 1120 q 444 1060 444 1087 q 427 1018 444 1035 q 386 1002 410 1002 m 515 134 q 516 81 515 98 q 519 43 516 65 q 529 0 522 22 l 404 0 q 383 45 390 14 q 376 102 376 77 q 354 62 367 81 q 320 26 340 44 q 271 -3 300 7 q 207 -14 242 -14 q 74 53 113 -14 q 35 268 35 119 l 35 903 l 174 903 l 174 248 q 196 145 174 180 q 268 111 218 111 q 350 151 323 111 q 376 254 376 190 l 376 903 l 515 903 l 515 134 z "},"ý":{"ha":550,"x_min":35,"x_max":515,"o":"m 472 1088 l 90 986 l 77 1039 l 458 1141 l 472 1088 m 376 903 l 515 903 l 515 25 q 510 -85 515 -40 q 489 -169 504 -130 q 446 -230 473 -208 q 374 -266 418 -253 q 268 -278 330 -278 l 69 -278 l 69 -153 l 248 -153 q 349 -112 321 -153 q 376 25 376 -71 l 376 102 q 354 62 367 81 q 320 26 340 44 q 271 -3 300 7 q 207 -14 242 -14 q 74 53 113 -14 q 35 268 35 119 l 35 903 l 174 903 l 174 248 q 196 145 174 180 q 268 111 218 111 q 350 151 323 111 q 376 254 376 190 l 376 903 z "},"þ":{"ha":550,"x_min":35,"x_max":515,"o":"m 343 917 q 476 851 437 917 q 515 635 515 785 l 515 268 q 476 53 515 119 q 343 -14 437 -14 q 279 -3 308 -14 q 230 26 250 7 q 196 62 210 44 q 174 102 183 81 l 174 -278 l 35 -278 l 35 1111 l 174 1111 l 174 802 q 196 841 183 823 q 230 878 210 859 q 279 906 250 896 q 343 917 308 917 m 376 248 l 376 656 q 354 758 376 724 q 282 791 332 791 q 200 752 227 791 q 174 648 174 713 l 174 254 q 200 151 174 190 q 282 111 227 111 q 354 145 332 111 q 376 248 376 180 z "},"ÿ":{"ha":550,"x_min":35,"x_max":515,"o":"m 164 1002 q 122 1018 140 1002 q 104 1060 104 1035 q 122 1103 104 1087 q 164 1120 139 1120 q 205 1103 188 1120 q 222 1060 222 1087 q 205 1018 222 1035 q 164 1002 188 1002 m 386 1002 q 344 1018 361 1002 q 326 1060 326 1035 q 343 1103 326 1087 q 386 1120 361 1120 q 427 1103 410 1120 q 444 1060 444 1087 q 427 1018 444 1035 q 386 1002 410 1002 m 376 903 l 515 903 l 515 25 q 510 -85 515 -40 q 489 -169 504 -130 q 446 -230 473 -208 q 374 -266 418 -253 q 268 -278 330 -278 l 69 -278 l 69 -153 l 248 -153 q 349 -112 321 -153 q 376 25 376 -71 l 376 102 q 354 62 367 81 q 320 26 340 44 q 271 -3 300 7 q 207 -14 242 -14 q 74 53 113 -14 q 35 268 35 119 l 35 903 l 174 903 l 174 248 q 196 145 174 180 q 268 111 218 111 q 350 151 323 111 q 376 254 376 190 l 376 903 z "},"Ā":{"ha":585,"x_min":35,"x_max":550,"o":"m 490 1300 l 490 1244 l 94 1244 l 94 1300 l 490 1300 m 411 0 l 383 224 l 201 224 l 174 0 l 35 0 l 196 1111 l 390 1111 l 550 0 l 411 0 m 218 363 l 367 363 l 293 970 l 218 363 z "},"ā":{"ha":577,"x_min":35,"x_max":543,"o":"m 486 1092 l 486 1036 l 90 1036 l 90 1092 l 486 1092 m 529 132 q 543 0 529 57 l 418 0 q 397 48 404 19 q 390 102 390 78 q 218 -14 341 -14 q 85 44 136 -14 q 35 214 35 102 q 54 329 35 277 q 105 413 74 380 q 174 472 136 446 q 250 520 212 499 q 319 563 288 542 q 370 613 351 585 q 390 677 390 642 q 297 791 390 791 q 221 757 246 791 q 196 648 196 723 l 196 614 l 57 614 l 57 635 q 69 750 57 701 q 108 839 81 800 q 182 897 135 877 q 297 917 230 917 q 390 904 349 917 q 456 867 430 890 q 499 809 482 844 q 522 735 515 774 q 529 648 529 696 l 529 132 m 390 212 l 390 500 q 354 457 380 479 q 298 415 328 435 q 240 371 269 395 q 192 311 211 347 q 174 233 174 275 q 198 144 174 177 q 273 111 222 111 q 321 123 299 111 q 357 152 344 135 q 379 185 371 170 q 390 212 387 200 z "},"Ă":{"ha":585,"x_min":35,"x_max":550,"o":"m 366 1202 q 350 1198 366 1202 q 294 1194 333 1194 q 222 1202 256 1194 q 158 1227 188 1210 q 112 1275 129 1244 q 94 1350 94 1307 l 164 1350 q 177 1301 164 1322 q 210 1270 190 1280 q 252 1255 231 1259 q 294 1250 273 1250 q 336 1255 316 1250 q 377 1270 357 1259 q 409 1301 397 1280 q 421 1350 421 1322 l 490 1350 q 474 1275 490 1307 q 428 1227 457 1244 q 366 1202 399 1210 m 411 0 l 383 224 l 201 224 l 174 0 l 35 0 l 196 1111 l 390 1111 l 550 0 l 411 0 m 218 363 l 367 363 l 293 970 l 218 363 z "},"ă":{"ha":577,"x_min":35,"x_max":543,"o":"m 290 986 q 217 994 251 986 q 154 1018 184 1001 q 107 1066 125 1035 q 90 1141 90 1098 l 160 1141 q 173 1093 160 1114 q 207 1062 186 1072 q 248 1046 227 1051 q 290 1042 269 1042 q 332 1046 312 1042 q 372 1062 353 1051 q 404 1093 392 1072 q 416 1141 416 1113 l 486 1141 q 470 1066 486 1098 q 424 1018 453 1035 q 362 994 395 1001 q 290 986 329 986 m 529 132 q 543 0 529 57 l 418 0 q 397 48 404 19 q 390 102 390 78 q 218 -14 341 -14 q 85 44 136 -14 q 35 214 35 102 q 54 329 35 277 q 105 413 74 380 q 174 472 136 446 q 250 520 212 499 q 319 563 288 542 q 370 613 351 585 q 390 677 390 642 q 297 791 390 791 q 221 757 246 791 q 196 648 196 723 l 196 614 l 57 614 l 57 635 q 69 750 57 701 q 108 839 81 800 q 182 897 135 877 q 297 917 230 917 q 390 904 349 917 q 456 867 430 890 q 499 809 482 844 q 522 735 515 774 q 529 648 529 696 l 529 132 m 390 212 l 390 500 q 354 457 380 479 q 298 415 328 435 q 240 371 269 395 q 192 311 211 347 q 174 233 174 275 q 198 144 174 177 q 273 111 222 111 q 321 123 299 111 q 357 152 344 135 q 379 185 371 170 q 390 212 387 200 z "},"Ą":{"ha":585,"x_min":35,"x_max":567,"o":"m 386 -132 q 427 -199 386 -176 q 567 -225 467 -222 l 511 -281 q 451 -278 478 -281 q 392 -268 424 -276 q 339 -245 361 -260 q 303 -205 318 -231 q 289 -144 289 -180 q 447 0 289 -37 l 411 0 l 383 224 l 201 224 l 174 0 l 35 0 l 196 1111 l 390 1111 l 549 7 l 553 7 q 551 6 552 7 q 549 5 549 5 l 550 0 l 534 0 q 421 -61 456 -31 q 386 -132 386 -92 m 218 363 l 367 363 l 293 970 l 218 363 z "},"ą":{"ha":577,"x_min":35,"x_max":557,"o":"m 376 -139 q 417 -206 376 -183 q 557 -232 457 -229 l 501 -288 q 451 -286 474 -288 q 401 -279 429 -284 q 354 -265 374 -275 q 316 -241 334 -255 q 289 -203 298 -227 q 279 -151 279 -180 q 296 -90 279 -117 q 341 -46 312 -63 q 402 -17 370 -28 q 473 0 435 -6 l 418 0 q 397 48 404 19 q 390 102 390 78 q 218 -14 341 -14 q 85 44 136 -14 q 35 214 35 102 q 54 329 35 277 q 105 413 74 380 q 174 472 136 446 q 250 520 212 499 q 319 563 288 542 q 370 613 351 585 q 390 677 390 642 q 297 791 390 791 q 221 757 246 791 q 196 648 196 723 l 196 614 l 57 614 l 57 635 q 69 750 57 701 q 108 839 81 800 q 182 897 135 877 q 297 917 230 917 q 390 904 349 917 q 456 867 430 890 q 499 809 482 844 q 522 735 515 774 q 529 648 529 696 l 529 132 q 543 0 529 57 q 416 -65 455 -33 q 376 -139 376 -97 m 390 212 l 390 500 q 354 457 380 479 q 298 415 328 435 q 240 371 269 395 q 192 311 211 347 q 174 233 174 275 q 198 144 174 177 q 273 111 222 111 q 321 123 299 111 q 357 152 344 135 q 379 185 371 170 q 390 212 387 200 z "},"Ć":{"ha":550,"x_min":35,"x_max":515,"o":"m 77 1247 l 458 1350 l 472 1296 l 90 1194 l 77 1247 m 376 660 l 376 815 q 356 950 376 913 q 275 986 335 986 q 195 950 216 986 q 174 815 174 913 l 174 296 q 195 161 174 197 q 275 125 216 125 q 356 161 335 125 q 376 296 376 197 l 376 452 l 515 452 l 515 296 q 457 59 515 131 q 275 -14 399 -14 q 93 59 152 -14 q 35 296 35 131 l 35 815 q 93 1053 35 980 q 275 1125 152 1125 q 457 1053 399 1125 q 515 815 515 980 l 515 660 l 376 660 z "},"ć":{"ha":550,"x_min":35,"x_max":515,"o":"m 77 1039 l 458 1141 l 472 1088 l 90 986 l 77 1039 m 376 549 l 376 614 q 365 723 376 684 q 333 777 353 763 q 278 791 313 791 q 199 753 224 791 q 174 614 174 715 l 174 289 q 199 149 174 187 q 278 111 224 111 q 334 125 313 111 q 365 179 354 140 q 376 289 376 218 l 376 354 l 515 354 l 515 310 q 459 64 515 141 q 278 -14 404 -14 q 93 64 152 -14 q 35 310 35 142 l 35 593 q 93 839 35 761 q 278 917 152 917 q 459 839 404 917 q 515 593 515 762 l 515 549 l 376 549 z "},"Ċ":{"ha":550,"x_min":35,"x_max":515,"o":"m 275 1210 q 234 1226 251 1210 q 216 1268 216 1243 q 233 1312 216 1295 q 275 1328 250 1328 q 317 1312 300 1328 q 335 1268 335 1295 q 317 1226 335 1243 q 275 1210 299 1210 m 376 660 l 376 815 q 356 950 376 913 q 275 986 335 986 q 195 950 216 986 q 174 815 174 913 l 174 296 q 195 161 174 197 q 275 125 216 125 q 356 161 335 125 q 376 296 376 197 l 376 452 l 515 452 l 515 296 q 457 59 515 131 q 275 -14 399 -14 q 93 59 152 -14 q 35 296 35 131 l 35 815 q 93 1053 35 980 q 275 1125 152 1125 q 457 1053 399 1125 q 515 815 515 980 l 515 660 l 376 660 z "},"ċ":{"ha":550,"x_min":35,"x_max":515,"o":"m 275 1002 q 234 1018 251 1002 q 216 1060 216 1035 q 233 1103 216 1087 q 275 1120 250 1120 q 317 1103 300 1120 q 335 1060 335 1087 q 317 1018 335 1035 q 275 1002 299 1002 m 376 549 l 376 614 q 365 723 376 684 q 333 777 353 763 q 278 791 313 791 q 199 753 224 791 q 174 614 174 715 l 174 289 q 199 149 174 187 q 278 111 224 111 q 334 125 313 111 q 365 179 354 140 q 376 289 376 218 l 376 354 l 515 354 l 515 310 q 459 64 515 141 q 278 -14 404 -14 q 93 64 152 -14 q 35 310 35 142 l 35 593 q 93 839 35 761 q 278 917 152 917 q 459 839 404 917 q 515 593 515 762 l 515 549 l 376 549 z "},"Č":{"ha":550,"x_min":35,"x_max":515,"o":"m 228 1194 l 77 1350 l 167 1350 l 277 1236 l 382 1350 l 472 1350 l 325 1194 l 228 1194 m 376 660 l 376 815 q 356 950 376 913 q 275 986 335 986 q 195 950 216 986 q 174 815 174 913 l 174 296 q 195 161 174 197 q 275 125 216 125 q 356 161 335 125 q 376 296 376 197 l 376 452 l 515 452 l 515 296 q 457 59 515 131 q 275 -14 399 -14 q 93 59 152 -14 q 35 296 35 131 l 35 815 q 93 1053 35 980 q 275 1125 152 1125 q 457 1053 399 1125 q 515 815 515 980 l 515 660 l 376 660 z "},"č":{"ha":550,"x_min":35,"x_max":515,"o":"m 228 986 l 77 1141 l 167 1141 l 277 1028 l 382 1141 l 472 1141 l 325 986 l 228 986 m 376 549 l 376 614 q 365 723 376 684 q 333 777 353 763 q 278 791 313 791 q 199 753 224 791 q 174 614 174 715 l 174 289 q 199 149 174 187 q 278 111 224 111 q 334 125 313 111 q 365 179 354 140 q 376 289 376 218 l 376 354 l 515 354 l 515 310 q 459 64 515 141 q 278 -14 404 -14 q 93 64 152 -14 q 35 310 35 142 l 35 593 q 93 839 35 761 q 278 917 152 917 q 459 839 404 917 q 515 593 515 762 l 515 549 l 376 549 z "},"Ď":{"ha":553,"x_min":35,"x_max":518,"o":"m 326 1194 l 229 1194 l 78 1350 l 168 1350 l 278 1236 l 383 1350 l 473 1350 l 326 1194 m 201 1111 q 303 1106 260 1111 q 383 1088 346 1101 q 444 1054 420 1076 q 485 1000 468 1033 q 510 921 503 966 q 518 815 518 876 l 518 296 q 506 173 518 224 q 471 88 494 122 q 409 35 448 54 q 321 8 370 16 q 201 0 272 0 l 35 0 l 35 1111 l 201 1111 m 201 139 q 287 144 256 139 q 341 166 318 149 q 371 214 363 183 q 379 296 379 244 l 379 815 q 376 874 379 850 q 363 917 372 899 q 341 945 354 935 q 308 962 329 956 q 262 970 286 968 q 201 972 238 972 l 174 972 l 174 139 l 201 139 z "},"ď":{"ha":737,"x_min":35,"x_max":737,"o":"m 668 1125 l 737 1125 l 682 778 l 627 778 l 668 1125 m 515 1111 l 515 134 q 516 81 515 98 q 519 43 516 65 q 529 0 522 22 l 404 0 q 383 45 390 14 q 376 102 376 77 q 354 62 367 81 q 320 26 340 44 q 271 -3 300 7 q 207 -14 242 -14 q 74 53 113 -14 q 35 268 35 119 l 35 635 q 74 851 35 785 q 207 917 113 917 q 271 906 242 917 q 320 878 300 896 q 354 841 340 859 q 376 802 367 823 l 376 1111 l 515 1111 m 376 254 l 376 648 q 350 752 376 713 q 268 791 323 791 q 196 758 218 791 q 174 656 174 724 l 174 248 q 196 145 174 180 q 268 111 218 111 q 350 151 323 111 q 376 254 376 190 z "},"Đ":{"ha":633,"x_min":0,"x_max":599,"o":"m 282 1111 q 384 1106 340 1111 q 464 1088 427 1101 q 525 1054 500 1076 q 566 1000 549 1033 q 591 921 583 966 q 599 815 599 876 l 599 296 q 587 173 599 224 q 552 88 575 122 q 490 35 529 54 q 401 8 450 16 q 282 0 353 0 l 115 0 l 115 528 l 0 528 l 0 583 l 115 583 l 115 1111 l 282 1111 m 282 139 q 368 144 337 139 q 421 166 399 149 q 452 214 444 183 q 460 296 460 244 l 460 815 q 456 874 460 850 q 444 917 453 899 q 422 945 435 935 q 388 962 410 956 q 343 970 367 968 q 282 972 319 972 l 254 972 l 254 583 l 396 583 l 396 528 l 254 528 l 254 139 l 282 139 z "},"đ":{"ha":557,"x_min":35,"x_max":632,"o":"m 632 965 l 515 965 l 515 134 q 516 81 515 98 q 519 43 516 65 q 529 0 522 22 l 404 0 q 383 45 390 14 q 376 102 376 77 q 354 62 367 81 q 320 26 340 44 q 271 -3 300 7 q 207 -14 242 -14 q 74 53 113 -14 q 35 268 35 119 l 35 635 q 74 851 35 785 q 207 917 113 917 q 271 906 242 917 q 320 878 300 896 q 354 841 340 859 q 376 802 367 823 l 376 965 l 236 965 l 236 1021 l 376 1021 l 376 1111 l 515 1111 l 515 1021 l 632 1021 l 632 965 m 376 254 l 376 648 q 350 752 376 713 q 268 791 323 791 q 196 758 218 791 q 174 656 174 724 l 174 248 q 196 145 174 180 q 268 111 218 111 q 350 151 323 111 q 376 254 376 190 z "},"Ē":{"ha":423,"x_min":14,"x_max":410,"o":"m 14 1300 l 410 1300 l 410 1244 l 14 1244 l 14 1300 m 389 1111 l 389 972 l 174 972 l 174 625 l 389 625 l 389 486 l 174 486 l 174 139 l 389 139 l 389 0 l 35 0 l 35 1111 l 389 1111 z "},"ē":{"ha":550,"x_min":35,"x_max":515,"o":"m 472 1092 l 472 1036 l 77 1036 l 77 1092 l 472 1092 m 278 917 q 459 839 404 917 q 515 593 515 762 l 515 431 l 174 431 l 174 289 q 199 149 174 187 q 278 111 224 111 q 334 125 313 111 q 365 179 354 140 q 376 289 376 218 l 376 354 l 515 354 l 515 310 q 459 64 515 141 q 278 -14 404 -14 q 93 64 152 -14 q 35 310 35 142 l 35 593 q 93 839 35 761 q 278 917 152 917 m 376 614 q 365 723 376 684 q 333 777 353 763 q 278 791 313 791 q 199 753 224 791 q 174 614 174 715 l 174 528 l 376 528 l 376 614 z "},"Ė":{"ha":423,"x_min":35,"x_max":389,"o":"m 212 1210 q 171 1226 188 1210 q 154 1268 154 1242 q 171 1312 154 1295 q 212 1328 188 1328 q 254 1312 237 1328 q 272 1268 272 1295 q 254 1226 272 1243 q 212 1210 236 1210 m 389 972 l 174 972 l 174 625 l 389 625 l 389 486 l 174 486 l 174 139 l 389 139 l 389 0 l 35 0 l 35 1111 l 389 1111 l 389 972 z "},"ė":{"ha":550,"x_min":35,"x_max":515,"o":"m 275 1002 q 234 1018 251 1002 q 216 1060 216 1035 q 233 1103 216 1087 q 275 1120 250 1120 q 317 1103 300 1120 q 335 1060 335 1087 q 317 1018 335 1035 q 275 1002 299 1002 m 278 917 q 459 839 404 917 q 515 593 515 762 l 515 431 l 174 431 l 174 289 q 199 149 174 187 q 278 111 224 111 q 334 125 313 111 q 365 179 354 140 q 376 289 376 218 l 376 354 l 515 354 l 515 310 q 459 64 515 141 q 278 -14 404 -14 q 93 64 152 -14 q 35 310 35 142 l 35 593 q 93 839 35 761 q 278 917 152 917 m 376 614 q 365 723 376 684 q 333 777 353 763 q 278 791 313 791 q 199 753 224 791 q 174 614 174 715 l 174 528 l 376 528 l 376 614 z "},"Ę":{"ha":423,"x_min":35,"x_max":403,"o":"m 222 -139 q 263 -206 222 -183 q 403 -232 303 -229 l 347 -288 q 287 -285 314 -288 q 228 -275 260 -283 q 175 -252 197 -267 q 139 -212 154 -238 q 125 -151 125 -186 q 141 -90 125 -117 q 187 -46 158 -63 q 248 -17 216 -28 q 319 0 281 -6 l 35 0 l 35 1111 l 389 1111 l 389 972 l 174 972 l 174 625 l 389 625 l 389 486 l 174 486 l 174 139 l 389 139 l 389 0 q 261 -65 300 -33 q 222 -139 222 -97 z "},"ę":{"ha":550,"x_min":35,"x_max":515,"o":"m 278 917 q 459 839 404 917 q 515 593 515 762 l 515 431 l 174 431 l 174 289 q 199 149 174 187 q 278 111 224 111 q 334 125 313 111 q 365 179 354 140 q 376 289 376 218 l 376 354 l 515 354 l 515 310 q 477 93 515 170 q 354 -5 438 16 q 238 -67 274 -36 q 201 -139 201 -98 q 242 -206 201 -183 q 382 -232 282 -229 l 326 -288 q 276 -286 299 -288 q 227 -279 254 -284 q 179 -265 199 -275 q 141 -241 159 -255 q 114 -203 123 -227 q 104 -151 104 -180 q 243 -12 104 -51 q 85 76 135 -2 q 35 310 35 154 l 35 593 q 93 839 35 761 q 278 917 152 917 m 376 614 q 365 723 376 684 q 333 777 353 763 q 278 791 313 791 q 199 753 224 791 q 174 614 174 715 l 174 528 l 376 528 l 376 614 z "},"Ě":{"ha":423,"x_min":14,"x_max":410,"o":"m 262 1194 l 165 1194 l 14 1350 l 104 1350 l 214 1236 l 319 1350 l 410 1350 l 262 1194 m 389 1111 l 389 972 l 174 972 l 174 625 l 389 625 l 389 486 l 174 486 l 174 139 l 389 139 l 389 0 l 35 0 l 35 1111 l 389 1111 z "},"ě":{"ha":550,"x_min":35,"x_max":515,"o":"m 325 986 l 228 986 l 77 1141 l 167 1141 l 277 1028 l 382 1141 l 472 1141 l 325 986 m 278 917 q 459 839 404 917 q 515 593 515 762 l 515 431 l 174 431 l 174 289 q 199 149 174 187 q 278 111 224 111 q 334 125 313 111 q 365 179 354 140 q 376 289 376 218 l 376 354 l 515 354 l 515 310 q 459 64 515 141 q 278 -14 404 -14 q 93 64 152 -14 q 35 310 35 142 l 35 593 q 93 839 35 761 q 278 917 152 917 m 376 614 q 365 723 376 684 q 333 777 353 763 q 278 791 313 791 q 199 753 224 791 q 174 614 174 715 l 174 528 l 376 528 l 376 614 z "},"Ğ":{"ha":550,"x_min":35,"x_max":515,"o":"m 349 1202 q 332 1198 349 1202 q 277 1194 315 1194 q 204 1202 238 1194 q 141 1227 170 1210 q 94 1275 111 1244 q 77 1350 77 1307 l 146 1350 q 159 1301 146 1322 q 192 1270 172 1280 q 234 1255 213 1259 q 277 1250 255 1250 q 319 1255 298 1250 q 359 1270 339 1259 q 391 1301 378 1280 q 403 1350 403 1322 l 472 1350 q 455 1275 472 1307 q 410 1227 439 1244 q 349 1202 382 1210 m 515 692 l 376 692 l 376 815 q 356 950 376 913 q 275 986 335 986 q 195 950 216 986 q 174 815 174 913 l 174 296 q 195 161 174 197 q 275 125 216 125 q 356 161 335 125 q 376 296 376 197 l 376 428 l 275 428 l 275 567 l 515 567 l 515 0 l 447 0 l 429 82 q 253 -14 362 -14 q 89 61 142 -14 q 35 296 35 135 l 35 815 q 94 1050 35 976 q 275 1125 153 1125 q 456 1050 397 1125 q 515 815 515 976 l 515 692 z "},"ğ":{"ha":550,"x_min":35,"x_max":515,"o":"m 277 986 q 204 994 237 986 q 141 1018 170 1001 q 94 1066 111 1035 q 77 1141 77 1098 l 146 1141 q 159 1093 146 1114 q 192 1062 172 1072 q 234 1046 213 1051 q 277 1042 255 1042 q 319 1046 298 1042 q 359 1062 339 1051 q 391 1093 378 1072 q 403 1141 403 1113 l 472 1141 q 455 1066 472 1098 q 410 1018 439 1035 q 349 994 382 1001 q 277 986 315 986 m 376 903 l 515 903 l 515 25 q 510 -85 515 -40 q 489 -169 504 -130 q 446 -230 473 -208 q 374 -266 418 -253 q 268 -278 330 -278 l 69 -278 l 69 -153 l 248 -153 q 349 -112 321 -153 q 376 25 376 -71 l 376 102 q 354 62 367 81 q 320 26 340 44 q 271 -3 300 7 q 207 -14 242 -14 q 74 53 113 -14 q 35 268 35 119 l 35 635 q 74 851 35 785 q 207 917 113 917 q 271 906 242 917 q 320 878 300 896 q 354 841 340 859 q 376 802 367 823 l 376 903 m 268 111 q 350 151 323 111 q 376 254 376 190 l 376 648 q 350 752 376 713 q 268 791 323 791 q 196 758 218 791 q 174 656 174 724 l 174 248 q 196 145 174 180 q 268 111 218 111 z "},"Ġ":{"ha":550,"x_min":35,"x_max":515,"o":"m 275 1210 q 234 1226 251 1210 q 216 1268 216 1243 q 233 1312 216 1295 q 275 1328 250 1328 q 317 1312 300 1328 q 335 1268 335 1295 q 317 1226 335 1243 q 275 1210 299 1210 m 515 692 l 376 692 l 376 815 q 356 950 376 913 q 275 986 335 986 q 195 950 216 986 q 174 815 174 913 l 174 296 q 195 161 174 197 q 275 125 216 125 q 356 161 335 125 q 376 296 376 197 l 376 428 l 275 428 l 275 567 l 515 567 l 515 0 l 447 0 l 429 82 q 253 -14 362 -14 q 89 61 142 -14 q 35 296 35 135 l 35 815 q 94 1050 35 976 q 275 1125 153 1125 q 456 1050 397 1125 q 515 815 515 976 l 515 692 z "},"ġ":{"ha":550,"x_min":35,"x_max":515,"o":"m 275 1002 q 234 1018 251 1002 q 216 1060 216 1035 q 233 1103 216 1087 q 275 1120 250 1120 q 317 1103 300 1120 q 335 1060 335 1087 q 317 1018 335 1035 q 275 1002 299 1002 m 376 903 l 515 903 l 515 25 q 510 -85 515 -40 q 489 -169 504 -130 q 446 -230 473 -208 q 374 -266 418 -253 q 268 -278 330 -278 l 69 -278 l 69 -153 l 248 -153 q 349 -112 321 -153 q 376 25 376 -71 l 376 102 q 354 62 367 81 q 320 26 340 44 q 271 -3 300 7 q 207 -14 242 -14 q 74 53 113 -14 q 35 268 35 119 l 35 635 q 74 851 35 785 q 207 917 113 917 q 271 906 242 917 q 320 878 300 896 q 354 841 340 859 q 376 802 367 823 l 376 903 m 268 111 q 350 151 323 111 q 376 254 376 190 l 376 648 q 350 752 376 713 q 268 791 323 791 q 196 758 218 791 q 174 656 174 724 l 174 248 q 196 145 174 180 q 268 111 218 111 z "},"Ģ":{"ha":550,"x_min":35,"x_max":515,"o":"m 515 692 l 376 692 l 376 815 q 356 950 376 913 q 275 986 335 986 q 195 950 216 986 q 174 815 174 913 l 174 296 q 195 161 174 197 q 275 125 216 125 q 356 161 335 125 q 376 296 376 197 l 376 428 l 275 428 l 275 567 l 515 567 l 515 0 l 447 0 l 429 82 q 253 -14 362 -14 q 89 61 142 -14 q 35 296 35 135 l 35 815 q 94 1050 35 976 q 275 1125 153 1125 q 456 1050 397 1125 q 515 815 515 976 l 515 692 m 279 -72 q 325 -90 307 -72 q 343 -143 343 -109 q 232 -309 343 -254 l 232 -248 q 281 -193 273 -229 q 232 -182 251 -198 q 214 -138 214 -166 q 233 -91 214 -110 q 279 -72 252 -72 z "},"ģ":{"ha":550,"x_min":35,"x_max":515,"o":"m 278 986 q 228 1009 244 986 q 211 1071 211 1032 q 237 1148 211 1109 q 322 1208 262 1187 l 322 1147 q 273 1093 281 1128 q 322 1094 303 1107 q 340 1051 340 1081 q 323 1004 340 1023 q 278 986 306 986 m 376 903 l 515 903 l 515 25 q 510 -85 515 -40 q 489 -169 504 -130 q 446 -230 473 -208 q 374 -266 418 -253 q 268 -278 330 -278 l 69 -278 l 69 -153 l 248 -153 q 349 -112 321 -153 q 376 25 376 -71 l 376 102 q 354 62 367 81 q 320 26 340 44 q 271 -3 300 7 q 207 -14 242 -14 q 74 53 113 -14 q 35 268 35 119 l 35 635 q 74 851 35 785 q 207 917 113 917 q 271 906 242 917 q 320 878 300 896 q 354 841 340 859 q 376 802 367 823 l 376 903 m 268 111 q 350 151 323 111 q 376 254 376 190 l 376 648 q 350 752 376 713 q 268 791 323 791 q 196 758 218 791 q 174 656 174 724 l 174 248 q 196 145 174 180 q 268 111 218 111 z "},"Ħ":{"ha":673,"x_min":0,"x_max":673,"o":"m 673 1021 l 673 965 l 590 965 l 590 0 l 452 0 l 452 486 l 224 486 l 224 0 l 85 0 l 85 965 l 0 965 l 0 1021 l 85 1021 l 85 1111 l 224 1111 l 224 1021 l 452 1021 l 452 1111 l 590 1111 l 590 1021 l 673 1021 m 452 625 l 452 965 l 224 965 l 224 625 l 452 625 z "},"ħ":{"ha":550,"x_min":-81,"x_max":515,"o":"m 343 917 q 476 851 437 917 q 515 635 515 785 l 515 0 l 376 0 l 376 656 q 354 758 376 724 q 282 791 332 791 q 200 752 227 791 q 174 648 174 713 l 174 0 l 35 0 l 35 965 l -81 965 l -81 1021 l 35 1021 l 35 1111 l 174 1111 l 174 1021 l 315 1021 l 315 965 l 174 965 l 174 802 q 196 841 183 823 q 230 878 210 859 q 279 906 250 896 q 343 917 308 917 z "},"Ī":{"ha":208,"x_min":-94,"x_max":301,"o":"m -94 1300 l 301 1300 l 301 1244 l -94 1244 l -94 1300 m 35 1111 l 174 1111 l 174 0 l 35 0 l 35 1111 z "},"ī":{"ha":208,"x_min":-94,"x_max":301,"o":"m -94 1092 l 301 1092 l 301 1036 l -94 1036 l -94 1092 m 35 903 l 174 903 l 174 0 l 35 0 l 35 903 z "},"Į":{"ha":208,"x_min":-90,"x_max":187,"o":"m 7 -139 q 47 -206 7 -183 q 187 -232 87 -229 l 132 -288 q 72 -285 99 -288 q 13 -275 45 -283 q -40 -252 -18 -267 q -76 -212 -61 -238 q -90 -151 -90 -186 q -74 -90 -90 -117 q -28 -46 -57 -63 q 33 -17 1 -28 q 104 0 66 -6 l 35 0 l 35 1111 l 174 1111 l 174 0 q 46 -65 85 -33 q 7 -139 7 -97 z "},"į":{"ha":208,"x_min":-90,"x_max":187,"o":"m 104 1002 q 63 1018 80 1002 q 46 1060 46 1034 q 63 1103 46 1087 q 104 1120 80 1120 q 146 1103 129 1120 q 164 1060 164 1087 q 146 1018 164 1035 q 104 1002 128 1002 m 7 -139 q 47 -206 7 -183 q 187 -232 87 -229 l 132 -288 q 72 -285 99 -288 q 13 -275 45 -283 q -40 -252 -18 -267 q -76 -212 -61 -238 q -90 -151 -90 -186 q -74 -90 -90 -117 q -28 -46 -57 -63 q 33 -17 1 -28 q 104 0 66 -6 l 35 0 l 35 903 l 174 903 l 174 0 q 46 -65 85 -33 q 7 -139 7 -97 z "},"İ":{"ha":208,"x_min":35,"x_max":174,"o":"m 104 1210 q 63 1226 80 1210 q 46 1268 46 1242 q 63 1312 46 1295 q 104 1328 80 1328 q 146 1312 129 1328 q 164 1268 164 1295 q 146 1226 164 1243 q 104 1210 128 1210 m 35 1111 l 174 1111 l 174 0 l 35 0 l 35 1111 z "},"ı":{"ha":208,"x_min":35,"x_max":174,"o":"m 35 903 l 174 903 l 174 0 l 35 0 l 35 903 z "},"Ķ":{"ha":581,"x_min":35,"x_max":546,"o":"m 35 1111 l 174 1111 l 174 0 l 35 0 l 35 1111 m 546 1111 l 317 555 l 546 0 l 400 0 l 174 555 l 400 1111 l 546 1111 m 290 -72 q 336 -90 317 -72 q 354 -143 354 -109 q 243 -309 354 -254 l 243 -248 q 292 -193 284 -229 q 244 -182 262 -198 q 225 -138 225 -166 q 244 -91 225 -110 q 290 -72 262 -72 z "},"ķ":{"ha":581,"x_min":35,"x_max":546,"o":"m 35 1111 l 174 1111 l 174 0 l 35 0 l 35 1111 m 546 903 l 318 452 l 546 0 l 397 0 l 174 452 l 397 903 l 546 903 m 290 -72 q 336 -90 317 -72 q 354 -143 354 -109 q 243 -309 354 -254 l 243 -248 q 292 -193 284 -229 q 244 -182 262 -198 q 225 -138 225 -166 q 244 -91 225 -110 q 290 -72 262 -72 z "},"Ĺ":{"ha":423,"x_min":-77,"x_max":389,"o":"m 306 1350 l 319 1296 l -62 1194 l -77 1247 l 306 1350 m 174 139 l 389 139 l 389 0 l 35 0 l 35 1111 l 174 1111 l 174 139 z "},"ĺ":{"ha":208,"x_min":-94,"x_max":301,"o":"m -94 1247 l 288 1350 l 301 1296 l -81 1194 l -94 1247 m 35 1111 l 174 1111 l 174 0 l 35 0 l 35 1111 z "},"Ļ":{"ha":423,"x_min":35,"x_max":389,"o":"m 174 139 l 389 139 l 389 0 l 35 0 l 35 1111 l 174 1111 l 174 139 m 212 -72 q 258 -90 239 -72 q 277 -143 277 -109 q 165 -309 277 -254 l 165 -248 q 214 -193 206 -229 q 166 -182 184 -198 q 147 -138 147 -166 q 166 -91 147 -110 q 212 -72 184 -72 z "},"ļ":{"ha":208,"x_min":35,"x_max":174,"o":"m 35 1111 l 174 1111 l 174 0 l 35 0 l 35 1111 m 106 -193 q 57 -182 76 -198 q 39 -138 39 -166 q 58 -91 39 -110 q 104 -72 77 -72 q 150 -90 132 -72 q 168 -143 168 -109 q 57 -309 168 -254 l 57 -248 q 106 -193 98 -229 z "},"Ľ":{"ha":423,"x_min":35,"x_max":396,"o":"m 396 1125 l 340 778 l 285 778 l 326 1125 l 396 1125 m 174 1111 l 174 139 l 389 139 l 389 0 l 35 0 l 35 1111 l 174 1111 z "},"ľ":{"ha":389,"x_min":35,"x_max":410,"o":"m 340 1125 l 410 1125 l 354 778 l 298 778 l 340 1125 m 35 1111 l 174 1111 l 174 0 l 35 0 l 35 1111 z "},"Ł":{"ha":493,"x_min":0,"x_max":458,"o":"m 243 139 l 458 139 l 458 0 l 104 0 l 104 554 l 0 490 l 0 568 l 104 632 l 104 1111 l 243 1111 l 243 718 l 408 821 l 408 743 l 243 640 l 243 139 z "},"ł":{"ha":479,"x_min":0,"x_max":479,"o":"m 479 864 l 479 786 l 296 673 l 296 0 l 157 0 l 157 587 l 0 490 l 0 568 l 157 665 l 157 1111 l 296 1111 l 296 751 l 479 864 z "},"Ń":{"ha":623,"x_min":35,"x_max":589,"o":"m 510 1296 l 127 1194 l 114 1247 l 496 1350 l 510 1296 m 450 1111 l 589 1111 l 589 0 l 450 0 l 174 741 l 174 0 l 35 0 l 35 1111 l 174 1111 l 450 372 l 450 1111 z "},"ń":{"ha":550,"x_min":35,"x_max":515,"o":"m 472 1088 l 90 986 l 77 1039 l 458 1141 l 472 1088 m 343 917 q 476 851 437 917 q 515 635 515 785 l 515 0 l 376 0 l 376 656 q 354 758 376 724 q 282 791 332 791 q 200 752 227 791 q 174 648 174 713 l 174 0 l 35 0 l 35 903 l 174 903 l 174 802 q 196 841 183 823 q 230 878 210 859 q 279 906 250 896 q 343 917 308 917 z "},"Ņ":{"ha":623,"x_min":35,"x_max":589,"o":"m 450 1111 l 589 1111 l 589 0 l 450 0 l 174 741 l 174 0 l 35 0 l 35 1111 l 174 1111 l 450 372 l 450 1111 m 313 -72 q 358 -90 340 -72 q 376 -143 376 -109 q 265 -309 376 -254 l 265 -248 q 314 -193 307 -229 q 266 -182 285 -198 q 248 -138 248 -166 q 266 -91 248 -110 q 313 -72 285 -72 z "},"ņ":{"ha":550,"x_min":35,"x_max":515,"o":"m 343 917 q 476 851 437 917 q 515 635 515 785 l 515 0 l 376 0 l 376 656 q 354 758 376 724 q 282 791 332 791 q 200 752 227 791 q 174 648 174 713 l 174 0 l 35 0 l 35 903 l 174 903 l 174 802 q 196 841 183 823 q 230 878 210 859 q 279 906 250 896 q 343 917 308 917 m 275 -72 q 321 -90 302 -72 q 339 -143 339 -109 q 228 -309 339 -254 l 228 -248 q 277 -193 269 -229 q 228 -182 247 -198 q 210 -138 210 -166 q 229 -91 210 -110 q 275 -72 248 -72 z "},"Ň":{"ha":623,"x_min":35,"x_max":589,"o":"m 363 1194 l 265 1194 l 114 1350 l 204 1350 l 314 1236 l 419 1350 l 510 1350 l 363 1194 m 450 1111 l 589 1111 l 589 0 l 450 0 l 174 741 l 174 0 l 35 0 l 35 1111 l 174 1111 l 450 372 l 450 1111 z "},"ň":{"ha":550,"x_min":35,"x_max":515,"o":"m 325 986 l 228 986 l 77 1141 l 167 1141 l 277 1028 l 382 1141 l 472 1141 l 325 986 m 343 917 q 476 851 437 917 q 515 635 515 785 l 515 0 l 376 0 l 376 656 q 354 758 376 724 q 282 791 332 791 q 200 752 227 791 q 174 648 174 713 l 174 0 l 35 0 l 35 903 l 174 903 l 174 802 q 196 841 183 823 q 230 878 210 859 q 279 906 250 896 q 343 917 308 917 z "},"Ŋ":{"ha":623,"x_min":35,"x_max":589,"o":"m 450 1111 l 589 1111 l 589 0 q 584 -106 589 -64 q 565 -183 578 -148 q 528 -238 552 -218 q 465 -268 503 -258 q 372 -278 427 -278 l 277 -278 l 277 -146 l 335 -146 q 436 -115 413 -146 q 450 0 458 -84 l 174 741 l 174 0 l 35 0 l 35 1111 l 174 1111 l 450 372 l 450 1111 z "},"ŋ":{"ha":550,"x_min":35,"x_max":515,"o":"m 343 917 q 476 851 437 917 q 515 635 515 785 l 515 0 q 511 -98 515 -58 q 494 -174 507 -137 q 458 -232 481 -211 q 397 -266 435 -253 q 302 -278 358 -278 l 203 -278 l 203 -153 l 275 -153 q 356 -116 336 -153 q 376 0 376 -79 l 376 656 q 354 758 376 724 q 282 791 332 791 q 200 752 227 791 q 174 648 174 713 l 174 0 l 35 0 l 35 903 l 174 903 l 174 802 q 196 841 183 823 q 230 878 210 859 q 279 906 250 896 q 343 917 308 917 z "},"Ō":{"ha":550,"x_min":35,"x_max":515,"o":"m 472 1300 l 472 1244 l 77 1244 l 77 1300 l 472 1300 m 93 1053 q 123 1089 93 1053 q 275 1125 152 1125 q 457 1053 399 1125 q 515 815 515 980 l 515 296 q 457 59 515 131 q 275 -14 399 -14 q 93 59 152 -14 q 35 296 35 131 l 35 815 q 93 1053 35 980 m 376 296 l 376 815 q 356 950 376 913 q 275 986 335 986 q 195 950 216 986 q 174 815 174 913 l 174 296 q 195 161 174 197 q 275 125 216 125 q 356 161 335 125 q 376 296 376 197 z "},"ō":{"ha":550,"x_min":35,"x_max":515,"o":"m 77 1092 l 472 1092 l 472 1036 l 77 1036 l 77 1092 m 35 310 l 35 593 q 92 839 35 761 q 275 917 150 917 q 458 839 401 917 q 515 593 515 761 l 515 310 q 458 64 515 142 q 275 -14 401 -14 q 92 64 149 -14 q 35 310 35 142 m 174 289 q 186 179 174 219 q 219 125 198 140 q 275 111 240 111 q 332 125 311 111 q 365 179 353 140 q 376 289 376 219 l 376 614 q 364 723 376 684 q 331 777 352 763 q 275 791 310 791 q 219 777 240 791 q 186 723 198 763 q 174 614 174 684 l 174 289 z "},"Ő":{"ha":550,"x_min":35,"x_max":536,"o":"m 383 1350 l 237 1194 l 140 1194 l 300 1350 l 383 1350 m 390 1194 l 293 1194 l 453 1350 l 536 1350 l 390 1194 m 93 1053 q 123 1089 93 1053 q 275 1125 152 1125 q 457 1053 399 1125 q 515 815 515 980 l 515 296 q 457 59 515 131 q 275 -14 399 -14 q 93 59 152 -14 q 35 296 35 131 l 35 815 q 93 1053 35 980 m 376 296 l 376 815 q 356 950 376 913 q 275 986 335 986 q 195 950 216 986 q 174 815 174 913 l 174 296 q 195 161 174 197 q 275 125 216 125 q 356 161 335 125 q 376 296 376 197 z "},"ő":{"ha":550,"x_min":35,"x_max":536,"o":"m 237 986 l 140 986 l 300 1141 l 383 1141 l 237 986 m 390 986 l 293 986 l 453 1141 l 536 1141 l 390 986 m 35 310 l 35 593 q 92 839 35 761 q 275 917 150 917 q 458 839 401 917 q 515 593 515 761 l 515 310 q 458 64 515 142 q 275 -14 401 -14 q 92 64 149 -14 q 35 310 35 142 m 174 289 q 186 179 174 219 q 219 125 198 140 q 275 111 240 111 q 332 125 311 111 q 365 179 353 140 q 376 289 376 219 l 376 614 q 364 723 376 684 q 331 777 352 763 q 275 791 310 791 q 219 777 240 791 q 186 723 198 763 q 174 614 174 684 l 174 289 z "},"Œ":{"ha":805,"x_min":35,"x_max":771,"o":"m 771 972 l 555 972 l 555 625 l 771 625 l 771 486 l 555 486 l 555 139 l 771 139 l 771 0 l 416 0 l 416 92 q 248 -14 367 -14 q 89 60 143 -14 q 35 296 35 133 l 35 815 q 89 1052 35 978 q 248 1125 143 1125 q 416 1019 367 1125 l 416 1111 l 771 1111 l 771 972 m 370 296 l 370 815 q 349 949 370 913 q 272 986 329 986 q 194 950 214 986 q 174 815 174 913 l 174 296 q 194 161 174 197 q 272 125 214 125 q 349 161 329 125 q 370 296 370 198 z "},"œ":{"ha":863,"x_min":35,"x_max":829,"o":"m 591 917 q 773 839 717 917 q 829 593 829 762 l 829 431 l 488 431 l 488 289 q 513 149 488 187 q 591 111 538 111 q 667 149 644 111 q 690 289 690 186 l 690 354 l 829 354 l 829 310 q 773 64 829 141 q 591 -14 717 -14 q 397 78 456 -14 q 240 -14 351 -14 q 35 310 35 -14 l 35 593 q 240 917 35 917 q 397 825 351 917 q 591 917 456 917 m 349 289 l 349 614 q 330 748 349 705 q 265 791 312 791 q 194 755 214 791 q 174 614 174 718 l 174 289 q 194 148 174 184 q 265 111 214 111 q 331 154 313 111 q 349 289 349 197 m 690 614 q 667 754 690 716 q 591 791 644 791 q 513 753 538 791 q 488 614 488 715 l 488 528 l 690 528 l 690 614 z "},"Ŕ":{"ha":554,"x_min":35,"x_max":533,"o":"m 475 1296 l 93 1194 l 79 1247 l 461 1350 l 475 1296 m 518 98 q 533 0 518 19 l 395 0 q 379 98 379 20 l 379 298 q 369 369 379 340 q 345 413 359 398 q 306 437 330 429 q 260 447 281 446 q 208 449 240 449 l 174 449 l 174 0 l 35 0 l 35 1111 l 208 1111 q 363 1094 302 1111 q 458 1037 424 1076 q 506 945 493 998 q 519 808 519 891 l 519 758 q 491 593 519 658 q 399 494 462 528 q 489 422 460 473 q 518 278 518 371 l 518 98 m 174 587 l 208 587 q 296 597 262 587 q 348 629 330 606 q 374 681 367 651 q 380 758 380 711 l 380 808 q 374 887 380 858 q 348 937 367 917 q 296 965 328 958 q 208 972 263 972 l 174 972 l 174 587 z "},"ŕ":{"ha":536,"x_min":35,"x_max":501,"o":"m 472 1088 l 90 986 l 77 1039 l 458 1141 l 472 1088 m 351 917 q 415 905 389 917 q 458 873 441 894 q 484 817 475 852 q 497 740 494 781 q 501 642 501 699 l 501 600 l 363 600 l 363 663 q 348 760 363 728 q 288 791 332 791 q 206 740 238 791 q 174 625 174 688 l 174 0 l 35 0 l 35 903 l 174 903 l 174 791 q 351 917 230 917 z "},"Ŗ":{"ha":554,"x_min":35,"x_max":533,"o":"m 518 98 q 533 0 518 19 l 395 0 q 379 98 379 20 l 379 298 q 369 369 379 340 q 345 413 359 398 q 306 437 330 429 q 260 447 281 446 q 208 449 240 449 l 174 449 l 174 0 l 35 0 l 35 1111 l 208 1111 q 363 1094 302 1111 q 458 1037 424 1076 q 506 945 493 998 q 519 808 519 891 l 519 758 q 491 593 519 658 q 399 494 462 528 q 489 422 460 473 q 518 278 518 371 l 518 98 m 174 587 l 208 587 q 296 597 262 587 q 348 629 330 606 q 374 681 367 651 q 380 758 380 711 l 380 808 q 374 887 380 858 q 348 937 367 917 q 296 965 328 958 q 208 972 263 972 l 174 972 l 174 587 m 278 -72 q 323 -90 305 -72 q 342 -143 342 -109 q 231 -309 342 -254 l 231 -248 q 279 -193 272 -229 q 231 -182 250 -198 q 212 -138 212 -166 q 231 -91 212 -110 q 278 -72 250 -72 z "},"ŗ":{"ha":536,"x_min":35,"x_max":501,"o":"m 351 917 q 415 905 389 917 q 458 873 441 894 q 484 817 475 852 q 497 740 494 781 q 501 642 501 699 l 501 600 l 363 600 l 363 663 q 348 760 363 728 q 288 791 332 791 q 206 740 238 791 q 174 625 174 688 l 174 0 l 35 0 l 35 903 l 174 903 l 174 791 q 351 917 230 917 m 104 -72 q 150 -90 132 -72 q 168 -143 168 -109 q 57 -309 168 -254 l 57 -248 q 106 -193 98 -229 q 57 -182 76 -198 q 39 -138 39 -166 q 58 -91 39 -110 q 104 -72 77 -72 z "},"Ř":{"ha":554,"x_min":35,"x_max":533,"o":"m 328 1194 l 231 1194 l 79 1350 l 170 1350 l 279 1236 l 385 1350 l 475 1350 l 328 1194 m 518 98 q 533 0 518 19 l 395 0 q 379 98 379 20 l 379 298 q 369 369 379 340 q 345 413 359 398 q 306 437 330 429 q 260 447 281 446 q 208 449 240 449 l 174 449 l 174 0 l 35 0 l 35 1111 l 208 1111 q 363 1094 302 1111 q 458 1037 424 1076 q 506 945 493 998 q 519 808 519 891 l 519 758 q 491 593 519 658 q 399 494 462 528 q 489 422 460 473 q 518 278 518 371 l 518 98 m 174 587 l 208 587 q 296 597 262 587 q 348 629 330 606 q 374 681 367 651 q 380 758 380 711 l 380 808 q 374 887 380 858 q 348 937 367 917 q 296 965 328 958 q 208 972 263 972 l 174 972 l 174 587 z "},"ř":{"ha":536,"x_min":35,"x_max":501,"o":"m 325 986 l 228 986 l 77 1141 l 167 1141 l 277 1028 l 382 1141 l 472 1141 l 325 986 m 351 917 q 415 905 389 917 q 458 873 441 894 q 484 817 475 852 q 497 740 494 781 q 501 642 501 699 l 501 600 l 363 600 l 363 663 q 348 760 363 728 q 288 791 332 791 q 206 740 238 791 q 174 625 174 688 l 174 0 l 35 0 l 35 903 l 174 903 l 174 791 q 351 917 230 917 z "},"Ś":{"ha":550,"x_min":35,"x_max":515,"o":"m 472 1296 l 90 1194 l 77 1247 l 458 1350 l 472 1296 m 311 644 q 368 599 346 618 q 416 554 390 581 q 458 501 442 527 q 488 441 474 475 q 509 366 503 407 q 515 275 515 325 q 460 60 515 134 q 286 -14 405 -14 q 140 22 193 -14 q 60 144 86 58 q 35 379 35 229 l 174 379 q 185 218 174 273 q 220 144 197 163 q 286 125 243 125 q 356 157 336 125 q 376 275 376 189 q 369 353 376 321 q 343 414 362 385 q 301 466 325 443 q 235 522 277 489 q 176 570 197 552 q 125 620 155 587 q 80 684 96 653 q 53 759 64 714 q 41 857 41 804 q 98 1055 41 985 q 272 1125 155 1125 q 451 1043 393 1125 q 509 787 509 962 l 370 787 q 363 888 370 848 q 343 949 357 928 q 313 978 329 970 q 272 986 296 986 q 203 957 225 986 q 180 857 180 928 q 211 742 180 787 q 311 644 241 697 z "},"ś":{"ha":550,"x_min":35,"x_max":515,"o":"m 472 1088 l 90 986 l 77 1039 l 458 1141 l 472 1088 m 335 513 q 394 465 373 483 q 442 418 416 447 q 482 363 469 389 q 506 302 496 338 q 515 224 515 266 q 285 -14 515 -14 q 90 59 145 -14 q 35 302 35 132 l 174 302 q 198 152 174 192 q 285 111 223 111 q 376 224 376 111 q 345 320 376 281 q 215 433 313 359 q 191 451 210 437 q 166 470 172 465 q 143 489 159 475 q 119 510 126 503 q 99 532 113 517 q 79 558 85 547 q 64 586 73 570 q 52 619 56 603 q 44 655 47 635 q 41 697 41 675 q 53 777 41 739 q 90 846 64 814 q 161 898 115 879 q 271 917 208 917 q 453 842 397 917 q 509 621 509 766 l 370 621 q 357 728 370 690 q 324 779 344 767 q 271 791 304 791 q 205 766 230 791 q 180 697 180 741 q 185 660 180 677 q 197 631 191 643 q 220 603 203 619 q 249 578 237 587 q 289 548 260 569 q 335 513 318 526 z "},"Ş":{"ha":550,"x_min":35,"x_max":515,"o":"m 301 -93 q 456 -176 456 -68 q 446 -217 456 -199 q 424 -247 437 -235 q 387 -267 410 -258 q 345 -279 363 -275 q 296 -285 326 -283 q 249 -287 265 -287 q 204 -288 233 -288 l 205 -232 q 346 -221 305 -232 q 386 -176 386 -211 q 348 -134 386 -141 q 233 -140 309 -127 l 253 -12 q 85 83 135 -4 q 35 379 35 171 l 174 379 q 185 218 174 273 q 220 144 197 163 q 286 125 243 125 q 356 157 336 125 q 376 275 376 189 q 369 353 376 321 q 343 414 362 385 q 301 466 325 443 q 235 522 277 489 q 176 570 197 552 q 125 620 155 587 q 80 684 96 653 q 53 759 64 714 q 41 857 41 804 q 98 1055 41 985 q 272 1125 155 1125 q 451 1043 393 1125 q 509 787 509 962 l 370 787 q 363 888 370 848 q 343 949 357 928 q 313 978 329 970 q 272 986 296 986 q 203 957 225 986 q 180 857 180 928 q 211 742 180 787 q 311 644 241 697 q 368 599 346 618 q 416 554 390 581 q 458 501 442 527 q 488 441 474 475 q 509 366 503 407 q 515 275 515 325 q 469 72 515 144 q 321 -12 422 -1 l 301 -93 z "},"ş":{"ha":550,"x_min":35,"x_max":515,"o":"m 515 224 q 307 -14 515 -2 l 288 -93 q 441 -176 441 -68 q 432 -217 441 -199 q 409 -247 422 -235 q 373 -267 396 -258 q 331 -279 349 -275 q 282 -285 312 -283 q 236 -287 252 -287 q 191 -288 220 -288 l 192 -232 q 332 -221 292 -232 q 372 -176 372 -211 q 334 -134 372 -141 q 220 -140 296 -127 l 239 -11 q 80 73 126 -1 q 35 302 35 146 l 174 302 q 198 152 174 192 q 285 111 223 111 q 376 224 376 111 q 345 320 376 281 q 215 433 313 359 q 191 451 210 437 q 166 470 172 465 q 143 489 159 475 q 119 510 126 503 q 99 532 113 517 q 79 558 85 547 q 64 586 73 570 q 52 619 56 603 q 44 655 47 635 q 41 697 41 675 q 53 777 41 739 q 90 846 64 814 q 161 898 115 879 q 271 917 208 917 q 453 842 397 917 q 509 621 509 766 l 370 621 q 357 728 370 690 q 324 779 344 767 q 271 791 304 791 q 205 766 230 791 q 180 697 180 741 q 185 660 180 677 q 197 631 191 643 q 220 603 203 619 q 249 578 237 587 q 289 548 260 569 q 335 513 318 526 q 394 465 373 483 q 442 418 416 447 q 482 363 469 389 q 506 302 496 338 q 515 224 515 266 z "},"Š":{"ha":550,"x_min":35,"x_max":515,"o":"m 325 1194 l 228 1194 l 77 1350 l 167 1350 l 277 1236 l 382 1350 l 472 1350 l 325 1194 m 311 644 q 368 599 346 618 q 416 554 390 581 q 458 501 442 527 q 488 441 474 475 q 509 366 503 407 q 515 275 515 325 q 460 60 515 134 q 286 -14 405 -14 q 140 22 193 -14 q 60 144 86 58 q 35 379 35 229 l 174 379 q 185 218 174 273 q 220 144 197 163 q 286 125 243 125 q 356 157 336 125 q 376 275 376 189 q 369 353 376 321 q 343 414 362 385 q 301 466 325 443 q 235 522 277 489 q 176 570 197 552 q 125 620 155 587 q 80 684 96 653 q 53 759 64 714 q 41 857 41 804 q 98 1055 41 985 q 272 1125 155 1125 q 451 1043 393 1125 q 509 787 509 962 l 370 787 q 363 888 370 848 q 343 949 357 928 q 313 978 329 970 q 272 986 296 986 q 203 957 225 986 q 180 857 180 928 q 211 742 180 787 q 311 644 241 697 z "},"š":{"ha":550,"x_min":35,"x_max":515,"o":"m 325 986 l 228 986 l 77 1141 l 167 1141 l 277 1028 l 382 1141 l 472 1141 l 325 986 m 335 513 q 394 465 373 483 q 442 418 416 447 q 482 363 469 389 q 506 302 496 338 q 515 224 515 266 q 285 -14 515 -14 q 90 59 145 -14 q 35 302 35 132 l 174 302 q 198 152 174 192 q 285 111 223 111 q 376 224 376 111 q 345 320 376 281 q 215 433 313 359 q 191 451 210 437 q 166 470 172 465 q 143 489 159 475 q 119 510 126 503 q 99 532 113 517 q 79 558 85 547 q 64 586 73 570 q 52 619 56 603 q 44 655 47 635 q 41 697 41 675 q 53 777 41 739 q 90 846 64 814 q 161 898 115 879 q 271 917 208 917 q 453 842 397 917 q 509 621 509 766 l 370 621 q 357 728 370 690 q 324 779 344 767 q 271 791 304 791 q 205 766 230 791 q 180 697 180 741 q 185 660 180 677 q 197 631 191 643 q 220 603 203 619 q 249 578 237 587 q 289 548 260 569 q 335 513 318 526 z "},"Ţ":{"ha":522,"x_min":35,"x_max":488,"o":"m 330 0 l 296 0 l 273 -93 q 428 -176 428 -68 q 418 -217 428 -199 q 396 -247 409 -235 q 359 -267 382 -258 q 317 -279 335 -275 q 268 -285 298 -283 q 221 -287 237 -287 q 176 -288 205 -288 l 178 -232 q 318 -221 277 -232 q 358 -176 358 -211 q 320 -134 358 -141 q 205 -140 282 -127 l 227 0 l 192 0 l 192 972 l 35 972 l 35 1111 l 488 1111 l 488 972 l 330 972 l 330 0 z "},"ţ":{"ha":458,"x_min":35,"x_max":454,"o":"m 300 -82 q 454 -165 454 -57 q 445 -207 454 -189 q 422 -236 435 -224 q 385 -256 409 -248 q 343 -268 361 -264 q 294 -274 325 -272 q 248 -276 264 -276 q 203 -277 232 -277 l 204 -221 q 344 -211 304 -221 q 385 -165 385 -200 q 376 -137 385 -147 q 346 -123 367 -126 q 299 -122 325 -120 q 232 -129 274 -123 l 253 9 q 199 36 221 18 q 163 77 176 54 q 143 137 151 100 q 134 210 136 174 q 132 302 132 247 l 132 778 l 35 778 l 35 903 q 123 978 93 920 q 153 1111 154 1036 l 292 1111 q 262 976 292 1035 q 187 903 232 916 l 424 903 l 424 778 l 271 778 l 271 302 q 272 237 271 262 q 279 188 274 212 q 294 152 284 164 q 321 132 304 139 q 363 125 338 125 l 424 125 l 424 0 l 338 0 l 319 0 l 300 -82 z "},"Ť":{"ha":522,"x_min":35,"x_max":488,"o":"m 311 1194 l 214 1194 l 62 1350 l 153 1350 l 262 1236 l 368 1350 l 458 1350 l 311 1194 m 488 1111 l 488 972 l 330 972 l 330 0 l 192 0 l 192 972 l 35 972 l 35 1111 l 488 1111 z "},"ť":{"ha":458,"x_min":35,"x_max":458,"o":"m 458 1125 l 403 958 l 347 958 l 389 1125 l 458 1125 m 187 903 l 424 903 l 424 778 l 271 778 l 271 302 q 272 237 271 262 q 279 188 274 212 q 294 152 284 164 q 321 132 304 139 q 363 125 338 125 l 424 125 l 424 0 l 338 0 q 268 6 298 0 q 216 24 237 13 q 179 56 194 35 q 155 98 164 76 q 140 154 145 120 q 134 222 136 189 q 132 302 132 255 l 132 778 l 35 778 l 35 903 q 123 978 93 920 q 153 1111 154 1036 l 292 1111 q 262 976 292 1035 q 187 903 232 916 z "},"Ŧ":{"ha":522,"x_min":35,"x_max":488,"o":"m 488 972 l 330 972 l 330 583 l 458 583 l 458 528 l 330 528 l 330 0 l 192 0 l 192 528 l 62 528 l 62 583 l 192 583 l 192 972 l 35 972 l 35 1111 l 488 1111 l 488 972 z "},"ŧ":{"ha":458,"x_min":17,"x_max":424,"o":"m 424 778 l 271 778 l 271 521 l 412 521 l 412 465 l 271 465 l 271 302 q 272 237 271 262 q 279 188 274 212 q 294 152 284 164 q 321 132 304 139 q 363 125 338 125 l 424 125 l 424 0 l 338 0 q 268 6 298 0 q 216 24 237 13 q 179 56 194 35 q 155 98 164 76 q 140 154 145 120 q 134 222 136 189 q 132 302 132 255 l 132 465 l 17 465 l 17 521 l 132 521 l 132 778 l 35 778 l 35 903 q 123 978 93 920 q 153 1111 154 1036 l 292 1111 q 262 976 292 1035 q 187 903 232 916 l 424 903 l 424 778 z "},"Ū":{"ha":550,"x_min":35,"x_max":515,"o":"m 77 1300 l 472 1300 l 472 1244 l 77 1244 l 77 1300 m 515 1111 l 515 296 q 457 59 515 131 q 275 -14 399 -14 q 93 59 152 -14 q 35 296 35 131 l 35 1111 l 174 1111 l 174 296 q 195 161 174 197 q 275 125 216 125 q 356 161 335 125 q 376 296 376 197 l 376 1111 l 515 1111 z "},"ū":{"ha":550,"x_min":35,"x_max":529,"o":"m 472 1092 l 472 1036 l 77 1036 l 77 1092 l 472 1092 m 515 134 q 516 81 515 98 q 519 43 516 65 q 529 0 522 22 l 404 0 q 383 45 390 14 q 376 102 376 77 q 354 62 367 81 q 320 26 340 44 q 271 -3 300 7 q 207 -14 242 -14 q 74 53 113 -14 q 35 268 35 119 l 35 903 l 174 903 l 174 248 q 196 145 174 180 q 268 111 218 111 q 350 151 323 111 q 376 254 376 190 l 376 903 l 515 903 l 515 134 z "},"Ů":{"ha":550,"x_min":35,"x_max":515,"o":"m 340 1221 q 326 1207 340 1221 q 275 1194 313 1194 q 211 1221 238 1194 q 183 1286 183 1247 q 211 1351 183 1324 q 275 1378 238 1378 q 340 1352 313 1378 q 367 1286 367 1325 q 340 1221 367 1247 m 249 1260 q 254 1255 249 1260 q 275 1250 259 1250 q 301 1260 292 1250 q 311 1286 311 1270 q 301 1312 311 1302 q 275 1322 292 1322 q 249 1312 259 1322 q 239 1286 239 1302 q 249 1260 239 1270 m 515 1111 l 515 296 q 457 59 515 131 q 275 -14 399 -14 q 93 59 152 -14 q 35 296 35 131 l 35 1111 l 174 1111 l 174 296 q 195 161 174 197 q 275 125 216 125 q 356 161 335 125 q 376 296 376 197 l 376 1111 l 515 1111 z "},"ů":{"ha":550,"x_min":35,"x_max":529,"o":"m 340 1013 q 326 999 340 1013 q 275 986 313 986 q 211 1013 238 986 q 183 1078 183 1039 q 211 1143 183 1116 q 275 1169 238 1169 q 340 1143 313 1169 q 367 1078 367 1116 q 340 1013 367 1039 m 301 1104 q 297 1109 301 1104 q 275 1114 292 1114 q 249 1103 259 1114 q 239 1078 239 1093 q 249 1052 239 1062 q 275 1042 259 1042 q 301 1052 292 1042 q 311 1078 311 1061 q 301 1104 311 1094 m 515 134 q 516 81 515 98 q 519 43 516 65 q 529 0 522 22 l 404 0 q 383 45 390 14 q 376 102 376 77 q 354 62 367 81 q 320 26 340 44 q 271 -3 300 7 q 207 -14 242 -14 q 74 53 113 -14 q 35 268 35 119 l 35 903 l 174 903 l 174 248 q 196 145 174 180 q 268 111 218 111 q 350 151 323 111 q 376 254 376 190 l 376 903 l 515 903 l 515 134 z "},"Ű":{"ha":550,"x_min":35,"x_max":536,"o":"m 237 1194 l 140 1194 l 300 1350 l 383 1350 l 237 1194 m 390 1194 l 293 1194 l 453 1350 l 536 1350 l 390 1194 m 515 1111 l 515 296 q 457 59 515 131 q 275 -14 399 -14 q 93 59 152 -14 q 35 296 35 131 l 35 1111 l 174 1111 l 174 296 q 195 161 174 197 q 275 125 216 125 q 356 161 335 125 q 376 296 376 197 l 376 1111 l 515 1111 z "},"ű":{"ha":550,"x_min":35,"x_max":536,"o":"m 383 1141 l 237 986 l 140 986 l 300 1141 l 383 1141 m 390 986 l 293 986 l 453 1141 l 536 1141 l 390 986 m 515 903 l 515 134 q 516 81 515 98 q 519 43 516 65 q 529 0 522 22 l 404 0 q 383 45 390 14 q 376 102 376 77 q 354 62 367 81 q 320 26 340 44 q 271 -3 300 7 q 207 -14 242 -14 q 74 53 113 -14 q 35 268 35 119 l 35 903 l 174 903 l 174 248 q 196 145 174 180 q 268 111 218 111 q 350 151 323 111 q 376 254 376 190 l 376 903 l 515 903 z "},"Ų":{"ha":550,"x_min":35,"x_max":515,"o":"m 376 1111 l 515 1111 l 515 296 q 478 92 515 164 q 366 -3 441 20 q 242 -66 281 -34 q 204 -139 204 -98 q 244 -206 204 -183 q 385 -232 285 -229 l 329 -288 q 279 -286 302 -288 q 229 -279 256 -284 q 182 -265 202 -275 q 144 -241 161 -255 q 117 -203 126 -227 q 107 -151 107 -180 q 244 -12 107 -53 q 86 69 137 -4 q 35 296 35 142 l 35 1111 l 174 1111 l 174 296 q 195 161 174 197 q 275 125 216 125 q 356 161 335 125 q 376 296 376 197 l 376 1111 z "},"ų":{"ha":550,"x_min":35,"x_max":543,"o":"m 363 -139 q 403 -206 363 -183 q 543 -232 444 -229 l 488 -288 q 427 -285 454 -288 q 369 -275 400 -283 q 316 -252 337 -267 q 280 -212 294 -238 q 265 -151 265 -186 q 282 -90 265 -117 q 327 -46 298 -63 q 389 -17 356 -28 q 460 0 421 -6 l 404 0 q 383 45 390 14 q 376 102 376 77 q 354 62 367 81 q 320 26 340 44 q 271 -3 300 7 q 207 -14 242 -14 q 74 53 113 -14 q 35 268 35 119 l 35 903 l 174 903 l 174 248 q 196 145 174 180 q 268 111 218 111 q 350 151 323 111 q 376 254 376 190 l 376 903 l 515 903 l 515 134 q 516 81 515 98 q 519 43 516 65 q 529 0 522 22 q 402 -65 441 -33 q 363 -139 363 -97 z "},"Ŵ":{"ha":1046,"x_min":35,"x_max":1011,"o":"m 525 1308 l 415 1194 l 325 1194 l 476 1350 l 574 1350 l 721 1194 l 631 1194 l 525 1308 m 857 1111 l 1011 1111 l 700 0 l 485 0 l 485 899 l 250 0 l 35 0 l 35 1111 l 174 1111 l 174 192 l 407 1111 l 624 1111 l 624 192 l 857 1111 z "},"ŵ":{"ha":1046,"x_min":35,"x_max":1011,"o":"m 525 1100 l 415 986 l 325 986 l 476 1141 l 574 1141 l 721 986 l 631 986 l 525 1100 m 857 903 l 1011 903 l 700 0 l 485 0 l 485 730 l 250 0 l 35 0 l 35 903 l 174 903 l 174 155 l 407 903 l 624 903 l 624 155 l 857 903 z "},"Ŷ":{"ha":635,"x_min":35,"x_max":602,"o":"m 271 1350 l 368 1350 l 515 1194 l 425 1194 l 319 1308 l 210 1194 l 119 1194 l 271 1350 m 249 389 l 35 1111 l 182 1111 l 318 567 l 454 1111 l 602 1111 l 387 389 l 387 0 l 249 0 l 249 389 z "},"ŷ":{"ha":550,"x_min":35,"x_max":515,"o":"m 277 1100 l 167 986 l 77 986 l 228 1141 l 325 1141 l 472 986 l 382 986 l 277 1100 m 376 903 l 515 903 l 515 25 q 510 -85 515 -40 q 489 -169 504 -130 q 446 -230 473 -208 q 374 -266 418 -253 q 268 -278 330 -278 l 69 -278 l 69 -153 l 248 -153 q 349 -112 321 -153 q 376 25 376 -71 l 376 102 q 354 62 367 81 q 320 26 340 44 q 271 -3 300 7 q 207 -14 242 -14 q 74 53 113 -14 q 35 268 35 119 l 35 903 l 174 903 l 174 248 q 196 145 174 180 q 268 111 218 111 q 350 151 323 111 q 376 254 376 190 l 376 903 z "},"Ÿ":{"ha":635,"x_min":35,"x_max":602,"o":"m 207 1210 q 165 1226 182 1210 q 147 1268 147 1243 q 164 1312 147 1295 q 207 1328 182 1328 q 248 1312 231 1328 q 265 1268 265 1295 q 248 1226 265 1243 q 207 1210 231 1210 m 429 1210 q 387 1226 405 1210 q 370 1268 370 1243 q 387 1312 370 1295 q 429 1328 404 1328 q 470 1312 453 1328 q 488 1268 488 1295 q 470 1226 488 1243 q 429 1210 453 1210 m 249 389 l 35 1111 l 182 1111 l 318 567 l 454 1111 l 602 1111 l 387 389 l 387 0 l 249 0 l 249 389 z "},"Ź":{"ha":507,"x_min":35,"x_max":472,"o":"m 452 1296 l 69 1194 l 56 1247 l 437 1350 l 452 1296 m 472 1111 l 472 972 l 175 139 l 472 139 l 472 0 l 35 0 l 35 139 l 334 972 l 35 972 l 35 1111 l 472 1111 z "},"ź":{"ha":507,"x_min":35,"x_max":472,"o":"m 452 1088 l 69 986 l 56 1039 l 437 1141 l 452 1088 m 472 903 l 472 778 l 182 125 l 472 125 l 472 0 l 35 0 l 35 125 l 325 778 l 35 778 l 35 903 l 472 903 z "},"Ż":{"ha":507,"x_min":35,"x_max":472,"o":"m 254 1210 q 213 1226 230 1210 q 196 1268 196 1242 q 213 1312 196 1295 q 254 1328 230 1328 q 296 1312 279 1328 q 314 1268 314 1295 q 296 1226 314 1243 q 254 1210 278 1210 m 472 1111 l 472 972 l 175 139 l 472 139 l 472 0 l 35 0 l 35 139 l 334 972 l 35 972 l 35 1111 l 472 1111 z "},"ż":{"ha":507,"x_min":35,"x_max":472,"o":"m 254 1002 q 213 1018 230 1002 q 196 1060 196 1034 q 213 1103 196 1087 q 254 1120 230 1120 q 296 1103 279 1120 q 314 1060 314 1087 q 296 1018 314 1035 q 254 1002 278 1002 m 472 903 l 472 778 l 182 125 l 472 125 l 472 0 l 35 0 l 35 125 l 325 778 l 35 778 l 35 903 l 472 903 z "},"Ž":{"ha":507,"x_min":35,"x_max":472,"o":"m 304 1194 l 207 1194 l 56 1350 l 146 1350 l 256 1236 l 361 1350 l 452 1350 l 304 1194 m 472 1111 l 472 972 l 175 139 l 472 139 l 472 0 l 35 0 l 35 139 l 334 972 l 35 972 l 35 1111 l 472 1111 z "},"ž":{"ha":507,"x_min":35,"x_max":472,"o":"m 304 986 l 207 986 l 56 1141 l 146 1141 l 256 1028 l 361 1141 l 452 1141 l 304 986 m 472 903 l 472 778 l 182 125 l 472 125 l 472 0 l 35 0 l 35 125 l 325 778 l 35 778 l 35 903 l 472 903 z "},"Ș":{"ha":550,"x_min":35,"x_max":515,"o":"m 311 644 q 368 599 346 618 q 416 554 390 581 q 458 501 442 527 q 488 441 474 475 q 509 366 503 407 q 515 275 515 325 q 460 60 515 134 q 286 -14 405 -14 q 140 22 193 -14 q 60 144 86 58 q 35 379 35 229 l 174 379 q 185 218 174 273 q 220 144 197 163 q 286 125 243 125 q 356 157 336 125 q 376 275 376 189 q 369 353 376 321 q 343 414 362 385 q 301 466 325 443 q 235 522 277 489 q 176 570 197 552 q 125 620 155 587 q 80 684 96 653 q 53 759 64 714 q 41 857 41 804 q 98 1055 41 985 q 272 1125 155 1125 q 451 1043 393 1125 q 509 787 509 962 l 370 787 q 363 888 370 848 q 343 949 357 928 q 313 978 329 970 q 272 986 296 986 q 203 957 225 986 q 180 857 180 928 q 211 742 180 787 q 311 644 241 697 m 289 -72 q 334 -90 316 -72 q 353 -143 353 -109 q 241 -309 353 -254 l 241 -248 q 290 -193 283 -229 q 242 -182 261 -198 q 224 -138 224 -166 q 242 -91 224 -110 q 289 -72 261 -72 z "},"ș":{"ha":550,"x_min":35,"x_max":515,"o":"m 335 513 q 394 465 373 483 q 442 418 416 447 q 482 363 469 389 q 506 302 496 338 q 515 224 515 266 q 285 -14 515 -14 q 90 59 145 -14 q 35 302 35 132 l 174 302 q 198 152 174 192 q 285 111 223 111 q 376 224 376 111 q 345 320 376 281 q 215 433 313 359 q 191 451 210 437 q 166 470 172 465 q 143 489 159 475 q 119 510 126 503 q 99 532 113 517 q 79 558 85 547 q 64 586 73 570 q 52 619 56 603 q 44 655 47 635 q 41 697 41 675 q 53 777 41 739 q 90 846 64 814 q 161 898 115 879 q 271 917 208 917 q 453 842 397 917 q 509 621 509 766 l 370 621 q 357 728 370 690 q 324 779 344 767 q 271 791 304 791 q 205 766 230 791 q 180 697 180 741 q 185 660 180 677 q 197 631 191 643 q 220 603 203 619 q 249 578 237 587 q 289 548 260 569 q 335 513 318 526 m 275 -72 q 321 -90 302 -72 q 339 -143 339 -109 q 228 -309 339 -254 l 228 -248 q 277 -193 269 -229 q 228 -182 247 -198 q 210 -138 210 -166 q 229 -91 210 -110 q 275 -72 248 -72 z "},"Ț":{"ha":522,"x_min":35,"x_max":488,"o":"m 488 1111 l 488 972 l 330 972 l 330 0 l 192 0 l 192 972 l 35 972 l 35 1111 l 488 1111 m 261 -72 q 307 -90 288 -72 q 325 -143 325 -109 q 214 -309 325 -254 l 214 -248 q 262 -193 255 -229 q 215 -182 233 -198 q 196 -138 196 -166 q 215 -91 196 -110 q 261 -72 233 -72 z "},"ț":{"ha":458,"x_min":35,"x_max":424,"o":"m 424 778 l 271 778 l 271 302 q 272 237 271 262 q 279 188 274 212 q 294 152 284 164 q 321 132 304 139 q 363 125 338 125 l 424 125 l 424 0 l 338 0 q 268 6 298 0 q 216 24 237 13 q 179 56 194 35 q 155 98 164 76 q 140 154 145 120 q 134 222 136 189 q 132 302 132 255 l 132 778 l 35 778 l 35 903 q 123 978 93 920 q 153 1111 154 1036 l 292 1111 q 262 976 292 1035 q 187 903 232 916 l 424 903 l 424 778 m 288 -61 q 333 -79 315 -61 q 351 -132 351 -98 q 240 -297 351 -243 l 240 -236 q 289 -182 281 -217 q 241 -171 260 -186 q 222 -126 222 -155 q 241 -80 222 -98 q 288 -61 260 -61 z "},"ˆ":{"ha":423,"x_min":14,"x_max":410,"o":"m 165 1141 l 262 1141 l 410 986 l 319 986 l 214 1100 l 104 986 l 14 986 l 165 1141 z "},"ˇ":{"ha":423,"x_min":14,"x_max":410,"o":"m 165 986 l 14 1141 l 104 1141 l 214 1028 l 319 1141 l 410 1141 l 262 986 l 165 986 z "},"˘":{"ha":423,"x_min":14,"x_max":410,"o":"m 214 986 q 141 994 174 986 q 78 1018 107 1001 q 31 1066 48 1035 q 14 1141 14 1098 l 83 1141 q 96 1093 83 1114 q 130 1062 109 1072 q 171 1046 151 1051 q 214 1042 192 1042 q 256 1046 235 1042 q 296 1062 276 1051 q 328 1093 316 1072 q 340 1141 340 1113 l 410 1141 q 393 1066 410 1098 q 348 1018 376 1035 q 286 994 319 1001 q 214 986 252 986 z "},"˙":{"ha":166,"x_min":25,"x_max":143,"o":"m 83 1002 q 42 1018 59 1002 q 25 1060 25 1034 q 42 1103 25 1087 q 83 1120 59 1120 q 125 1103 108 1120 q 143 1060 143 1087 q 125 1018 143 1035 q 83 1002 107 1002 z "},"˚":{"ha":211,"x_min":14,"x_max":197,"o":"m 170 1013 q 157 999 170 1013 q 106 986 143 986 q 41 1013 68 986 q 14 1078 14 1039 q 41 1143 14 1116 q 106 1169 68 1169 q 170 1143 143 1169 q 197 1078 197 1116 q 170 1013 197 1039 m 79 1052 q 84 1047 79 1052 q 106 1042 90 1042 q 132 1052 122 1042 q 142 1078 142 1061 q 132 1104 142 1094 q 106 1114 122 1114 q 79 1103 90 1114 q 69 1078 69 1093 q 79 1052 69 1062 z "},"˛":{"ha":279,"x_min":-14,"x_max":264,"o":"m 250 0 q 123 -65 162 -33 q 83 -139 83 -97 q 124 -206 83 -183 q 264 -232 164 -229 l 208 -288 q 158 -286 181 -288 q 109 -279 136 -284 q 61 -265 81 -275 q 23 -241 41 -255 q -4 -203 5 -227 q -14 -151 -14 -180 q 3 -90 -14 -117 q 48 -46 19 -63 q 109 -17 77 -28 q 180 0 142 -6 l 250 0 z "},"˜":{"ha":423,"x_min":14,"x_max":410,"o":"m 14 1003 q 125 1141 14 1141 q 177 1131 155 1141 q 214 1106 200 1121 q 239 1077 227 1092 q 264 1052 250 1062 q 294 1042 278 1042 q 340 1125 340 1042 l 410 1125 q 298 986 410 986 q 246 996 269 986 q 210 1021 223 1006 q 184 1051 196 1036 q 159 1076 173 1066 q 129 1086 145 1086 q 83 1003 83 1086 l 14 1003 z "},"˝":{"ha":423,"x_min":14,"x_max":410,"o":"m 111 986 l 14 986 l 174 1141 l 257 1141 l 111 986 m 264 986 l 167 986 l 326 1141 l 410 1141 l 264 986 z "},"̀":{"ha":0,"x_min":-410,"x_max":-14,"o":"m -14 1039 l -28 986 l -410 1088 l -396 1141 l -14 1039 z "},"́":{"ha":0,"x_min":-410,"x_max":-14,"o":"m -410 1039 l -28 1141 l -14 1088 l -396 986 l -410 1039 z "},"̂":{"ha":0,"x_min":-410,"x_max":-14,"o":"m -258 1141 l -161 1141 l -14 986 l -104 986 l -210 1100 l -319 986 l -410 986 l -258 1141 z "},"̃":{"ha":0,"x_min":-410,"x_max":-14,"o":"m -410 1003 q -298 1141 -410 1141 q -246 1131 -269 1141 q -210 1106 -223 1121 q -184 1077 -196 1092 q -159 1052 -173 1062 q -129 1042 -145 1042 q -83 1125 -83 1042 l -14 1125 q -125 986 -14 986 q -177 996 -155 986 q -214 1021 -200 1006 q -239 1051 -227 1036 q -264 1076 -250 1066 q -294 1086 -278 1086 q -340 1003 -340 1086 l -410 1003 z "},"̄":{"ha":0,"x_min":-410,"x_max":-14,"o":"m -410 1092 l -14 1092 l -14 1036 l -410 1036 l -410 1092 z "},"̆":{"ha":0,"x_min":-410,"x_max":-14,"o":"m -210 986 q -282 994 -249 986 q -346 1018 -316 1001 q -392 1066 -375 1035 q -410 1141 -410 1098 l -340 1141 q -328 1093 -340 1114 q -294 1062 -315 1072 q -252 1046 -273 1051 q -210 1042 -231 1042 q -168 1046 -188 1042 q -127 1062 -147 1051 q -96 1093 -108 1072 q -83 1141 -83 1113 l -14 1141 q -30 1066 -14 1098 q -76 1018 -47 1035 q -138 994 -104 1001 q -210 986 -171 986 z "},"̇":{"ha":0,"x_min":-142,"x_max":-24,"o":"m -83 1002 q -125 1018 -108 1002 q -142 1060 -142 1034 q -125 1103 -142 1087 q -83 1120 -108 1120 q -41 1103 -59 1120 q -24 1060 -24 1087 q -42 1018 -24 1035 q -83 1002 -60 1002 z "},"̈":{"ha":0,"x_min":-354,"x_max":-14,"o":"m -294 1002 q -336 1018 -319 1002 q -354 1060 -354 1035 q -337 1103 -354 1087 q -294 1120 -319 1120 q -253 1103 -271 1120 q -236 1060 -236 1087 q -253 1018 -236 1035 q -294 1002 -271 1002 m -72 1002 q -114 1018 -96 1002 q -132 1060 -132 1035 q -115 1103 -132 1087 q -72 1120 -97 1120 q -31 1103 -48 1120 q -14 1060 -14 1087 q -31 1018 -14 1035 q -72 1002 -48 1002 z "},"̊":{"ha":0,"x_min":-197,"x_max":-14,"o":"m -41 1013 q -55 999 -41 1013 q -106 986 -68 986 q -170 1013 -143 986 q -197 1078 -197 1039 q -170 1143 -197 1116 q -106 1169 -143 1169 q -41 1143 -68 1169 q -14 1078 -14 1116 q -41 1013 -14 1039 m -132 1052 q -127 1047 -132 1052 q -106 1042 -122 1042 q -79 1052 -90 1042 q -69 1078 -69 1062 q -79 1103 -69 1093 q -106 1114 -90 1114 q -132 1104 -122 1114 q -142 1078 -142 1094 q -132 1052 -142 1061 z "},"̋":{"ha":0,"x_min":-410,"x_max":-14,"o":"m -313 986 l -410 986 l -250 1141 l -167 1141 l -313 986 m -160 986 l -257 986 l -97 1141 l -14 1141 l -160 986 z "},"̌":{"ha":0,"x_min":-410,"x_max":-14,"o":"m -258 986 l -410 1141 l -319 1141 l -210 1028 l -104 1141 l -14 1141 l -161 986 l -258 986 z "},"̒":{"ha":0,"x_min":-143,"x_max":-14,"o":"m -81 1093 q -32 1094 -51 1107 q -14 1051 -14 1081 q -31 1004 -14 1023 q -77 986 -49 986 q -127 1009 -111 986 q -143 1071 -143 1032 q -117 1148 -143 1109 q -32 1208 -92 1187 l -32 1147 q -81 1093 -73 1128 z "},"̦":{"ha":0,"x_min":-143,"x_max":-14,"o":"m -77 -193 q -124 -182 -106 -198 q -143 -138 -143 -166 q -124 -91 -143 -110 q -78 -72 -106 -72 q -32 -90 -51 -72 q -14 -143 -14 -109 q -125 -309 -14 -254 l -125 -248 q -77 -193 -84 -229 z "},"̧":{"ha":0,"x_min":-265,"x_max":-14,"o":"m -215 0 l -146 0 l -168 -93 q -14 -176 -14 -68 q -23 -217 -14 -199 q -46 -247 -33 -235 q -83 -267 -59 -258 q -125 -279 -106 -275 q -174 -285 -143 -283 q -220 -287 -204 -287 q -265 -288 -236 -288 l -264 -232 q -124 -221 -164 -232 q -83 -176 -83 -211 q -122 -134 -83 -141 q -236 -140 -160 -127 l -215 0 z "},"̨":{"ha":0,"x_min":-293,"x_max":-16,"o":"m -29 0 q -157 -65 -117 -33 q -196 -139 -196 -97 q -156 -206 -196 -183 q -16 -232 -115 -229 l -71 -288 q -131 -285 -104 -288 q -190 -275 -158 -283 q -242 -252 -221 -267 q -278 -212 -264 -238 q -293 -151 -293 -186 q -276 -90 -293 -117 q -231 -46 -260 -63 q -170 -17 -202 -28 q -98 0 -137 -6 l -29 0 z "},"̵":{"ha":0,"x_min":-410,"x_max":-14,"o":"m -410 486 l -14 486 l -14 431 l -410 431 l -410 486 z "},"̶":{"ha":0,"x_min":-410,"x_max":-14,"o":"m -410 486 l -14 486 l -14 431 l -410 431 l -410 486 z "},"̷":{"ha":0,"x_min":-479,"x_max":7,"o":"m 7 1125 l -406 -14 l -479 -14 l -66 1125 l 7 1125 z "},"̸":{"ha":0,"x_min":-479,"x_max":7,"o":"m 7 1125 l -406 -14 l -479 -14 l -66 1125 l 7 1125 z "},"Ẁ":{"ha":1046,"x_min":35,"x_max":1011,"o":"m 721 1247 l 707 1194 l 325 1296 l 339 1350 l 721 1247 m 857 1111 l 1011 1111 l 700 0 l 485 0 l 485 899 l 250 0 l 35 0 l 35 1111 l 174 1111 l 174 192 l 407 1111 l 624 1111 l 624 192 l 857 1111 z "},"ẁ":{"ha":1046,"x_min":35,"x_max":1011,"o":"m 721 1039 l 707 986 l 325 1088 l 339 1141 l 721 1039 m 857 903 l 1011 903 l 700 0 l 485 0 l 485 730 l 250 0 l 35 0 l 35 903 l 174 903 l 174 155 l 407 903 l 624 903 l 624 155 l 857 903 z "},"Ẃ":{"ha":1046,"x_min":35,"x_max":1011,"o":"m 721 1296 l 339 1194 l 325 1247 l 707 1350 l 721 1296 m 857 1111 l 1011 1111 l 700 0 l 485 0 l 485 899 l 250 0 l 35 0 l 35 1111 l 174 1111 l 174 192 l 407 1111 l 624 1111 l 624 192 l 857 1111 z "},"ẃ":{"ha":1046,"x_min":35,"x_max":1011,"o":"m 721 1088 l 339 986 l 325 1039 l 707 1141 l 721 1088 m 857 903 l 1011 903 l 700 0 l 485 0 l 485 730 l 250 0 l 35 0 l 35 903 l 174 903 l 174 155 l 407 903 l 624 903 l 624 155 l 857 903 z "},"Ẅ":{"ha":1046,"x_min":35,"x_max":1011,"o":"m 412 1210 q 370 1226 388 1210 q 353 1268 353 1243 q 370 1312 353 1295 q 412 1328 387 1328 q 453 1312 436 1328 q 471 1268 471 1295 q 453 1226 471 1243 q 412 1210 436 1210 m 635 1210 q 593 1226 610 1210 q 575 1268 575 1243 q 592 1312 575 1295 q 635 1328 610 1328 q 676 1312 659 1328 q 693 1268 693 1295 q 676 1226 693 1243 q 635 1210 659 1210 m 857 1111 l 1011 1111 l 700 0 l 485 0 l 485 899 l 250 0 l 35 0 l 35 1111 l 174 1111 l 174 192 l 407 1111 l 624 1111 l 624 192 l 857 1111 z "},"ẅ":{"ha":1046,"x_min":35,"x_max":1011,"o":"m 412 1002 q 370 1018 388 1002 q 353 1060 353 1035 q 370 1103 353 1087 q 412 1120 387 1120 q 453 1103 436 1120 q 471 1060 471 1087 q 453 1018 471 1035 q 412 1002 436 1002 m 635 1002 q 593 1018 610 1002 q 575 1060 575 1035 q 592 1103 575 1087 q 635 1120 610 1120 q 676 1103 659 1120 q 693 1060 693 1087 q 676 1018 693 1035 q 635 1002 659 1002 m 857 903 l 1011 903 l 700 0 l 485 0 l 485 730 l 250 0 l 35 0 l 35 903 l 174 903 l 174 155 l 407 903 l 624 903 l 624 155 l 857 903 z "},"Ỳ":{"ha":635,"x_min":35,"x_max":602,"o":"m 515 1247 l 501 1194 l 119 1296 l 134 1350 l 515 1247 m 249 389 l 35 1111 l 182 1111 l 318 567 l 454 1111 l 602 1111 l 387 389 l 387 0 l 249 0 l 249 389 z "},"ỳ":{"ha":550,"x_min":35,"x_max":515,"o":"m 472 1039 l 458 986 l 77 1088 l 90 1141 l 472 1039 m 376 903 l 515 903 l 515 25 q 510 -85 515 -40 q 489 -169 504 -130 q 446 -230 473 -208 q 374 -266 418 -253 q 268 -278 330 -278 l 69 -278 l 69 -153 l 248 -153 q 349 -112 321 -153 q 376 25 376 -71 l 376 102 q 354 62 367 81 q 320 26 340 44 q 271 -3 300 7 q 207 -14 242 -14 q 74 53 113 -14 q 35 268 35 119 l 35 903 l 174 903 l 174 248 q 196 145 174 180 q 268 111 218 111 q 350 151 323 111 q 376 254 376 190 l 376 903 z "},"–":{"ha":875,"x_min":35,"x_max":840,"o":"m 35 493 l 840 493 l 840 424 l 35 424 l 35 493 z "},"—":{"ha":1458,"x_min":35,"x_max":1423,"o":"m 35 493 l 1423 493 l 1423 424 l 35 424 l 35 493 z "},"‘":{"ha":180,"x_min":35,"x_max":146,"o":"m 104 778 l 35 778 l 90 1125 l 146 1125 l 104 778 z "},"’":{"ha":180,"x_min":35,"x_max":146,"o":"m 77 1125 l 146 1125 l 90 778 l 35 778 l 77 1125 z "},"‚":{"ha":229,"x_min":35,"x_max":195,"o":"m 35 66 q 57 125 35 104 q 115 146 80 146 q 172 120 150 146 q 195 41 195 94 q 190 -2 195 20 q 172 -51 185 -23 q 129 -104 159 -78 q 56 -147 99 -130 l 56 -92 q 105 -53 89 -75 q 125 0 121 -31 q 62 10 90 -10 q 35 66 35 30 z "},"“":{"ha":292,"x_min":35,"x_max":257,"o":"m 104 778 l 35 778 l 90 1125 l 146 1125 l 104 778 m 215 778 l 146 778 l 201 1125 l 257 1125 l 215 778 z "},"”":{"ha":292,"x_min":35,"x_max":257,"o":"m 77 1125 l 146 1125 l 90 778 l 35 778 l 77 1125 m 187 1125 l 257 1125 l 201 778 l 146 778 l 187 1125 z "},"„":{"ha":229,"x_min":35,"x_max":195,"o":"m 115 146 q 172 120 150 146 q 195 41 195 94 q 190 -2 195 20 q 172 -51 185 -23 q 129 -104 159 -78 q 56 -147 99 -130 l 56 -92 q 105 -53 89 -75 q 125 0 121 -31 q 62 10 90 -10 q 35 66 35 30 q 57 125 35 104 q 115 146 80 146 z "},"†":{"ha":297,"x_min":35,"x_max":262,"o":"m 262 903 l 262 833 l 183 833 l 183 431 l 114 431 l 114 833 l 35 833 l 35 903 l 114 903 l 114 1111 l 183 1111 l 183 903 l 262 903 z "},"‡":{"ha":297,"x_min":35,"x_max":262,"o":"m 262 833 l 183 833 l 183 694 l 262 694 l 262 625 l 183 625 l 183 431 l 114 431 l 114 625 l 35 625 l 35 694 l 114 694 l 114 833 l 35 833 l 35 903 l 114 903 l 114 1111 l 183 1111 l 183 903 l 262 903 l 262 833 z "},"•":{"ha":342,"x_min":35,"x_max":307,"o":"m 172 317 q 74 354 114 317 q 35 452 35 392 q 74 552 35 515 q 172 590 113 590 q 268 552 229 590 q 307 452 307 515 q 268 354 307 392 q 172 317 229 317 z "},"…":{"ha":673,"x_min":35,"x_max":639,"o":"m 115 -14 q 58 8 81 -14 q 35 65 35 30 q 58 124 35 102 q 115 146 81 146 q 172 124 149 146 q 195 65 195 102 q 172 8 195 31 q 115 -14 149 -14 m 338 -14 q 280 8 303 -14 q 257 65 257 30 q 280 124 257 102 q 338 146 303 146 q 394 124 371 146 q 416 65 416 102 q 394 8 416 31 q 338 -14 371 -14 m 559 -14 q 503 8 526 -14 q 479 65 479 30 q 502 124 479 102 q 559 146 525 146 q 616 124 593 146 q 639 65 639 102 q 616 8 639 31 q 559 -14 593 -14 z "},"‰":{"ha":1103,"x_min":35,"x_max":1068,"o":"m 125 725 q 142 717 125 725 q 204 708 159 708 q 283 725 250 708 q 336 773 317 743 q 365 840 355 804 q 374 917 374 876 q 365 994 374 958 q 336 1060 355 1030 q 283 1108 317 1090 q 204 1125 250 1125 q 125 1108 159 1125 q 72 1060 91 1090 q 44 994 53 1030 q 35 917 35 958 q 44 840 35 876 q 72 773 53 804 q 125 725 91 743 m 604 1125 l 192 -14 l 118 -14 l 530 1125 l 604 1125 m 204 778 q 104 917 104 778 q 204 1055 104 1055 q 304 917 304 1055 q 204 778 304 778 m 439 4 q 456 -5 439 4 q 518 -14 473 -14 q 597 4 564 -14 q 650 51 631 21 q 679 117 669 81 q 688 195 688 153 q 679 272 688 236 q 650 338 669 308 q 597 386 631 368 q 518 403 564 403 q 439 386 473 403 q 386 338 405 368 q 358 272 367 308 q 349 195 349 236 q 358 117 349 153 q 386 51 367 81 q 439 4 405 21 m 819 4 q 836 -5 819 4 q 899 -14 853 -14 q 978 4 944 -14 q 1031 51 1012 21 q 1059 117 1050 81 q 1068 195 1068 153 q 1059 272 1068 236 q 1031 338 1050 308 q 978 386 1012 368 q 899 403 944 403 q 819 386 853 403 q 766 338 785 368 q 738 272 747 308 q 729 195 729 236 q 738 117 729 153 q 766 51 747 81 q 819 4 785 21 m 518 56 q 418 195 418 56 q 518 334 418 334 q 618 195 618 334 q 518 56 618 56 m 899 56 q 799 195 799 56 q 899 334 799 334 q 999 195 999 334 q 899 56 999 56 z "},"‹":{"ha":276,"x_min":35,"x_max":241,"o":"m 241 707 l 241 624 l 87 458 l 241 293 l 241 210 l 35 431 l 35 486 l 241 707 z "},"›":{"ha":276,"x_min":35,"x_max":241,"o":"m 35 707 l 241 486 l 241 431 l 35 210 l 35 293 l 189 458 l 35 624 l 35 707 z "},"⁄":{"ha":513,"x_min":35,"x_max":521,"o":"m 521 1125 l 109 -14 l 35 -14 l 447 1125 l 521 1125 z "},"€":{"ha":600,"x_min":35,"x_max":566,"o":"m 366 56 q 496 208 476 56 l 566 208 q 502 40 556 94 q 366 -14 447 -14 q 183 93 246 -14 q 107 425 121 200 l 35 425 l 35 494 l 104 494 l 104 550 l 35 550 l 35 619 l 106 619 q 174 1002 112 880 q 366 1125 237 1125 q 501 1071 446 1125 q 566 903 556 1017 l 496 903 q 366 1055 476 1055 q 223 951 267 1055 q 174 619 179 848 l 468 619 l 468 550 l 174 550 l 174 494 l 468 494 l 468 425 l 176 425 q 230 144 186 233 q 366 56 274 56 z "},"™":{"ha":677,"x_min":35,"x_max":643,"o":"m 262 1111 l 262 1042 l 183 1042 l 183 431 l 114 431 l 114 1042 l 35 1042 l 35 1111 l 262 1111 m 574 1111 l 643 1111 l 643 431 l 574 431 l 574 777 l 501 431 l 432 431 l 359 777 l 359 431 l 290 431 l 290 1111 l 359 1111 l 467 566 l 574 1111 z "},"←":{"ha":639,"x_min":35,"x_max":604,"o":"m 604 493 l 604 424 l 132 424 q 241 340 194 399 q 298 187 289 282 l 229 187 q 162 337 220 274 q 35 424 104 401 l 35 493 q 162 579 105 517 q 229 729 220 642 l 298 729 q 241 576 289 634 q 132 493 194 518 l 604 493 z "},"↑":{"ha":611,"x_min":35,"x_max":576,"o":"m 340 760 q 427 632 363 690 q 576 566 490 575 l 576 496 q 486 517 527 500 q 416 559 444 534 q 370 609 389 583 q 340 663 352 634 l 340 191 l 271 191 l 271 663 q 241 609 259 634 q 195 559 222 583 q 125 517 167 534 q 35 496 84 500 l 35 566 q 184 632 121 575 q 271 760 248 690 l 340 760 z "},"→":{"ha":639,"x_min":35,"x_max":604,"o":"m 410 729 q 476 579 419 642 q 604 493 534 517 l 604 424 q 477 337 534 401 q 410 187 419 274 l 340 187 q 398 340 350 282 q 507 424 446 399 l 35 424 l 35 493 l 507 493 q 453 523 479 505 q 404 569 428 541 q 362 638 379 597 q 340 729 345 680 l 410 729 z "},"↓":{"ha":611,"x_min":35,"x_max":576,"o":"m 340 256 q 370 310 352 284 q 416 359 389 335 q 486 401 444 384 q 576 422 527 418 l 576 353 q 427 286 490 343 q 340 158 364 229 l 271 158 q 184 286 247 229 q 35 353 121 343 l 35 422 q 125 401 84 418 q 195 359 167 384 q 241 310 222 335 q 271 256 259 284 l 271 728 l 340 728 l 340 256 z "},"↔":{"ha":805,"x_min":35,"x_max":771,"o":"m 576 729 q 643 579 586 642 q 771 493 701 517 l 771 424 q 644 337 701 401 q 576 187 586 274 l 507 187 q 564 340 517 282 q 673 424 612 399 l 132 424 q 241 340 194 399 q 298 187 289 282 l 229 187 q 162 337 220 274 q 35 424 104 401 l 35 493 q 162 579 105 517 q 229 729 220 642 l 298 729 q 241 576 289 634 q 132 493 194 518 l 673 493 q 564 576 612 518 q 507 729 517 634 l 576 729 z "},"↕":{"ha":611,"x_min":35,"x_max":576,"o":"m 340 187 q 370 241 352 216 q 416 291 389 267 q 486 332 444 315 q 576 354 527 349 l 576 285 q 427 218 490 275 q 340 90 364 161 l 271 90 q 184 218 247 161 q 35 285 121 275 l 35 354 q 125 332 84 349 q 195 291 167 315 q 241 241 222 267 q 271 187 259 216 l 271 729 q 241 675 259 701 q 195 625 222 650 q 125 584 167 601 q 35 562 84 567 l 35 632 q 184 699 121 642 q 271 827 247 756 l 340 827 q 427 699 364 756 q 576 632 490 642 l 576 562 q 486 584 527 567 q 416 625 444 601 q 370 675 389 650 q 340 729 352 701 l 340 187 z "},"↖":{"ha":550,"x_min":35,"x_max":517,"o":"m 517 319 l 467 271 l 134 604 q 154 524 150 566 q 142 426 158 482 q 85 319 126 370 l 35 368 q 85 473 72 415 q 92 581 99 531 q 64 673 85 631 l 114 722 q 205 695 155 702 q 313 701 255 688 q 418 751 371 715 l 467 703 q 362 645 417 661 q 265 632 307 629 q 184 652 223 636 l 517 319 z "},"↗":{"ha":551,"x_min":36,"x_max":517,"o":"m 488 623 q 460 531 467 581 q 467 423 453 481 q 517 318 480 365 l 468 269 q 410 374 427 319 q 397 471 393 429 q 416 551 401 513 l 85 220 l 36 269 l 370 603 q 290 583 332 587 q 192 594 248 578 q 85 652 136 610 l 134 701 q 238 650 180 664 q 347 644 296 637 q 439 672 397 651 l 488 623 z "},"↘":{"ha":550,"x_min":33,"x_max":515,"o":"m 515 600 q 465 495 478 553 q 458 387 451 437 q 486 294 465 336 l 436 245 q 345 273 395 266 q 237 267 295 280 q 132 216 179 253 l 83 265 q 188 323 133 307 q 285 336 243 340 q 366 317 327 332 l 33 648 l 83 697 l 416 364 q 396 444 400 402 q 408 542 392 486 q 465 648 424 597 l 515 600 z "},"↙":{"ha":551,"x_min":36,"x_max":517,"o":"m 183 307 q 263 328 221 323 q 361 316 305 332 q 468 258 417 300 l 419 208 q 314 259 372 245 q 206 266 256 273 q 114 237 156 258 l 65 288 q 93 379 85 329 q 86 487 100 429 q 36 591 73 545 l 85 640 q 143 535 126 591 q 156 438 159 480 q 136 358 152 397 l 468 690 l 517 640 l 183 307 z "},"∂":{"ha":686,"x_min":35,"x_max":652,"o":"m 197 958 q 345 879 279 923 q 469 770 411 834 q 567 627 528 705 q 629 443 606 548 q 652 212 652 337 q 567 -53 652 47 q 343 -153 483 -153 q 222 -127 279 -153 q 124 -56 165 -102 q 59 56 83 -11 q 35 203 35 123 q 44 295 35 250 q 75 385 53 340 q 130 463 97 430 q 214 517 163 496 q 329 538 265 538 q 473 500 412 538 q 568 399 533 463 q 438 701 536 581 q 170 895 340 821 l 197 958 m 343 -83 q 519 -2 456 -83 q 582 212 582 79 q 552 336 576 284 q 490 416 527 389 q 413 456 452 444 q 329 468 373 468 q 162 394 220 468 q 104 203 104 319 q 173 -6 104 71 q 343 -83 241 -83 z "},"∅":{"ha":819,"x_min":35,"x_max":785,"o":"m 571 900 q 729 765 673 857 q 785 557 785 672 q 760 412 785 479 q 688 292 734 344 q 570 211 642 241 q 411 180 498 180 q 314 191 371 180 l 240 -14 l 167 -14 l 249 211 q 91 347 146 254 q 35 557 35 440 q 60 700 35 633 q 132 819 85 768 q 251 901 178 871 q 411 930 323 930 q 505 921 465 930 l 579 1125 l 653 1125 l 571 900 m 104 557 q 147 388 104 464 q 272 277 189 313 l 482 856 q 411 861 437 861 q 274 836 334 861 q 178 767 214 810 q 123 670 142 724 q 104 557 104 616 m 411 250 q 546 276 486 250 q 642 345 606 301 q 697 442 678 388 q 715 557 715 496 q 672 724 715 648 q 547 835 629 800 l 339 257 q 411 250 376 250 z "},"∏":{"ha":639,"x_min":35,"x_max":604,"o":"m 604 965 l 604 896 l 492 896 l 492 -153 l 422 -153 l 422 896 l 215 896 l 215 -153 l 146 -153 l 146 896 l 35 896 l 35 965 l 604 965 z "},"∑":{"ha":639,"x_min":35,"x_max":604,"o":"m 604 965 l 604 896 l 118 896 l 411 403 l 118 -90 l 604 -90 l 604 -160 l 35 -160 l 35 -90 l 37 -90 l 334 401 l 37 896 l 35 896 l 35 965 l 604 965 z "},"−":{"ha":639,"x_min":35,"x_max":604,"o":"m 35 472 l 604 472 l 604 403 l 35 403 l 35 472 z "},"√":{"ha":774,"x_min":35,"x_max":741,"o":"m 496 958 l 741 958 l 741 903 l 551 903 l 325 -153 l 232 -153 l 35 345 l 109 345 l 275 -83 l 496 958 z "},"∞":{"ha":805,"x_min":35,"x_max":771,"o":"m 618 639 q 671 629 645 639 q 720 599 697 619 q 757 542 743 578 q 771 458 771 506 q 757 375 771 411 q 720 318 743 338 q 671 288 697 298 q 618 278 645 278 q 513 313 564 278 q 403 411 462 349 q 293 313 344 349 q 187 278 241 278 q 134 288 160 278 q 85 318 108 298 q 48 375 62 338 q 35 458 35 411 q 48 542 35 506 q 85 599 62 578 q 134 629 108 619 q 187 639 160 639 q 293 604 241 639 q 403 505 344 568 q 513 604 462 568 q 618 639 564 639 m 195 347 q 268 375 231 347 q 358 458 305 403 q 268 542 305 514 q 195 570 231 570 q 104 458 104 570 q 195 347 104 347 m 612 347 q 701 458 701 347 q 612 570 701 570 q 537 541 576 570 q 447 458 499 513 q 537 376 499 404 q 612 347 576 347 z "},"∫":{"ha":460,"x_min":35,"x_max":427,"o":"m 35 -97 q 115 -61 83 -97 q 162 36 146 -25 q 185 177 177 98 q 196 343 193 256 q 204 518 199 431 q 222 685 209 606 q 257 825 235 764 q 322 922 279 886 q 427 958 366 958 l 427 903 q 347 867 378 903 q 299 769 315 831 q 276 629 284 708 q 265 463 269 550 q 257 288 262 375 q 239 121 252 200 q 204 -19 227 42 q 139 -117 182 -81 q 35 -153 96 -153 l 35 -97 z "},"≈":{"ha":639,"x_min":35,"x_max":604,"o":"m 35 514 q 48 593 35 561 q 84 640 61 625 q 128 661 106 655 q 174 667 149 667 q 246 654 211 667 q 309 623 281 641 q 361 586 336 604 q 413 555 386 568 q 465 542 440 542 q 516 563 497 542 q 534 625 534 585 l 604 625 q 595 559 604 587 q 571 514 585 530 q 538 488 557 498 q 501 475 518 478 q 465 472 484 472 q 376 492 420 472 q 303 535 332 511 q 239 578 275 558 q 174 597 204 597 q 123 576 142 597 q 104 514 104 555 l 35 514 m 35 292 q 48 371 35 338 q 84 418 61 403 q 128 438 106 433 q 174 444 149 444 q 246 431 211 444 q 309 400 281 418 q 361 363 336 382 q 413 332 386 345 q 465 319 440 319 q 516 341 497 319 q 534 403 534 362 l 604 403 q 591 324 604 356 q 555 277 578 292 q 511 256 532 262 q 465 250 490 250 q 393 263 428 250 q 330 294 357 276 q 278 331 303 313 q 226 362 253 349 q 174 375 199 375 q 123 354 142 375 q 104 292 104 332 l 35 292 z "},"≠":{"ha":639,"x_min":35,"x_max":604,"o":"m 604 493 l 370 493 l 345 424 l 604 424 l 604 354 l 318 354 l 227 109 l 153 109 l 244 354 l 35 354 l 35 424 l 271 424 l 296 493 l 35 493 l 35 562 l 322 562 l 414 808 l 488 808 l 396 562 l 604 562 l 604 493 z "},"≤":{"ha":639,"x_min":35,"x_max":604,"o":"m 604 707 l 604 637 l 132 458 l 604 279 l 604 167 l 35 167 l 35 236 l 536 236 l 35 431 l 35 486 l 604 707 z "},"≥":{"ha":639,"x_min":41,"x_max":611,"o":"m 611 486 l 611 431 l 110 236 l 611 236 l 611 167 l 41 167 l 41 279 l 514 458 l 41 637 l 41 707 l 611 486 z "},"◊":{"ha":508,"x_min":35,"x_max":473,"o":"m 304 937 l 473 521 l 304 104 l 204 104 l 35 521 l 204 937 l 304 937 m 254 165 l 399 521 l 254 876 l 110 521 l 254 165 z "}}}
